# Blender 5.1.2
# www.blender.org
mtllib poste.mtl
o LampPost_LPoly
v 0.070625 -0.026192 -0.170503
v 0.070625 0.120283 -0.170503
v 0.170503 -0.026192 -0.070625
v 0.170503 0.120283 -0.070625
v 0.170503 -0.026192 0.070625
v 0.170503 0.120283 0.070625
v 0.070625 -0.026192 0.170503
v 0.070625 0.120283 0.170503
v -0.070625 -0.026192 0.170503
v -0.070625 0.120283 0.170503
v -0.170503 -0.026192 0.070625
v -0.170503 0.120283 0.070625
v -0.170503 -0.026192 -0.070625
v -0.170503 0.120283 -0.070625
v -0.070625 -0.026192 -0.170503
v -0.070625 0.120283 -0.170503
v 0.121755 0.173092 -0.050433
v 0.050433 0.173092 -0.121755
v 0.121755 0.173092 0.050433
v 0.050433 0.173092 0.121755
v -0.050433 0.173092 0.121755
v -0.121755 0.173092 0.050433
v -0.121755 0.173092 -0.050433
v -0.050433 0.173092 -0.121755
v 0.121755 0.675308 -0.050433
v 0.050433 0.675308 -0.121755
v 0.121755 0.675308 0.050433
v 0.050433 0.675308 0.121755
v -0.050433 0.675308 0.121755
v -0.121755 0.675308 0.050433
v -0.121755 0.675308 -0.050433
v -0.050433 0.675308 -0.121755
v 0.170093 0.718717 -0.070455
v 0.070455 0.718717 -0.170093
v 0.170093 0.718717 0.070455
v 0.070455 0.718717 0.170093
v -0.070455 0.718717 0.170093
v -0.170093 0.718717 0.070455
v -0.170093 0.718717 -0.070455
v -0.070455 0.718717 -0.170093
v 0.094102 0.775255 -0.038978
v 0.038978 0.775255 -0.094102
v 0.094102 0.775255 0.038978
v 0.038978 0.775255 0.094102
v -0.038978 0.775255 0.094102
v -0.094102 0.775255 0.038978
v -0.094102 0.775255 -0.038978
v -0.038978 0.775255 -0.094102
v 0.094102 0.843100 -0.038978
v 0.038978 0.843100 -0.094102
v 0.094102 0.843100 0.038978
v 0.038978 0.843100 0.094102
v -0.038978 0.843100 0.094102
v -0.094102 0.843100 0.038978
v -0.094102 0.843100 -0.038978
v -0.038978 0.843100 -0.094102
v 0.110318 0.857769 -0.045695
v 0.045695 0.857769 -0.110318
v 0.110318 0.857769 0.045695
v 0.045695 0.857769 0.110318
v -0.045695 0.857769 0.110318
v -0.110318 0.857769 0.045695
v -0.110318 0.857769 -0.045695
v -0.045695 0.857769 -0.110318
v 0.060369 0.910945 -0.025006
v 0.025006 0.910945 -0.060369
v 0.060369 0.910945 0.025006
v 0.025006 0.910945 0.060369
v -0.025006 0.910945 0.060369
v -0.060369 0.910945 0.025006
v -0.060369 0.910945 -0.025006
v -0.025006 0.910945 -0.060369
v 0.060369 0.979707 -0.025006
v 0.025006 0.979707 -0.060369
v 0.060369 0.979707 0.025006
v 0.025006 0.979707 0.060369
v -0.025006 0.979707 0.060369
v -0.060369 0.979707 0.025006
v -0.060369 0.979707 -0.025006
v -0.025006 0.979707 -0.060369
v 0.090868 1.019315 -0.037639
v 0.037639 1.019315 -0.090869
v 0.090868 1.019315 0.037639
v 0.037639 1.019315 0.090868
v -0.037639 1.019315 0.090868
v -0.090869 1.019315 0.037639
v -0.090869 1.019315 -0.037639
v -0.037639 1.019315 -0.090869
v 0.090868 1.052320 -0.037639
v 0.037639 1.052320 -0.090869
v 0.090868 1.052320 0.037639
v 0.037639 1.052320 0.090868
v -0.037639 1.052320 0.090868
v -0.090869 1.052320 0.037639
v -0.090869 1.052320 -0.037639
v -0.037639 1.052320 -0.090869
v 0.058054 1.121999 -0.024047
v 0.024047 1.121999 -0.058054
v 0.058054 1.121999 0.024047
v 0.024047 1.121999 0.058054
v -0.024047 1.121999 0.058054
v -0.058054 1.121999 0.024047
v -0.058054 1.121999 -0.024047
v -0.024047 1.121999 -0.058054
v 0.058054 3.198904 -0.024047
v 0.024047 3.198904 -0.058054
v 0.058054 3.198904 0.024047
v 0.024047 3.198904 0.058054
v -0.024047 3.198904 0.058054
v -0.058054 3.198904 0.024047
v -0.058054 3.198904 -0.024047
v -0.024047 3.198904 -0.058054
v 0.104835 3.271486 -0.043424
v 0.043424 3.271486 -0.104836
v 0.104835 3.271486 0.043424
v 0.043424 3.271486 0.104835
v -0.043424 3.271486 0.104835
v -0.104835 3.271486 0.043424
v -0.104835 3.271486 -0.043424
v -0.043424 3.271486 -0.104836
v 0.044576 3.306631 -0.018464
v 0.018464 3.306631 -0.044576
v 0.044576 3.306631 0.018464
v 0.018464 3.306631 0.044576
v -0.018464 3.306631 0.044576
v -0.044576 3.306631 0.018464
v -0.044576 3.306631 -0.018464
v -0.018464 3.306631 -0.044576
v 0.044576 3.574039 -0.018464
v 0.018464 3.574039 -0.044576
v 0.044576 3.574039 0.018464
v 0.018464 3.574039 0.044576
v -0.018464 3.574039 0.044576
v -0.044576 3.574039 0.018464
v -0.044576 3.574039 -0.018464
v -0.018464 3.574039 -0.044576
v 0.023138 3.574039 -0.009584
v 0.009584 3.574039 -0.023138
v 0.023138 3.574039 0.009584
v 0.009584 3.574039 0.023138
v -0.009584 3.574039 0.023138
v -0.023138 3.574039 0.009584
v -0.023138 3.574039 -0.009584
v -0.009584 3.574039 -0.023138
v 0.023137 3.696557 -0.009584
v 0.009583 3.696557 -0.023138
v 0.023137 3.696557 0.009584
v 0.009583 3.696557 0.023137
v -0.009584 3.696557 0.023137
v -0.023138 3.696559 0.009584
v -0.023139 3.696560 -0.009584
v -0.009584 3.696557 -0.023138
v -0.023138 3.710113 -0.023138
v -0.023138 3.710113 0.023137
v -0.023138 3.742835 -0.009584
v -0.023139 3.729281 -0.023138
v -0.009584 3.742838 -0.023138
v -0.023139 3.742835 0.009584
v -0.009584 3.742838 0.023137
v -0.023139 3.729281 0.023137
v 0.023137 3.742509 -0.009584
v 0.009583 3.742509 -0.023138
v 0.023137 3.742509 0.009584
v 0.009583 3.742509 0.023137
v 0.023137 4.098435 -0.009584
v 0.009583 4.098435 -0.023138
v 0.023137 4.098435 0.009584
v 0.009583 4.098435 0.023137
v -0.009584 4.098435 0.023137
v -0.023138 4.098437 0.009584
v -0.023138 4.098438 -0.009584
v -0.009584 4.098435 -0.023138
v -0.023138 4.111991 -0.023138
v -0.023138 4.111991 0.023137
v -0.023138 4.144713 -0.009584
v -0.023138 4.131159 -0.023138
v -0.009584 4.144716 -0.023138
v -0.023138 4.144713 0.009584
v -0.009584 4.144716 0.023137
v -0.023138 4.131160 0.023137
v 0.023137 4.144387 -0.009584
v 0.009583 4.144387 -0.023138
v 0.023137 4.144387 0.009584
v 0.009583 4.144387 0.023137
v -0.023138 4.524942 -0.009584
v -0.009584 4.524945 -0.023138
v -0.023138 4.524942 0.009584
v -0.009584 4.524945 0.023137
v 0.023137 4.524616 -0.009584
v 0.009583 4.524616 -0.023138
v 0.023137 4.524616 0.009584
v 0.009583 4.524616 0.023137
v -0.036278 4.541409 -0.015027
v -0.015027 4.541415 -0.036278
v -0.036278 4.541409 0.015026
v -0.015027 4.541415 0.036277
v 0.036277 4.540898 -0.015027
v 0.015026 4.540898 -0.036278
v 0.036277 4.540898 0.015026
v 0.015026 4.540898 0.036277
v -0.015438 4.556360 -0.006395
v -0.006395 4.556362 -0.015437
v -0.015438 4.556360 0.006394
v -0.006395 4.556362 0.015437
v 0.015437 4.556142 -0.006395
v 0.006394 4.556142 -0.015437
v 0.015437 4.556142 0.006394
v 0.006394 4.556142 0.015437
v -0.000001 4.659453 -0.000000
v -0.007916 4.659508 -0.003279
v -0.015438 4.651605 -0.006395
v -0.003279 4.659510 -0.007915
v -0.006395 4.651607 -0.015437
v -0.007916 4.659508 0.003278
v -0.015438 4.651605 0.006394
v -0.006395 4.651607 0.015437
v -0.003279 4.659510 0.007914
v 0.007914 4.659397 -0.003279
v 0.015437 4.651388 -0.006395
v 0.006394 4.651388 -0.015437
v 0.003278 4.659397 -0.007915
v 0.007914 4.659397 0.003278
v 0.015437 4.651388 0.006394
v 0.003278 4.659397 0.007914
v 0.006394 4.651388 0.015437
v -0.163192 4.144585 -0.009584
v -0.149639 4.144585 -0.023138
v -0.163192 4.144585 0.009584
v -0.149639 4.144585 0.023137
v -0.130471 4.144585 0.023137
v -0.116917 4.144582 0.009584
v -0.116917 4.144582 -0.009584
v -0.130471 4.144585 -0.023138
v -0.116917 4.131029 -0.023138
v -0.116917 4.131029 0.023137
v -0.116917 4.098307 -0.009584
v -0.116917 4.111861 -0.023138
v -0.130471 4.098304 -0.023138
v -0.116917 4.098307 0.009584
v -0.130471 4.098304 0.023137
v -0.116917 4.111860 0.023137
v -0.163192 4.098633 -0.009584
v -0.149639 4.098633 -0.023138
v -0.163192 4.098633 0.009584
v -0.149639 4.098633 0.023137
v -0.163192 3.742707 -0.009584
v -0.149639 3.742707 -0.023138
v -0.163192 3.742707 0.009584
v -0.149639 3.742707 0.023137
v -0.130471 3.742707 0.023137
v -0.116917 3.742704 0.009584
v -0.116917 3.742704 -0.009584
v -0.130471 3.742707 -0.023138
v -0.116917 3.729151 -0.023138
v -0.116917 3.729151 0.023137
v -0.116917 3.696429 -0.009584
v -0.116917 3.709983 -0.023138
v -0.130471 3.696425 -0.023138
v -0.116917 3.696429 0.009583
v -0.130471 3.696425 0.023137
v -0.116917 3.709982 0.023137
v -0.163192 3.696754 -0.009584
v -0.149639 3.696754 -0.023138
v -0.163192 3.696754 0.009583
v -0.149639 3.696754 0.023137
v -0.116917 3.613128 -0.009584
v -0.130471 3.613125 -0.023138
v -0.116917 3.613128 0.009583
v -0.130471 3.613125 0.023137
v -0.163192 3.613454 -0.009584
v -0.149639 3.613454 -0.023138
v -0.163192 3.613454 0.009583
v -0.149639 3.613454 0.023137
v -0.127381 3.599142 -0.005250
v -0.134805 3.599140 -0.012674
v -0.127381 3.599142 0.005249
v -0.134805 3.599140 0.012673
v -0.152728 3.599320 -0.005250
v -0.145304 3.599320 -0.012674
v -0.152728 3.599320 0.005249
v -0.145304 3.599320 0.012673
v -0.140055 3.599230 -0.000000
v -0.677755 4.034950 -0.009584
v -0.677755 4.034950 0.009584
v -0.691309 4.034953 0.023137
v -0.710477 4.034953 0.023137
v -0.724031 4.034953 0.009584
v -0.710477 4.034953 -0.023138
v -0.724031 4.034953 -0.009584
v -0.691309 4.034953 -0.023138
v -0.419683 4.426585 -0.004792
v -0.419683 4.426585 0.004792
v -0.419681 4.433362 0.011568
v -0.419681 4.442945 0.011568
v -0.419681 4.449722 0.004792
v -0.419681 4.442945 -0.011569
v -0.419681 4.449722 -0.004792
v -0.419681 4.433362 -0.011569
v -0.600608 4.340638 -0.007188
v -0.600607 4.340638 0.007188
v -0.607794 4.347827 0.017353
v -0.617959 4.357993 0.017353
v -0.625147 4.365180 0.007188
v -0.617959 4.357993 -0.017354
v -0.625147 4.365180 -0.007188
v -0.607794 4.347827 -0.017354
v -0.212904 4.308404 -0.007188
v -0.212904 4.308404 0.007188
v -0.205714 4.315591 0.017353
v -0.195549 4.325757 0.017353
v -0.188361 4.332944 0.007188
v -0.195549 4.325757 -0.017354
v -0.188361 4.332944 -0.007188
v -0.205714 4.315591 -0.017354
v -0.303382 4.392388 0.005990
v -0.303383 4.392388 -0.005990
v -0.299787 4.399370 0.014461
v -0.294704 4.409244 0.014461
v -0.291111 4.416226 0.005990
v -0.291111 4.416226 -0.005990
v -0.294704 4.409244 -0.014461
v -0.299787 4.399370 -0.014461
v -0.166534 4.237028 0.020245
v -0.176906 4.233435 0.008386
v -0.151868 4.242111 0.020245
v -0.141497 4.245703 0.008386
v -0.141497 4.245703 -0.008386
v -0.151868 4.242111 -0.020246
v -0.166534 4.237028 -0.020246
v -0.176906 4.233435 -0.008386
v -0.526870 4.420357 0.014461
v -0.521788 4.410482 0.014461
v -0.530464 4.427339 0.005990
v -0.530464 4.427339 -0.005990
v -0.526870 4.420357 -0.014461
v -0.521788 4.410482 -0.014461
v -0.518195 4.403499 -0.005990
v -0.518195 4.403499 0.005990
v -0.642764 4.212889 -0.004792
v -0.642764 4.212889 0.004792
v -0.635987 4.212887 0.011568
v -0.626404 4.212887 0.011568
v -0.619627 4.212887 0.004792
v -0.626404 4.212887 -0.011569
v -0.619627 4.212887 -0.004792
v -0.635987 4.212887 -0.011569
v -0.677755 4.174193 -0.009584
v -0.677755 4.174194 0.009584
v -0.691309 4.174196 0.023137
v -0.710477 4.174196 0.023137
v -0.724031 4.174196 0.009584
v -0.710477 4.174196 -0.023138
v -0.724031 4.174196 -0.009584
v -0.691309 4.174196 -0.023138
v -0.661454 4.274505 -0.007499
v -0.661454 4.274505 0.007498
v -0.670829 4.279461 0.018102
v -0.684089 4.286467 0.018102
v -0.693465 4.291420 0.007498
v -0.684089 4.286467 -0.018103
v -0.693465 4.291420 -0.007499
v -0.670829 4.279461 -0.018103
v -0.632780 4.322235 0.017353
v -0.637131 4.311351 0.005863
v -0.632779 4.322235 -0.017354
v -0.637131 4.311351 -0.005864
v -0.619766 4.271735 0.005990
v -0.619766 4.271735 -0.005990
v -0.624643 4.272857 0.014461
v -0.624643 4.272857 -0.014461
v -0.640877 4.275110 -0.005328
v -0.640877 4.275110 0.005327
v -0.636914 4.274608 -0.014461
v -0.636915 4.274608 0.014461
v -0.498728 4.077493 -0.004926
v -0.498728 4.077493 0.004925
v -0.500450 4.070744 0.011890
v -0.502883 4.061199 0.011890
v -0.504603 4.054450 0.004925
v -0.502883 4.061199 -0.011891
v -0.504603 4.054450 -0.004926
v -0.500450 4.070744 -0.011891
v -0.422510 4.063269 -0.004190
v -0.422510 4.063269 0.004189
v -0.424018 4.057539 0.010113
v -0.426149 4.049437 0.010113
v -0.427655 4.043707 0.004189
v -0.426149 4.049437 -0.010114
v -0.427655 4.043707 -0.004190
v -0.424018 4.057539 -0.010114
v -0.469949 4.064711 0.015063
v -0.459897 4.066287 0.005089
v -0.469949 4.064711 -0.015064
v -0.459897 4.066287 -0.005090
v -0.435583 4.093650 0.005199
v -0.435583 4.093650 -0.005200
v -0.433150 4.090052 0.012553
v -0.433150 4.090052 -0.012553
v -0.424171 4.079015 -0.004625
v -0.424171 4.079015 0.004624
v -0.426391 4.081678 -0.012553
v -0.426391 4.081678 0.012553
v -0.595332 4.110146 -0.004792
v -0.595332 4.110146 0.004792
v -0.590539 4.114937 0.011568
v -0.583763 4.121713 0.011568
v -0.578971 4.126505 0.004792
v -0.583763 4.121713 -0.011569
v -0.578971 4.126505 -0.004792
v -0.590539 4.114937 -0.011569
v -0.380085 4.147136 0.005199
v -0.380085 4.147136 -0.005200
v -0.375951 4.145804 0.012553
v -0.375951 4.145804 -0.012553
v -0.362076 4.142653 -0.004625
v -0.362077 4.142653 0.004624
v -0.365467 4.143381 -0.012553
v -0.365467 4.143381 0.012553
v -0.373652 4.224618 0.005199
v -0.373652 4.224618 -0.005200
v -0.369524 4.225972 0.012553
v -0.369524 4.225972 -0.012553
v -0.356449 4.231583 -0.004625
v -0.356450 4.231583 0.004624
v -0.359620 4.230177 -0.012553
v -0.359620 4.230177 0.012553
v -0.418638 4.231281 0.008514
v -0.418638 4.231281 -0.008514
v -0.405618 4.235552 0.020554
v -0.405618 4.235552 -0.020555
v -0.364373 4.253251 -0.007573
v -0.364375 4.253251 0.007572
v -0.374373 4.248817 -0.020555
v -0.374373 4.248817 0.020554
v -0.434949 4.250997 0.008514
v -0.434949 4.250997 -0.008514
v -0.421930 4.255267 0.020554
v -0.421930 4.255267 -0.020555
v -0.380685 4.272966 -0.007573
v -0.380686 4.272966 0.007572
v -0.390685 4.268533 -0.020555
v -0.390685 4.268533 0.020554
v -0.428913 4.272158 0.006846
v -0.428913 4.272158 -0.006847
v -0.423478 4.273941 0.016529
v -0.423478 4.273941 -0.016530
v -0.406261 4.281329 -0.006090
v -0.406262 4.281329 0.006089
v -0.410436 4.279478 -0.016530
v -0.410436 4.279478 0.016529
v -0.417272 4.276727 -0.000000
v -0.273241 3.981426 -0.004190
v -0.268730 3.985265 -0.010114
v -0.273241 3.981426 0.004189
v -0.268730 3.985265 0.010113
v -0.262349 3.990695 0.010113
v -0.257837 3.994534 0.004189
v -0.257837 3.994534 -0.004190
v -0.262349 3.990695 -0.010114
v -0.183706 3.872357 -0.004190
v -0.177782 3.872417 -0.010114
v -0.183706 3.872357 0.004189
v -0.177782 3.872417 0.010113
v -0.169404 3.872501 0.010113
v -0.163192 3.872519 0.004175
v -0.163192 3.872519 -0.004175
v -0.169404 3.872501 -0.010114
v -0.163192 3.814560 0.004175
v -0.163192 3.814560 -0.004176
v -0.183706 3.819557 -0.004190
v -0.177782 3.818020 -0.010114
v -0.183706 3.819557 0.004189
v -0.177782 3.818020 0.010113
v -0.169404 3.815985 0.010113
v -0.169404 3.815985 -0.010114
v -0.211945 3.761449 0.004175
v -0.211945 3.761449 -0.004176
v -0.219930 3.780994 -0.004190
v -0.217700 3.775295 -0.010114
v -0.219930 3.780994 0.004189
v -0.217700 3.775295 0.010113
v -0.214434 3.767316 0.010113
v -0.214434 3.767316 -0.010114
v -0.271473 3.761455 0.004175
v -0.271473 3.761455 -0.004176
v -0.263299 3.780921 -0.004190
v -0.265753 3.775315 -0.010114
v -0.263299 3.780921 0.004189
v -0.265753 3.775315 0.010113
v -0.269085 3.767363 0.010113
v -0.269085 3.767363 -0.010114
v -0.314199 3.816054 0.004175
v -0.314199 3.816054 -0.004176
v -0.293097 3.816741 -0.004190
v -0.299215 3.816633 -0.010114
v -0.293097 3.816741 0.004189
v -0.299215 3.816633 0.010113
v -0.307832 3.816347 0.010113
v -0.307832 3.816347 -0.010114
v -0.297219 3.843780 0.002568
v -0.297219 3.843780 -0.002569
v -0.287750 3.834888 -0.002578
v -0.290456 3.837506 -0.006222
v -0.287750 3.834888 0.002577
v -0.290456 3.837506 0.006222
v -0.294325 3.841134 0.006222
v -0.294325 3.841134 -0.006222
v -0.292437 3.839327 -0.000000
v -0.663547 4.011831 -0.015470
v -0.663547 4.011831 0.015469
v -0.685424 4.011836 0.037346
v -0.716363 4.011836 0.037346
v -0.738240 4.011836 0.015469
v -0.716363 4.011836 -0.037347
v -0.738240 4.011836 -0.015470
v -0.685424 4.011836 -0.037347
v -0.663547 3.932105 -0.015470
v -0.663547 3.932106 0.015469
v -0.685424 3.932111 0.037346
v -0.716363 3.932111 0.037346
v -0.738240 3.932111 0.015469
v -0.716363 3.932111 -0.037347
v -0.738240 3.932111 -0.015470
v -0.685424 3.932111 -0.037347
v -0.855402 3.837252 -0.064000
v -0.791959 3.552661 -0.037721
v -0.546385 3.837252 -0.064000
v -0.609827 3.552661 -0.037721
v -0.552729 3.808793 -0.051200
v -0.603483 3.581120 -0.030177
v -0.559921 3.808793 -0.068565
v -0.610675 3.581120 -0.047542
v -0.575222 3.860599 -0.052056
v -0.509425 3.870099 -0.096265
v -0.485528 3.870099 -0.089208
v -0.497436 3.870099 -0.067320
v -0.841865 3.808793 -0.068565
v -0.569012 3.837252 -0.086628
v -0.791111 3.581120 -0.047542
v -0.849058 3.808793 -0.051200
v -0.546384 3.837252 -0.032001
v -0.798304 3.581120 -0.030177
v -0.855402 3.837252 0.032000
v -0.832775 3.837252 0.086627
v -0.636893 3.837252 0.154508
v -0.663172 3.552661 0.091066
v -0.649693 3.808793 0.148164
v -0.670716 3.581120 0.097410
v -0.632328 3.808793 0.140971
v -0.653351 3.581120 0.090217
v -0.648838 3.860599 0.125671
v -0.604629 3.870099 0.191468
v -0.611686 3.870099 0.215365
v -0.633573 3.870099 0.203457
v -0.614266 3.837252 0.131881
v -0.668893 3.837252 0.154508
v -0.732893 3.837252 -0.154509
v -0.787520 3.837252 -0.131882
v -0.768213 3.870099 -0.203458
v -0.790101 3.870099 -0.215365
v -0.797158 3.870099 -0.191469
v -0.752948 3.860599 -0.125672
v -0.826565 3.860599 -0.052055
v -0.748435 3.581120 -0.090218
v -0.769458 3.808793 -0.140972
v -0.731070 3.581120 -0.097411
v -0.752093 3.808793 -0.148165
v -0.738614 3.552661 -0.091067
v -0.764893 3.837252 -0.154509
v -0.904351 3.870099 0.067320
v -0.916258 3.870099 0.089207
v -0.892361 3.870099 0.096264
v -0.826565 3.860599 0.052055
v -0.791111 3.581120 0.047541
v -0.841865 3.808793 0.068564
v -0.904351 3.870099 -0.067320
v -0.916258 3.870099 -0.089207
v -0.892362 3.870099 -0.096264
v -0.798304 3.581120 0.030176
v -0.849058 3.808793 0.051200
v -0.791959 3.552661 0.037721
v -0.855402 3.837252 0.063999
v -0.636894 3.837252 -0.154509
v -0.663172 3.552661 -0.091067
v -0.632329 3.808793 -0.140972
v -0.653352 3.581120 -0.090218
v -0.649694 3.808793 -0.148165
v -0.670717 3.581120 -0.097411
v -0.648838 3.860599 -0.125672
v -0.633574 3.870099 -0.203458
v -0.611686 3.870099 -0.215366
v -0.604629 3.870099 -0.191469
v -0.668894 3.837252 -0.154509
v -0.614267 3.837252 -0.131882
v -0.787520 3.837252 0.131881
v -0.732893 3.837252 0.154509
v -0.797157 3.870099 0.191468
v -0.790100 3.870099 0.215365
v -0.768212 3.870099 0.203458
v -0.752948 3.860599 0.125671
v -0.731070 3.581120 0.097410
v -0.752093 3.808793 0.148164
v -0.748434 3.581120 0.090218
v -0.769457 3.808793 0.140972
v -0.738614 3.552661 0.091066
v -0.764893 3.837252 0.154509
v -0.855402 3.837252 -0.032000
v -0.832775 3.837252 -0.086627
v -0.569011 3.837252 0.086626
v -0.546384 3.837252 0.031999
v -0.509425 3.870099 0.096264
v -0.485528 3.870099 0.089206
v -0.497435 3.870099 0.067319
v -0.575221 3.860599 0.052054
v -0.603483 3.581120 0.030176
v -0.552728 3.808793 0.051199
v -0.610675 3.581120 0.047541
v -0.559921 3.808793 0.068564
v -0.609827 3.552661 0.037720
v -0.546384 3.837252 0.063999
v -0.791959 3.529433 -0.037721
v -0.609827 3.529433 -0.037721
v -0.663172 3.529433 0.091066
v -0.738614 3.529433 -0.091067
v -0.791959 3.529433 0.037721
v -0.663172 3.529433 -0.091067
v -0.738614 3.529433 0.091066
v -0.609827 3.529433 0.037720
v -0.738820 3.529433 -0.015710
v -0.662966 3.529433 -0.015710
v -0.685183 3.529433 0.037927
v -0.716603 3.529433 -0.037928
v -0.738820 3.529433 0.015710
v -0.685183 3.529433 -0.037928
v -0.716603 3.529433 0.037927
v -0.662966 3.529433 0.015710
v -0.738820 3.428320 -0.015710
v -0.662966 3.428320 -0.015710
v -0.685183 3.428320 0.037927
v -0.716603 3.428320 -0.037928
v -0.738820 3.428320 0.015710
v -0.685183 3.428320 -0.037928
v -0.716603 3.428320 0.037927
v -0.662966 3.428320 0.015710
v -0.712986 3.428320 -0.005009
v -0.688801 3.428320 -0.005009
v -0.695884 3.428320 0.012092
v -0.705902 3.428320 -0.012093
v -0.712986 3.428320 0.005008
v -0.695884 3.428320 -0.012093
v -0.705902 3.428320 0.012092
v -0.688801 3.428320 0.005008
v -0.700893 3.371651 -0.000000
vn 0.3827 -0.0000 -0.9239
vn 0.3457 0.4290 -0.8345
vn 0.8345 0.4290 -0.3457
vn 0.9239 -0.0000 -0.3827
vn 0.8345 0.4290 0.3457
vn 0.9239 -0.0000 0.3827
vn 0.3457 0.4290 0.8345
vn 0.3827 -0.0000 0.9239
vn -0.3457 0.4290 0.8345
vn -0.3827 -0.0000 0.9239
vn -0.8345 0.4290 0.3457
vn -0.9239 -0.0000 0.3827
vn -0.8345 0.4290 -0.3457
vn -0.9239 -0.0000 -0.3827
vn -0.3413 0.4525 0.8239
vn -0.8239 0.4525 0.3413
vn -0.3457 0.4290 -0.8345
vn -0.3827 -0.0000 -0.9239
vn 0.8239 0.4525 0.3413
vn 0.8239 0.4525 -0.3413
vn 0.7882 -0.5216 -0.3265
vn 0.7882 -0.5216 0.3265
vn -0.3413 0.4525 -0.8239
vn 0.3413 0.4525 -0.8239
vn 0.3413 0.4525 0.8239
vn -0.8239 0.4525 -0.3413
vn 0.3265 -0.5216 -0.7882
vn -0.3265 -0.5216 -0.7882
vn -0.3807 0.1012 -0.9191
vn 0.3807 0.1012 -0.9191
vn -0.7882 -0.5216 -0.3265
vn -0.3265 -0.5216 0.7882
vn -0.7882 -0.5216 0.3265
vn 0.3265 -0.5216 0.7882
vn 0.3807 0.1012 0.9191
vn 0.9191 0.1012 0.3807
vn 0.7442 0.5926 0.3083
vn 0.3083 0.5926 0.7442
vn -0.9191 0.1012 0.3807
vn -0.9191 0.1012 -0.3807
vn -0.3807 0.1012 0.9191
vn 0.9191 0.1012 -0.3807
vn -0.3083 0.5926 -0.7442
vn -0.7442 0.5926 -0.3083
vn -0.7898 -0.5189 -0.3271
vn -0.3271 -0.5189 -0.7898
vn 0.3083 0.5926 -0.7442
vn 0.7442 0.5926 -0.3083
vn -0.7442 0.5926 0.3083
vn -0.3083 0.5926 0.7442
vn -0.3271 -0.5189 0.7898
vn 0.3271 -0.5189 0.7898
vn 0.3816 -0.0767 0.9212
vn -0.3816 -0.0767 0.9212
vn -0.7898 -0.5189 0.3271
vn 0.7898 -0.5189 0.3271
vn 0.3271 -0.5189 -0.7898
vn 0.7898 -0.5189 -0.3271
vn 0.3816 -0.0767 -0.9212
vn -0.3816 -0.0767 -0.9212
vn -0.3400 0.4588 -0.8209
vn 0.3400 0.4588 -0.8209
vn 0.9212 -0.0767 -0.3816
vn 0.9212 -0.0767 0.3816
vn -0.9212 -0.0767 -0.3816
vn -0.9212 -0.0767 0.3816
vn -0.8209 0.4588 0.3400
vn -0.3400 0.4588 0.8209
vn -0.3524 -0.3898 0.8508
vn -0.8508 -0.3898 0.3524
vn -0.8209 0.4588 -0.3400
vn 0.3400 0.4588 0.8209
vn 0.8209 0.4588 -0.3400
vn 0.8209 0.4588 0.3400
vn -0.3524 -0.3898 -0.8508
vn -0.8508 -0.3898 -0.3524
vn -0.8577 -0.3717 -0.3553
vn -0.3553 -0.3717 -0.8577
vn 0.8508 -0.3898 0.3524
vn 0.3524 -0.3898 0.8508
vn 0.3524 -0.3898 -0.8508
vn 0.8508 -0.3898 -0.3524
vn -0.8577 -0.3717 0.3553
vn -0.8964 0.2420 0.3713
vn -0.8964 0.2420 -0.3713
vn -0.3553 -0.3717 0.8577
vn 0.8577 -0.3717 0.3553
vn 0.3553 -0.3717 0.8577
vn 0.3553 -0.3717 -0.8577
vn 0.8577 -0.3717 -0.3553
vn 0.8964 0.2420 -0.3713
vn 0.3713 0.2420 -0.8964
vn 0.3705 0.2499 -0.8946
vn 0.8946 0.2499 -0.3705
vn 0.3713 0.2420 0.8964
vn -0.3713 0.2420 0.8964
vn 0.8964 0.2420 0.3713
vn -0.3713 0.2420 -0.8964
vn -0.3705 0.2499 -0.8946
vn -0.8946 0.2499 -0.3705
vn -0.8709 -0.3337 -0.3608
vn -0.3608 -0.3337 -0.8709
vn -0.8946 0.2499 0.3705
vn 0.3705 0.2499 0.8946
vn -0.3705 0.2499 0.8946
vn 0.8946 0.2499 0.3705
vn 0.8709 -0.3337 0.3608
vn 0.8709 -0.3337 -0.3608
vn 0.8332 0.4322 -0.3451
vn 0.8332 0.4322 0.3451
vn -0.3608 -0.3337 0.8709
vn -0.8709 -0.3337 0.3608
vn 0.3608 -0.3337 0.8709
vn 0.3608 -0.3337 -0.8709
vn 0.3451 0.4322 -0.8332
vn -0.3451 0.4322 -0.8332
vn -0.2802 0.6811 -0.6765
vn 0.2802 0.6811 -0.6765
vn -0.8332 0.4322 -0.3451
vn -0.3451 0.4322 0.8332
vn -0.8332 0.4322 0.3451
vn 0.3451 0.4322 0.8332
vn 0.2802 0.6811 0.6765
vn 0.6765 0.6811 0.2802
vn 0.2976 0.9467 0.1233
vn 0.1233 0.9467 0.2976
vn -0.6765 0.6811 0.2802
vn -0.6765 0.6811 -0.2802
vn -0.2802 0.6811 0.6765
vn 0.6765 0.6811 -0.2802
vn -0.1233 0.9467 -0.2976
vn -0.2976 0.9467 -0.1233
vn -0.1848 0.9798 -0.0765
vn -0.0765 0.9798 -0.1848
vn 0.1233 0.9467 -0.2976
vn 0.2976 0.9467 -0.1233
vn -0.2976 0.9467 0.1233
vn -0.1233 0.9467 0.2976
vn -0.0765 0.9798 0.1848
vn 0.0765 0.9798 0.1848
vn -0.3487 -0.1614 0.9232
vn -0.1848 0.9798 0.0765
vn 0.1848 0.9798 0.0765
vn 0.0765 0.9798 -0.1848
vn 0.1848 0.9798 -0.0765
vn -0.3770 -0.8480 -0.3726
vn -0.3486 -0.1614 -0.9232
vn -0.3770 -0.8479 0.3726
vn 0.3545 0.8677 -0.3485
vn 0.0403 0.2738 -0.9609
vn 0.3522 0.2166 -0.9105
vn -0.0403 -0.2738 0.9609
vn -0.0403 -0.2738 -0.9609
vn -0.3792 0.8473 -0.3718
vn -0.3487 0.1614 -0.9232
vn -0.0409 0.2751 -0.9605
vn -0.3792 0.8473 0.3718
vn -0.0409 0.2751 0.9605
vn -0.3486 0.1614 0.9232
vn 0.3545 0.8677 0.3485
vn 0.3522 0.2166 0.9105
vn 0.0403 0.2738 0.9609
vn -0.3486 -0.1614 0.9232
vn -0.3486 0.1614 -0.9232
vn -0.0409 0.2752 0.9605
vn 0.8445 -0.4055 0.3498
vn 0.3479 -0.3987 0.8485
vn 0.3479 -0.3987 -0.8485
vn 0.8445 -0.4055 -0.3498
vn -0.3525 -0.4084 -0.8420
vn -0.3525 -0.4084 0.8420
vn -0.8461 -0.4016 0.3505
vn -0.8461 -0.4016 -0.3505
vn 0.3738 0.2296 0.8987
vn -0.3654 0.2803 0.8876
vn 0.8951 0.2478 -0.3707
vn 0.8951 0.2478 0.3707
vn -0.8916 0.2620 -0.3693
vn -0.3654 0.2803 -0.8876
vn -0.8916 0.2620 0.3693
vn 0.3738 0.2296 -0.8987
vn -0.7347 0.6063 0.3043
vn -0.7347 0.6063 -0.3043
vn 0.3092 0.6066 0.7324
vn -0.3019 0.5983 0.7422
vn 0.7398 0.5989 -0.3064
vn 0.7398 0.5989 0.3064
vn -0.3019 0.5983 -0.7422
vn 0.3092 0.6066 -0.7324
vn -0.2267 0.9694 0.0939
vn -0.0863 0.9703 0.2259
vn 0.0085 1.0000 -0.0000
vn 0.2354 0.9670 0.0975
vn 0.2354 0.9670 -0.0975
vn -0.0863 0.9703 -0.2259
vn -0.2267 0.9694 -0.0938
vn 0.1053 0.9660 -0.2363
vn 0.3488 0.4278 -0.8339
vn 0.8320 0.4347 -0.3446
vn -0.8301 0.4390 0.3438
vn -0.8301 0.4390 -0.3438
vn 0.1052 0.9660 0.2363
vn -0.3394 0.4460 0.8282
vn -0.3394 0.4460 -0.8282
vn 0.8320 0.4347 0.3446
vn 0.3488 0.4277 0.8339
vn 0.3792 -0.8473 -0.3718
vn 0.3487 -0.1614 -0.9232
vn 0.0409 -0.2751 -0.9605
vn 0.3792 -0.8473 0.3718
vn 0.0409 -0.2751 0.9605
vn 0.3486 -0.1614 0.9232
vn -0.3823 -0.0197 0.9238
vn -0.9225 -0.0703 0.3795
vn -0.9225 -0.0703 -0.3795
vn -0.3823 -0.0197 -0.9238
vn 0.3770 0.8479 0.3726
vn 0.3486 0.1614 0.9232
vn 0.3770 0.8480 -0.3726
vn 0.3486 0.1614 -0.9232
vn 0.3486 -0.1614 -0.9232
vn 0.0409 -0.2752 0.9605
vn -0.3734 0.6088 0.7000
vn -0.3669 -0.6872 0.6271
vn 0.8609 -0.3630 -0.3566
vn 0.3530 -0.3692 -0.8597
vn 0.3530 -0.3692 0.8597
vn 0.8609 -0.3630 0.3566
vn -0.8620 -0.3599 0.3570
vn -0.3604 -0.3537 0.8631
vn -0.3604 -0.3537 -0.8631
vn -0.8620 -0.3599 -0.3570
vn -0.2483 -0.9632 -0.1029
vn -0.2483 -0.9632 0.1029
vn 0.2395 -0.9658 -0.0991
vn 0.0916 -0.9669 -0.2383
vn -0.1107 -0.9620 -0.2496
vn -0.1106 -0.9620 0.2496
vn 0.0916 -0.9669 0.2382
vn 0.2395 -0.9658 0.0991
vn -0.0085 -1.0000 -0.0000
vn -0.8936 -0.2541 0.3699
vn -0.3730 -0.1190 0.9202
vn -0.3006 -0.2606 0.9175
vn -0.7722 -0.5304 0.3500
vn 0.3795 0.1463 0.9136
vn 0.3475 0.2475 0.9044
vn 0.8597 0.3597 0.3627
vn 0.6783 0.6483 0.3460
vn 0.8597 0.3597 -0.3627
vn 0.6783 0.6483 -0.3460
vn 0.3795 0.1463 -0.9136
vn 0.3475 0.2475 -0.9044
vn -0.3730 -0.1190 -0.9202
vn -0.3006 -0.2606 -0.9175
vn -0.8936 -0.2541 -0.3699
vn -0.7722 -0.5304 -0.3500
vn -0.4607 -0.8326 -0.3075
vn -0.4607 -0.8326 0.3075
vn -0.1540 -0.3580 0.9209
vn 0.2422 0.4158 0.8766
vn 0.3599 0.8953 0.2623
vn 0.3599 0.8953 -0.2623
vn 0.2422 0.4158 -0.8766
vn -0.1540 -0.3580 -0.9209
vn -0.0008 -0.2544 -0.9671
vn -0.0198 -0.9478 -0.3182
vn 0.0207 0.5987 -0.8007
vn 0.0163 0.9872 -0.1587
vn 0.0163 0.9872 0.1587
vn 0.0206 0.5987 0.8007
vn -0.0008 -0.2544 0.9671
vn -0.0198 -0.9478 0.3182
vn 0.1362 -0.3591 0.9233
vn -0.2053 0.4512 0.8685
vn -0.2867 0.3175 0.9039
vn 0.2697 -0.2824 0.9206
vn -0.3037 0.9212 0.2430
vn -0.5817 0.7444 0.3278
vn -0.3037 0.9212 -0.2430
vn -0.5817 0.7444 -0.3278
vn -0.2053 0.4512 -0.8685
vn -0.2867 0.3175 -0.9039
vn 0.1362 -0.3591 -0.9233
vn 0.2698 -0.2824 -0.9206
vn 0.3952 -0.8690 -0.2978
vn 0.8047 -0.4995 -0.3209
vn 0.3952 -0.8690 0.2978
vn 0.8047 -0.4995 0.3209
vn 0.8754 0.3198 0.3626
vn 0.9215 -0.0718 0.3818
vn 0.3811 -0.0148 0.9244
vn 0.3626 0.3197 0.8754
vn 0.8754 0.3198 -0.3626
vn 0.9215 -0.0718 -0.3818
vn 0.3626 0.3197 -0.8754
vn 0.3811 -0.0148 -0.9244
vn -0.3626 0.3197 -0.8754
vn -0.3850 0.0662 -0.9205
vn -0.8754 0.3197 -0.3626
vn -0.9177 0.1220 -0.3781
vn -0.8754 0.3197 0.3626
vn -0.9177 0.1220 0.3781
vn -0.3626 0.3197 0.8754
vn -0.3850 0.0662 0.9205
vn 0.9386 -0.1255 0.3212
vn 0.9136 0.2031 0.3523
vn 0.9136 0.2031 -0.3523
vn 0.9386 -0.1255 -0.3212
vn 0.4379 -0.1076 0.8925
vn 0.3944 0.0623 0.9168
vn 0.3944 0.0623 -0.9168
vn 0.4379 -0.1076 -0.8925
vn -0.7797 0.5080 -0.3661
vn -0.7797 0.5080 0.3661
vn -0.3711 0.1656 0.9137
vn -0.3711 0.1656 -0.9137
vn 0.3987 -0.2254 0.8890
vn 0.8794 -0.3208 0.3517
vn 0.8794 -0.3208 -0.3517
vn 0.3987 -0.2254 -0.8890
vn 0.0200 -0.0505 0.9985
vn 0.0200 -0.0505 -0.9985
vn -0.9728 0.0536 0.2253
vn -0.1315 -0.6510 0.7476
vn -0.1315 -0.6510 -0.7476
vn -0.9728 0.0536 -0.2253
vn -0.5099 -0.0131 -0.8601
vn -0.5099 -0.0131 0.8601
vn -0.4350 -0.1101 0.8937
vn -0.9246 -0.1971 0.3261
vn -0.4350 -0.1101 -0.8937
vn -0.9246 -0.1971 -0.3261
vn -0.2565 -0.9392 -0.2282
vn -0.2434 -0.9326 -0.2666
vn -0.2434 -0.9326 0.2666
vn -0.2565 -0.9392 0.2282
vn -0.0727 -0.4225 0.9034
vn -0.2129 -0.4810 0.8505
vn -0.2129 -0.4810 -0.8505
vn -0.0727 -0.4225 -0.9034
vn -0.0215 0.2417 0.9701
vn 0.1084 -0.0179 0.9939
vn -0.0215 0.2418 -0.9701
vn 0.1084 -0.0179 -0.9939
vn 0.4585 -0.8763 0.1480
vn 0.7451 0.2120 0.6323
vn 0.7451 0.2121 -0.6323
vn 0.4584 -0.8763 -0.1479
vn 0.1974 0.9645 -0.1755
vn 0.1974 0.9645 0.1755
vn 0.1747 0.4848 0.8570
vn 0.1747 0.4848 -0.8570
vn 0.4191 -0.5509 -0.7217
vn -0.1821 0.4679 -0.8648
vn 0.4191 -0.5509 0.7217
vn -0.1821 0.4679 0.8648
vn 0.0642 0.9329 -0.3543
vn -0.4601 0.8564 -0.2342
vn -0.4601 0.8564 0.2342
vn 0.0642 0.9329 0.3543
vn 0.7068 0.6180 0.3443
vn 0.2311 0.3124 0.9214
vn -0.3673 -0.2386 0.8990
vn -0.6255 -0.7032 0.3379
vn -0.6255 -0.7032 -0.3379
vn -0.3673 -0.2386 -0.8990
vn 0.2311 0.3124 -0.9214
vn 0.7068 0.6180 -0.3443
vn -0.8699 0.4182 0.2614
vn -0.8699 0.4182 -0.2614
vn -0.4115 0.2743 -0.8692
vn 0.5456 -0.2386 -0.8034
vn 0.8620 -0.4665 -0.1984
vn 0.8620 -0.4665 0.1984
vn 0.5456 -0.2386 0.8033
vn -0.4115 0.2743 0.8692
vn -0.1694 -0.5274 0.8326
vn -0.4803 -0.8424 0.2445
vn 0.9503 0.1683 -0.2620
vn 0.9503 0.1683 0.2621
vn -0.1694 -0.5274 -0.8326
vn 0.5928 -0.0931 -0.7999
vn 0.5929 -0.0931 0.7999
vn -0.4802 -0.8424 -0.2445
vn -0.3215 -0.9265 -0.1955
vn -0.1971 -0.6156 -0.7630
vn 0.4316 0.1581 -0.8881
vn 0.8016 0.5056 -0.3190
vn 0.8016 0.5056 0.3190
vn 0.4317 0.1581 0.8881
vn -0.1971 -0.6156 0.7630
vn -0.3215 -0.9265 0.1955
vn 0.2930 0.5052 0.8118
vn -0.4235 0.0041 0.9059
vn -0.8718 -0.3001 0.3872
vn -0.8718 -0.3001 -0.3872
vn -0.4235 0.0041 -0.9059
vn 0.2930 0.5052 -0.8118
vn 0.4610 0.8611 -0.2145
vn 0.4610 0.8611 0.2145
vn -0.4215 0.7754 0.4702
vn -0.6497 0.7407 0.1712
vn -0.0108 0.9956 -0.0935
vn -0.0108 0.9956 0.0935
vn -0.4216 0.7754 -0.4702
vn -0.1095 0.9430 -0.3142
vn -0.1095 0.9430 0.3142
vn -0.6497 0.7407 -0.1712
vn -0.3794 0.9252 -0.0000
vn -0.1854 -0.3504 -0.9181
vn -0.5550 -0.7694 -0.3161
vn -0.5550 -0.7694 0.3161
vn -0.1855 -0.3504 0.9181
vn 0.3170 0.3395 0.8856
vn 0.5008 0.8115 0.3013
vn 0.3170 0.3395 -0.8856
vn 0.5008 0.8115 -0.3013
vn -0.3417 -0.1283 -0.9310
vn -0.8558 -0.3458 -0.3846
vn 0.3761 0.1482 -0.9146
vn 0.3761 0.1482 0.9146
vn -0.8558 -0.3458 0.3846
vn -0.3734 0.6088 -0.7000
vn -0.3417 -0.1283 0.9310
vn -0.3669 -0.6872 -0.6271
vn 0.3755 -0.1159 -0.9195
vn -0.3157 0.1876 -0.9301
vn -0.8566 0.3375 0.3904
vn -0.3157 0.1877 0.9301
vn -0.8566 0.3375 -0.3904
vn 0.3755 -0.1159 0.9195
vn -0.0430 0.2685 0.9623
vn 0.2466 -0.4765 0.8439
vn 0.1969 -0.9612 -0.1930
vn 0.2466 -0.4765 -0.8439
vn -0.2784 0.9048 -0.3222
vn -0.2784 0.9048 0.3222
vn -0.0430 0.2685 -0.9623
vn 0.1969 -0.9612 0.1930
vn 0.2934 0.9003 0.3215
vn 0.0447 0.2642 0.9634
vn 0.0447 0.2642 -0.9634
vn 0.2934 0.9003 -0.3215
vn -0.2739 -0.4671 0.8407
vn -0.2036 -0.9597 0.1939
vn -0.2036 -0.9597 -0.1939
vn -0.2739 -0.4671 -0.8407
vn -0.9145 -0.0803 -0.3965
vn -0.3765 0.0324 -0.9258
vn 0.3421 0.1404 -0.9291
vn 0.8852 0.2400 0.3986
vn 0.3421 0.1404 0.9291
vn 0.8852 0.2400 -0.3986
vn -0.3765 0.0324 0.9258
vn -0.9145 -0.0803 0.3965
vn 0.5854 0.5775 0.5690
vn 0.2019 0.8512 0.4844
vn 0.9290 0.1858 -0.3202
vn 0.9290 0.1858 0.3202
vn -0.0281 0.9914 0.1281
vn -0.0281 0.9914 -0.1282
vn 0.2020 0.8512 -0.4844
vn 0.5854 0.5775 -0.5690
vn 0.6844 0.7291 -0.0000
vn -0.3642 0.3072 -0.8792
vn -0.8792 0.3072 -0.3642
vn -0.8792 0.3072 0.3642
vn -0.3642 0.3072 0.8792
vn 0.3642 0.3072 0.8792
vn 0.8792 0.3071 0.3642
vn 0.3642 0.3072 -0.8792
vn 0.8792 0.3071 -0.3642
vn -0.3169 0.5607 -0.7650
vn -0.7650 0.5607 -0.3169
vn -0.7650 0.5607 0.3169
vn -0.3169 0.5607 0.7650
vn 0.3169 0.5607 0.7650
vn 0.7649 0.5608 0.3168
vn 0.3169 0.5607 -0.7650
vn 0.7649 0.5608 -0.3168
vn 0.2745 -0.6969 0.6626
vn 0.2495 0.7583 0.6023
vn -0.1193 0.9763 0.1805
vn -0.1521 0.0494 0.9871
vn 0.6626 -0.6969 -0.2745
vn 0.5905 0.0494 -0.8055
vn 0.0433 0.9763 -0.2120
vn 0.6027 0.7579 -0.2496
vn 0.9171 -0.1206 -0.3799
vn 0.6902 -0.2176 -0.6902
vn 0.9871 0.0494 0.1521
vn 0.9760 -0.2176 -0.0000
vn 0.2120 0.9763 -0.0433
vn 0.2495 0.7583 -0.6023
vn 0.1244 0.9457 -0.3004
vn -0.0000 -0.2176 0.9760
vn 0.3799 -0.1206 0.9171
vn 0.1805 0.9763 0.1193
vn 0.1244 0.9457 0.3004
vn 0.3004 0.9457 -0.1244
vn -0.6626 -0.6969 0.2745
vn -0.9871 0.0494 -0.1521
vn -0.9760 -0.2176 -0.0000
vn -0.9171 -0.1206 -0.3799
vn -0.6626 -0.6969 -0.2745
vn -0.6902 -0.2176 -0.6902
vn 0.6902 -0.2176 0.6902
vn 0.8055 0.0494 0.5905
vn -0.6902 -0.2176 0.6902
vn -0.5905 0.0494 0.8055
vn -0.6023 0.7583 0.2494
vn -0.1805 0.9763 -0.1193
vn -0.3004 0.9457 0.1244
vn -0.2745 -0.6969 -0.6626
vn 0.1521 0.0494 -0.9871
vn -0.0000 -0.2176 -0.9760
vn -0.0433 0.9763 0.2120
vn -0.8055 0.0494 -0.5905
vn -0.1193 0.9763 -0.1805
vn -0.2495 0.7583 -0.6023
vn 0.1193 0.9763 -0.1805
vn -0.3799 -0.1206 -0.9171
vn 0.3799 -0.1206 -0.9171
vn 0.2745 -0.6969 -0.6626
vn -0.1521 0.0494 -0.9871
vn -0.9171 -0.1206 0.3799
vn 0.8055 0.0494 -0.5905
vn -0.2745 -0.6969 0.6626
vn 0.1521 0.0494 0.9871
vn 0.1193 0.9763 0.1805
vn -0.2495 0.7583 0.6022
vn -0.2120 0.9763 -0.0433
vn -0.1244 0.9457 -0.3004
vn 0.2120 0.9763 0.0433
vn -0.2120 0.9763 0.0433
vn -0.8055 0.0494 0.5905
vn -0.9871 0.0494 0.1521
vn -0.5905 0.0494 -0.8055
vn -0.1244 0.9457 0.3004
vn -0.3799 -0.1206 0.9171
vn -0.0433 0.9763 -0.2120
vn -0.6023 0.7583 -0.2495
vn -0.3004 0.9457 -0.1244
vn -0.1805 0.9763 0.1193
vn 0.6626 -0.6969 0.2745
vn 0.9871 0.0494 -0.1521
vn 0.1805 0.9763 -0.1193
vn 0.6023 0.7583 0.2495
vn 0.0433 0.9763 0.2120
vn 0.3004 0.9457 0.1244
vn 0.9171 -0.1206 0.3799
vn 0.5905 0.0494 0.8055
vn 0.1233 -0.9467 0.2976
vn 0.2976 -0.9467 0.1233
vn -0.2976 -0.9467 0.1233
vn -0.1233 -0.9467 0.2976
vn -0.2976 -0.9467 -0.1233
vn 0.1233 -0.9467 -0.2976
vn -0.1233 -0.9467 -0.2976
vn 0.2976 -0.9467 -0.1233
vn 0.0765 -0.9798 -0.1848
vn -0.0765 -0.9798 -0.1848
vn 0.1848 -0.9798 0.0765
vn 0.1848 -0.9798 -0.0765
vn -0.0765 -0.9798 0.1848
vn 0.0765 -0.9798 0.1848
vn -0.1848 -0.9798 -0.0765
vn -0.1848 -0.9798 0.0765
vn -0.0721 -0.9821 -0.1740
vn -0.1740 -0.9821 -0.0721
vn 0.1740 -0.9821 -0.0721
vn 0.0721 -0.9821 -0.1740
vn 0.0721 -0.9821 0.1740
vn 0.1740 -0.9821 0.0721
vn -0.1740 -0.9821 0.0721
vn -0.0721 -0.9821 0.1740
vn -0.0000 -1.0000 -0.0000
vt 0.156598 0.201401
vt 0.149696 0.292258
vt 0.126323 0.290871
vt 0.131153 0.199637
vt 0.102900 0.290267
vt 0.105519 0.198368
vt 0.079279 0.290380
vt 0.079644 0.197623
vt 0.055293 0.291260
vt 0.053490 0.197422
vt 0.030623 0.293112
vt 0.027044 0.197773
vt 0.004373 0.296468
vt 0.000347 0.198638
vt 0.057974 0.330984
vt 0.036176 0.332833
vt 0.206588 0.205973
vt 0.197680 0.298598
vt 0.173276 0.294665
vt 0.181918 0.203601
vt 0.102248 0.329420
vt 0.124298 0.329460
vt 0.127471 0.736418
vt 0.104898 0.736917
vt 0.167302 0.331221
vt 0.146052 0.330023
vt 0.080079 0.329901
vt 0.014774 0.335546
vt 0.187610 0.333343
vt 0.150089 0.735001
vt 0.172395 0.732325
vt 0.178903 0.766998
vt 0.152643 0.769922
vt 0.193857 0.728223
vt 0.060604 0.735631
vt 0.039299 0.733674
vt 0.082555 0.736660
vt 0.019087 0.730558
vt 0.635095 0.317899
vt 0.634335 0.290713
vt 0.688246 0.292727
vt 0.689596 0.313813
vt 0.032268 0.764202
vt 0.008694 0.757665
vt 0.079847 0.769749
vt 0.056113 0.767815
vt 0.127711 0.770822
vt 0.103601 0.770679
vt 0.206588 0.759459
vt 0.693180 0.232100
vt 0.697782 0.214901
vt 0.752306 0.217809
vt 0.753341 0.236064
vt 0.636424 0.264269
vt 0.641302 0.238618
vt 0.690118 0.251295
vt 0.688458 0.271705
vt 0.649351 0.213928
vt 0.664057 0.402143
vt 0.647981 0.374130
vt 0.697458 0.353655
vt 0.703875 0.370973
vt 0.639239 0.345787
vt 0.692639 0.334369
vt 0.661516 0.190687
vt 0.754022 0.329223
vt 0.753195 0.311121
vt 0.765297 0.311094
vt 0.765820 0.329054
vt 0.755000 0.346608
vt 0.752824 0.292599
vt 0.753299 0.254927
vt 0.752934 0.273829
vt 0.755339 0.362721
vt 0.365206 0.487514
vt 0.370597 0.468512
vt 0.416658 0.484783
vt 0.415019 0.498295
vt 0.765445 0.274322
vt 0.765144 0.292857
vt 0.764633 0.215284
vt 0.766310 0.235774
vt 0.766310 0.346729
vt 0.766029 0.255383
vt 0.765731 0.364085
vt 0.420502 0.568936
vt 0.417570 0.555434
vt 0.486030 0.551097
vt 0.486109 0.563870
vt 0.381746 0.608857
vt 0.371345 0.588238
vt 0.424268 0.581552
vt 0.365140 0.567515
vt 0.361869 0.546964
vt 0.415558 0.541289
vt 0.360937 0.526767
vt 0.362059 0.506952
vt 0.414293 0.512415
vt 0.414471 0.526845
vt 0.378708 0.450171
vt 0.419268 0.472203
vt 0.483260 0.484969
vt 0.481932 0.472111
vt 0.518077 0.463019
vt 0.519057 0.480521
vt 0.485242 0.524740
vt 0.485687 0.538012
vt 0.484132 0.498087
vt 0.484742 0.511393
vt 0.485631 0.576043
vt 0.518009 0.583605
vt 0.519118 0.567677
vt 0.543227 0.567015
vt 0.545110 0.583230
vt 0.519518 0.552879
vt 0.519569 0.524632
vt 0.519598 0.538656
vt 0.519384 0.495971
vt 0.519506 0.510511
vt 0.541656 0.510504
vt 0.542484 0.496264
vt 0.593989 0.503907
vt 0.592908 0.514206
vt 0.541491 0.538136
vt 0.542099 0.552210
vt 0.541343 0.524349
vt 0.546453 0.465016
vt 0.543970 0.481231
vt 0.999623 0.139518
vt 0.999653 0.154944
vt 0.094479 0.162043
vt 0.091472 0.146678
vt 0.595949 0.493626
vt 0.596100 0.555483
vt 0.598914 0.565752
vt 0.593023 0.534837
vt 0.594172 0.545164
vt 0.592602 0.524516
vt 0.598914 0.483550
vt 0.087483 0.098407
vt 0.087928 0.114693
vt 0.000777 0.121200
vt 0.000347 0.096414
vt 0.999625 0.046913
vt 0.999603 0.062340
vt 0.089259 0.065963
vt 0.091454 0.050067
vt 0.999590 0.077773
vt 0.999585 0.093210
vt 0.087930 0.082119
vt 0.999589 0.108649
vt 0.999602 0.124085
vt 0.089264 0.130836
vt 0.999653 0.031115
vt 0.094494 0.034560
vt 0.367154 0.634500
vt 0.373047 0.621651
vt 0.398342 0.636914
vt 0.396402 0.645777
vt 0.018845 0.196728
vt 0.009396 0.171434
vt 0.006229 0.047651
vt 0.012721 0.023721
vt 0.002164 0.071902
vt 0.003655 0.146254
vt 0.021979 0.000347
vt 0.395228 0.673910
vt 0.394854 0.664413
vt 0.630822 0.664569
vt 0.630835 0.672907
vt 0.378031 0.722715
vt 0.367401 0.706401
vt 0.398509 0.692376
vt 0.401424 0.700793
vt 0.362548 0.690257
vt 0.360937 0.675183
vt 0.396425 0.683309
vt 0.361378 0.661096
vt 0.363428 0.647635
vt 0.395250 0.654988
vt 0.381977 0.609646
vt 0.401166 0.628542
vt 0.659953 0.608541
vt 0.653847 0.602434
vt 0.658860 0.600358
vt 0.662030 0.603527
vt 0.630881 0.647900
vt 0.630838 0.656231
vt 0.630950 0.639578
vt 0.630944 0.689567
vt 0.631037 0.697879
vt 0.630876 0.681242
vt 0.631037 0.630810
vt 0.984457 0.934626
vt 0.984456 0.939388
vt 0.872718 0.939409
vt 0.872718 0.934578
vt 0.653847 0.593799
vt 0.659953 0.587692
vt 0.662030 0.592706
vt 0.658860 0.595875
vt 0.668589 0.587692
vt 0.674695 0.593799
vt 0.669682 0.595875
vt 0.666512 0.592706
vt 0.674695 0.602434
vt 0.668589 0.608541
vt 0.666512 0.603527
vt 0.669682 0.600358
vt 0.984456 0.944209
vt 0.984457 0.949031
vt 0.872721 0.949068
vt 0.872720 0.944238
vt 0.984462 0.958673
vt 0.984466 0.963435
vt 0.872922 0.963573
vt 0.872725 0.958729
vt 0.984461 0.929863
vt 0.872914 0.929735
vt 0.984459 0.953852
vt 0.872723 0.953898
vt 0.984466 0.925044
vt 0.872919 0.924915
vt 0.346344 0.624009
vt 0.348134 0.612793
vt 0.351098 0.624018
vt 0.860260 0.931213
vt 0.860269 0.962100
vt 0.830329 0.963510
vt 0.830523 0.958687
vt 0.842917 0.962053
vt 0.830319 0.929817
vt 0.842907 0.931268
vt 0.830515 0.934640
vt 0.830821 0.944254
vt 0.830817 0.939431
vt 0.830824 0.949076
vt 0.830827 0.953897
vt 0.341707 0.623852
vt 0.336997 0.623925
vt 0.339531 0.612842
vt 0.554935 0.929865
vt 0.554740 0.934634
vt 0.542445 0.931310
vt 0.554944 0.963304
vt 0.542482 0.961855
vt 0.554751 0.958540
vt 0.512800 0.963300
vt 0.512989 0.958448
vt 0.525366 0.961802
vt 0.512824 0.929930
vt 0.525269 0.931362
vt 0.513013 0.934695
vt 0.554745 0.939395
vt 0.554752 0.944190
vt 0.513304 0.944187
vt 0.513311 0.939425
vt 0.554756 0.948984
vt 0.513297 0.948951
vt 0.554756 0.953778
vt 0.513291 0.953714
vt 0.554927 0.925058
vt 0.830312 0.925010
vt 0.231589 0.944053
vt 0.231646 0.939014
vt 0.232179 0.954077
vt 0.231763 0.949093
vt 0.232541 0.958935
vt 0.231833 0.934068
vt 0.232419 0.929196
vt 0.233339 0.924606
vt 0.512824 0.925189
vt 0.233397 0.963674
vt 0.216971 0.937776
vt 0.217219 0.931545
vt 0.216827 0.950053
vt 0.216696 0.943863
vt 0.220583 0.969181
vt 0.218404 0.962923
vt 0.218496 0.925321
vt 0.217467 0.956391
vt 0.220726 0.918914
vt 0.721942 0.646010
vt 0.733785 0.639917
vt 0.734720 0.642939
vt 0.725154 0.650914
vt 0.719844 0.640546
vt 0.718490 0.635367
vt 0.732615 0.633641
vt 0.733062 0.636870
vt 0.718229 0.630015
vt 0.718677 0.624830
vt 0.732487 0.627153
vt 0.732414 0.630403
vt 0.722028 0.614853
vt 0.725589 0.609646
vt 0.734612 0.618020
vt 0.733649 0.620831
vt 0.719808 0.619740
vt 0.732836 0.623941
vt 0.625621 0.545670
vt 0.625976 0.546141
vt 0.625250 0.546390
vt 0.625488 0.547190
vt 0.624852 0.547102
vt 0.624575 0.546045
vt 0.624980 0.545586
vt 0.624480 0.546610
vt 0.816181 0.624666
vt 0.816168 0.627575
vt 0.816380 0.639198
vt 0.816406 0.642227
vt 0.626026 0.546775
vt 0.816362 0.636296
vt 0.816382 0.621769
vt 0.816164 0.630485
vt 0.816168 0.633395
vt 0.816406 0.618870
vt 0.627817 0.540007
vt 0.631664 0.543755
vt 0.622607 0.540130
vt 0.618775 0.543806
vt 0.622766 0.553009
vt 0.618765 0.549352
vt 0.628082 0.552814
vt 0.631664 0.549071
vt 0.345871 0.586594
vt 0.350971 0.586563
vt 0.348162 0.598554
vt 0.340904 0.586944
vt 0.339014 0.598707
vt 0.335866 0.587181
vt 0.332678 0.624151
vt 0.328355 0.624344
vt 0.326855 0.587825
vt 0.331368 0.587602
vt 0.324037 0.624447
vt 0.323792 0.587919
vt 0.359883 0.624398
vt 0.355470 0.624226
vt 0.355542 0.586714
vt 0.360148 0.586619
vt 0.332075 0.303389
vt 0.326972 0.303455
vt 0.329572 0.291644
vt 0.337087 0.303439
vt 0.338620 0.291255
vt 0.342216 0.303134
vt 0.335502 0.264684
vt 0.340484 0.264517
vt 0.338116 0.276490
vt 0.330635 0.265098
vt 0.328936 0.276912
vt 0.325685 0.265364
vt 0.322385 0.303617
vt 0.317765 0.303760
vt 0.316709 0.265957
vt 0.321211 0.265778
vt 0.313897 0.303850
vt 0.312214 0.266164
vt 0.351511 0.302815
vt 0.346844 0.302997
vt 0.345017 0.264512
vt 0.349568 0.264253
vt 0.817254 0.618296
vt 0.817196 0.606391
vt 0.839126 0.606391
vt 0.839184 0.618296
vt 0.817336 0.634526
vt 0.839266 0.634526
vt 0.817394 0.646432
vt 0.839324 0.646432
vt 0.817196 0.601908
vt 0.817254 0.590003
vt 0.839184 0.590003
vt 0.839126 0.601908
vt 0.817336 0.573773
vt 0.839266 0.573773
vt 0.817394 0.561868
vt 0.839324 0.561868
vt 0.817394 0.650914
vt 0.839324 0.650914
vt 0.621774 0.522830
vt 0.621832 0.534735
vt 0.599902 0.534735
vt 0.599844 0.522829
vt 0.621832 0.450171
vt 0.621774 0.462077
vt 0.599844 0.462077
vt 0.599902 0.450171
vt 0.621832 0.539217
vt 0.599902 0.539218
vt 0.621692 0.506600
vt 0.599762 0.506600
vt 0.621634 0.494694
vt 0.599704 0.494694
vt 0.621692 0.478306
vt 0.599762 0.478306
vt 0.621634 0.490212
vt 0.599704 0.490211
vt 0.319605 0.439698
vt 0.317593 0.365658
vt 0.331493 0.191171
vt 0.336117 0.190917
vt 0.322246 0.191682
vt 0.326870 0.191428
vt 0.312971 0.192472
vt 0.317641 0.192222
vt 0.340756 0.190948
vt 0.345431 0.190687
vt 0.308303 0.192720
vt 0.637833 0.588027
vt 0.646495 0.587692
vt 0.642785 0.597737
vt 0.642129 0.597633
vt 0.653057 0.602790
vt 0.646627 0.608655
vt 0.642629 0.599298
vt 0.643051 0.598829
vt 0.653057 0.593671
vt 0.643157 0.598252
vt 0.632014 0.594108
vt 0.641559 0.598056
vt 0.638131 0.608857
vt 0.631826 0.602772
vt 0.641608 0.598714
vt 0.641968 0.599202
vt 0.642361 0.598464
vt 0.330265 0.700175
vt 0.334097 0.702851
vt 0.334754 0.766959
vt 0.331411 0.762105
vt 0.337859 0.706666
vt 0.338396 0.773938
vt 0.341670 0.709374
vt 0.341708 0.778720
vt 0.345536 0.709395
vt 0.344593 0.778742
vt 0.349381 0.706730
vt 0.347944 0.774031
vt 0.353194 0.702950
vt 0.351677 0.767088
vt 0.357092 0.700305
vt 0.355169 0.762193
vt 0.326432 0.700283
vt 0.328544 0.762199
vt 0.331479 0.822953
vt 0.333355 0.822877
vt 0.336125 0.826394
vt 0.339567 0.831587
vt 0.342212 0.834604
vt 0.343841 0.834596
vt 0.346421 0.831685
vt 0.349753 0.826797
vt 0.352692 0.823230
vt 0.348656 0.850366
vt 0.351702 0.849915
vt 0.345497 0.850833
vt 0.343638 0.851062
vt 0.342821 0.851080
vt 0.340949 0.850926
vt 0.337739 0.850583
vt 0.334613 0.850240
vt 0.333071 0.850231
vt 0.336721 0.869027
vt 0.340316 0.864573
vt 0.339947 0.908643
vt 0.335453 0.914384
vt 0.342824 0.862071
vt 0.343774 0.904354
vt 0.344242 0.862023
vt 0.346683 0.904241
vt 0.346878 0.864261
vt 0.350891 0.908295
vt 0.350691 0.868215
vt 0.356024 0.913905
vt 0.354151 0.871306
vt 0.360148 0.917650
vt 0.331582 0.872198
vt 0.333722 0.872301
vt 0.331987 0.918125
vt 0.329443 0.918012
vt 0.651424 0.765476
vt 0.525012 0.766521
vt 0.525112 0.761883
vt 0.651889 0.760671
vt 0.650784 0.770172
vt 0.524977 0.771205
vt 0.650978 0.736007
vt 0.524691 0.738530
vt 0.524424 0.733854
vt 0.650254 0.731277
vt 0.651508 0.740854
vt 0.524971 0.743163
vt 0.651858 0.745787
vt 0.525181 0.747841
vt 0.652039 0.750760
vt 0.525265 0.752559
vt 0.652053 0.755733
vt 0.525225 0.757243
vt 0.546481 0.784737
vt 0.494147 0.785189
vt 0.494140 0.782880
vt 0.546379 0.781821
vt 0.547517 0.787112
vt 0.494258 0.787483
vt 0.546258 0.803069
vt 0.493985 0.801552
vt 0.494140 0.799208
vt 0.547349 0.800721
vt 0.360937 0.751956
vt 0.422879 0.750611
vt 0.422948 0.754044
vt 0.361004 0.755326
vt 0.426731 0.757639
vt 0.366605 0.759162
vt 0.366390 0.747881
vt 0.426500 0.746864
vt 0.432201 0.761355
vt 0.436160 0.765039
vt 0.436096 0.768567
vt 0.431765 0.742945
vt 0.435494 0.739128
vt 0.614089 0.784656
vt 0.622974 0.787343
vt 0.591421 0.790183
vt 0.622974 0.802687
vt 0.613963 0.805132
vt 0.591332 0.798918
vt 0.549440 0.792627
vt 0.581703 0.792964
vt 0.581662 0.795851
vt 0.549407 0.795260
vt 0.405173 0.767692
vt 0.405214 0.765054
vt 0.396436 0.762475
vt 0.396295 0.743312
vt 0.404963 0.740387
vt 0.548946 0.797718
vt 0.549040 0.790156
vt 0.494394 0.789802
vt 0.494474 0.792154
vt 0.494324 0.796892
vt 0.494451 0.794541
vt 0.607488 0.807947
vt 0.607709 0.781660
vt 0.607517 0.778168
vt 0.225467 0.651750
vt 0.232030 0.635021
vt 0.233867 0.635757
vt 0.227025 0.652382
vt 0.236346 0.640335
vt 0.229652 0.655469
vt 0.221597 0.652055
vt 0.226977 0.636796
vt 0.780921 0.596953
vt 0.777033 0.605011
vt 0.771246 0.597919
vt 0.216696 0.652712
vt 0.218865 0.647797
vt 0.768412 0.582162
vt 0.768547 0.595408
vt 0.765971 0.595381
vt 0.766299 0.582165
vt 0.242997 0.650162
vt 0.238739 0.655964
vt 0.237169 0.654662
vt 0.241480 0.649392
vt 0.234553 0.654399
vt 0.239275 0.645841
vt 0.220909 0.639023
vt 0.216971 0.646302
vt 0.217005 0.640358
vt 0.763975 0.580429
vt 0.763219 0.597892
vt 0.753353 0.596843
vt 0.760127 0.574052
vt 0.770737 0.580444
vt 0.774577 0.574042
vt 0.750617 0.591201
vt 0.757769 0.571140
vt 0.776947 0.571041
vt 0.783717 0.591429
vt 0.779565 0.570590
vt 0.785893 0.590727
vt 0.372259 0.784936
vt 0.376713 0.782385
vt 0.416762 0.784321
vt 0.413053 0.786727
vt 0.407939 0.789238
vt 0.365692 0.788263
vt 0.404614 0.791563
vt 0.360954 0.791161
vt 0.404592 0.793556
vt 0.360937 0.793274
vt 0.407849 0.795926
vt 0.365690 0.796256
vt 0.372314 0.799691
vt 0.412844 0.798503
vt 0.376778 0.802303
vt 0.416406 0.800951
vt 0.376797 0.780431
vt 0.416817 0.782192
vt 0.775428 0.519799
vt 0.778056 0.519750
vt 0.758396 0.519855
vt 0.760689 0.520964
vt 0.763534 0.522792
vt 0.765823 0.523315
vt 0.768256 0.523293
vt 0.770537 0.522734
vt 0.773343 0.520866
vt 0.772406 0.441755
vt 0.774840 0.443273
vt 0.765057 0.436685
vt 0.767281 0.436683
vt 0.760118 0.442003
vt 0.762881 0.437864
vt 0.769459 0.437787
vt 0.777685 0.444208
vt 0.757866 0.443708
vt 0.747188 0.434011
vt 0.752254 0.430791
vt 0.761441 0.422555
vt 0.764953 0.420353
vt 0.767472 0.420481
vt 0.770646 0.422861
vt 0.778265 0.430246
vt 0.782197 0.432474
vt 0.785746 0.433715
vt 0.770210 0.411835
vt 0.777614 0.416564
vt 0.782039 0.417895
vt 0.785893 0.416829
vt 0.749007 0.415142
vt 0.754444 0.414470
vt 0.763664 0.411109
vt 0.766338 0.410496
vt 0.767871 0.410660
vt 0.771682 0.407129
vt 0.773616 0.406109
vt 0.767146 0.407358
vt 0.768061 0.407481
vt 0.763453 0.405576
vt 0.766071 0.407071
vt 0.769110 0.407557
vt 0.775351 0.403002
vt 0.761630 0.403544
vt 0.768420 0.402932
vt 0.253807 0.571212
vt 0.257996 0.569164
vt 0.260151 0.570008
vt 0.261847 0.574413
vt 0.263524 0.580712
vt 0.265018 0.584273
vt 0.248414 0.574590
vt 0.244257 0.576538
vt 0.266827 0.584948
vt 0.305339 0.437657
vt 0.308031 0.438275
vt 0.302635 0.436969
vt 0.316538 0.439405
vt 0.310807 0.438757
vt 0.317595 0.452950
vt 0.299827 0.436260
vt 0.313630 0.439101
vt 0.356146 0.373670
vt 0.358306 0.444641
vt 0.316063 0.351965
vt 0.301452 0.369614
vt 0.304622 0.371156
vt 0.309908 0.371934
vt 0.312315 0.370181
vt 0.307426 0.372270
vt 0.315116 0.367627
vt 0.298320 0.368818
vt 0.296923 0.314808
vt 0.299576 0.307748
vt 0.275804 0.313996
vt 0.278567 0.315550
vt 0.290492 0.322111
vt 0.294057 0.320759
vt 0.284783 0.319239
vt 0.300863 0.305250
vt 0.301309 0.305086
vt 0.284531 0.294553
vt 0.291042 0.297925
vt 0.278242 0.303114
vt 0.280951 0.296028
vt 0.296637 0.301361
vt 0.299375 0.302478
vt 0.299914 0.302207
vt 0.275197 0.312200
vt 0.276282 0.309583
vt 0.259081 0.254618
vt 0.261343 0.253952
vt 0.263467 0.253237
vt 0.267537 0.251890
vt 0.269521 0.251118
vt 0.265514 0.252603
vt 0.271603 0.250353
vt 0.273730 0.249462
vt 0.276169 0.248076
vt 0.262655 0.237457
vt 0.262398 0.235000
vt 0.261701 0.239455
vt 0.262507 0.239198
vt 0.261836 0.232400
vt 0.257329 0.223077
vt 0.259083 0.235172
vt 0.260505 0.238083
vt 0.261160 0.236410
vt 0.671586 0.738205
vt 0.671962 0.744503
vt 0.672083 0.750706
vt 0.671965 0.756887
vt 0.671602 0.763118
vt 0.671021 0.769537
vt 0.670909 0.731724
vt 0.670009 0.776315
vt 0.669827 0.724888
vt 0.732246 0.736935
vt 0.732336 0.743691
vt 0.732383 0.750441
vt 0.732383 0.757191
vt 0.732336 0.763949
vt 0.732245 0.770721
vt 0.732117 0.730165
vt 0.731973 0.723504
vt 0.732131 0.777379
vt 0.841799 0.472845
vt 0.818089 0.472845
vt 0.816682 0.468448
vt 0.843053 0.466627
vt 0.768354 0.307470
vt 0.767099 0.301253
vt 0.793471 0.303074
vt 0.792064 0.307470
vt 0.395194 0.190687
vt 0.608204 0.274151
vt 0.578169 0.265956
vt 0.419895 0.203625
vt 0.367482 0.449381
vt 0.366468 0.441021
vt 0.394879 0.441747
vt 0.793471 0.218124
vt 0.792064 0.213728
vt 0.815929 0.213728
vt 0.361243 0.384648
vt 0.361257 0.376088
vt 0.389548 0.380299
vt 0.584031 0.374430
vt 0.556464 0.372669
vt 0.392522 0.198544
vt 0.793470 0.311867
vt 0.767099 0.313687
vt 0.794224 0.472845
vt 0.815929 0.307470
vt 0.363352 0.318208
vt 0.364557 0.309638
vt 0.392292 0.318030
vt 0.584671 0.323745
vt 0.368146 0.285038
vt 0.396868 0.287078
vt 0.560243 0.316473
vt 0.389259 0.386383
vt 0.361908 0.392967
vt 0.391265 0.324040
vt 0.362820 0.326720
vt 0.787937 0.519716
vt 0.811647 0.519716
vt 0.813053 0.524112
vt 0.786682 0.525933
vt 0.835512 0.519716
vt 0.558791 0.322046
vt 0.395650 0.293038
vt 0.375242 0.252413
vt 0.377618 0.244307
vt 0.403360 0.256531
vt 0.360937 0.833472
vt 0.554075 0.838389
vt 0.554075 0.852502
vt 0.360937 0.857419
vt 0.813053 0.515320
vt 0.786682 0.513499
vt 0.402072 0.262470
vt 0.373486 0.260829
vt 0.824965 0.712982
vt 0.631826 0.717900
vt 0.631826 0.693953
vt 0.824965 0.698869
vt 0.793471 0.209331
vt 0.824965 0.669217
vt 0.824965 0.693164
vt 0.631826 0.688247
vt 0.631827 0.674133
vt 0.734427 0.746546
vt 0.758137 0.746545
vt 0.759544 0.750942
vt 0.733173 0.752763
vt 0.589668 0.307701
vt 0.565364 0.298410
vt 0.594023 0.412073
vt 0.563780 0.413731
vt 0.597507 0.291367
vt 0.384375 0.220872
vt 0.411756 0.226747
vt 0.572867 0.279998
vt 0.768354 0.213728
vt 0.767100 0.207511
vt 0.582117 0.340060
vt 0.556433 0.340380
vt 0.767099 0.219945
vt 0.569414 0.285350
vt 0.410188 0.232605
vt 0.382104 0.229052
vt 0.768354 0.354342
vt 0.767099 0.348125
vt 0.793470 0.349945
vt 0.792064 0.354342
vt 0.759544 0.742149
vt 0.782002 0.746545
vt 0.843053 0.479062
vt 0.816682 0.477241
vt 0.387243 0.213106
vt 0.563113 0.303902
vt 0.793471 0.358738
vt 0.767099 0.360559
vt 0.733172 0.740329
vt 0.557006 0.334672
vt 0.557767 0.378623
vt 0.366989 0.293548
vt 0.369958 0.276637
vt 0.815929 0.354342
vt 0.581890 0.356901
vt 0.360937 0.351534
vt 0.389798 0.349175
vt 0.555717 0.353341
vt 0.556092 0.359182
vt 0.389173 0.355254
vt 0.361018 0.360040
vt 0.361530 0.342895
vt 0.793471 0.264995
vt 0.792064 0.260599
vt 0.815929 0.260599
vt 0.793471 0.256203
vt 0.841799 0.425974
vt 0.843053 0.432191
vt 0.816682 0.430370
vt 0.818089 0.425974
vt 0.816682 0.421577
vt 0.794224 0.425973
vt 0.588502 0.392819
vt 0.363356 0.417264
vt 0.391280 0.411152
vt 0.559241 0.392815
vt 0.561328 0.398892
vt 0.391353 0.417268
vt 0.364559 0.425483
vt 0.362826 0.408776
vt 0.843053 0.419757
vt 0.768354 0.260599
vt 0.767099 0.266816
vt 0.767099 0.254382
vt 0.816902 0.797195
vt 0.623764 0.802115
vt 0.623764 0.778168
vt 0.816902 0.783082
vt 0.000347 0.771516
vt 0.170144 0.775838
vt 0.170144 0.788246
vt 0.000347 0.792568
vt 0.554075 0.827763
vt 0.360938 0.832683
vt 0.360937 0.808736
vt 0.554075 0.813650
vt 0.623764 0.832555
vt 0.816902 0.827640
vt 0.816902 0.851587
vt 0.623764 0.846668
vt 0.816902 0.821934
vt 0.623764 0.826851
vt 0.623764 0.802904
vt 0.816902 0.807820
vt 0.823470 0.237558
vt 0.843053 0.542757
vt 0.843053 0.496675
vt 0.823470 0.377382
vt 0.661116 0.441999
vt 0.680668 0.450714
vt 0.666126 0.470240
vt 0.652176 0.454002
vt 0.726867 0.495790
vt 0.722545 0.501593
vt 0.823470 0.331301
vt 0.786682 0.449804
vt 0.683255 0.422149
vt 0.699831 0.435696
vt 0.671476 0.431382
vt 0.786682 0.495885
vt 0.786682 0.402932
vt 0.709833 0.408815
vt 0.722267 0.426241
vt 0.696041 0.414627
vt 0.786682 0.449014
vt 0.823470 0.330511
vt 0.738981 0.402932
vt 0.746398 0.423013
vt 0.724146 0.404916
vt 0.823470 0.284429
vt 0.823471 0.236768
vt 0.641295 0.554007
vt 0.658411 0.541150
vt 0.668413 0.563346
vt 0.647444 0.567652
vt 0.823471 0.190687
vt 0.789543 0.769586
vt 0.634699 0.525013
vt 0.654592 0.517105
vt 0.637046 0.539794
vt 0.789543 0.723504
vt 0.823470 0.283640
vt 0.635953 0.495304
vt 0.657225 0.492901
vt 0.634335 0.510183
vt 0.644970 0.466969
vt 0.639499 0.480900
vt 0.719900 0.508327
vt 0.719117 0.515520
vt 0.720252 0.522665
vt 0.723221 0.529263
vt 0.746398 0.487554
vt 0.739227 0.488514
vt 0.732561 0.491327
vt 0.601651 0.369175
vt 0.607580 0.384728
vt 0.598639 0.340473
vt 0.598892 0.354547
vt 0.600787 0.327053
vt 0.614034 0.302662
vt 0.605585 0.314618
vt 0.620678 0.404046
vt 0.629387 0.290367
vt 0.625027 0.314954
vt 0.617747 0.321809
vt 0.624624 0.374984
vt 0.633545 0.383761
vt 0.615915 0.353556
vt 0.619062 0.364576
vt 0.615319 0.331694
vt 0.633545 0.308967
vt 0.614726 0.342447
vt 0.631827 0.646385
vt 0.631827 0.639037
vt 0.717440 0.639037
vt 0.717440 0.646385
vt 0.631827 0.631689
vt 0.717440 0.631689
vt 0.631827 0.624342
vt 0.631827 0.616994
vt 0.717440 0.616994
vt 0.717440 0.624342
vt 0.631826 0.668427
vt 0.631827 0.661080
vt 0.717440 0.661080
vt 0.717440 0.668428
vt 0.631827 0.653732
vt 0.717440 0.653732
vt 0.631827 0.609647
vt 0.717440 0.609646
vt 0.612247 0.588876
vt 0.617442 0.594072
vt 0.611401 0.596574
vt 0.609744 0.594918
vt 0.617442 0.601419
vt 0.612247 0.606615
vt 0.609744 0.600573
vt 0.611401 0.598917
vt 0.604899 0.606615
vt 0.599704 0.601419
vt 0.605745 0.598917
vt 0.607402 0.600573
vt 0.599704 0.594072
vt 0.604899 0.588876
vt 0.607402 0.594918
vt 0.605745 0.596574
vt 0.604118 0.542047
vt 0.606377 0.541427
vt 0.617976 0.588087
vt 0.610972 0.540520
vt 0.613297 0.540235
vt 0.615634 0.540064
vt 0.617976 0.540007
vt 0.601892 0.542777
vt 0.608663 0.540918
vt 0.599704 0.543614
s 1
usemtl Materiais
f 1/1/1 2/2/2 4/3/3 3/4/4
f 3/4/4 4/3/3 6/5/5 5/6/6
f 5/6/6 6/5/5 8/7/7 7/8/8
f 7/8/8 8/7/7 10/9/9 9/10/10
f 9/10/10 10/9/9 12/11/11 11/12/12
f 11/12/12 12/11/11 14/13/13 13/14/14
f 12/11/11 10/9/9 21/15/15 22/16/16
f 13/17/14 14/18/13 16/19/17 15/20/18
f 15/20/18 16/19/17 2/2/2 1/1/1
f 19/21/19 17/22/20 25/23/21 27/24/22
f 2/2/2 16/19/17 24/25/23 18/26/24
f 4/3/3 2/2/2 18/26/24 17/22/20
f 8/7/7 6/5/5 19/21/19 20/27/25
f 14/13/13 12/11/11 22/16/16 23/28/26
f 10/9/9 8/7/7 20/27/25 21/15/15
f 16/19/17 14/18/13 23/29/26 24/25/23
f 6/5/5 4/3/3 17/22/20 19/21/19
f 26/30/27 32/31/28 40/32/29 34/33/30
f 24/25/23 23/29/26 31/34/31 32/31/28
f 22/16/16 21/15/15 29/35/32 30/36/33
f 20/27/25 19/21/19 27/24/22 28/37/34
f 17/22/20 18/26/24 26/30/27 25/23/21
f 18/26/24 24/25/23 32/31/28 26/30/27
f 23/28/26 22/16/16 30/36/33 31/38/31
f 21/15/15 20/27/25 28/37/34 29/35/32
f 36/39/35 35/40/36 43/41/37 44/42/38
f 31/38/31 30/36/33 38/43/39 39/44/40
f 29/35/32 28/37/34 36/45/35 37/46/41
f 27/24/22 25/23/21 33/47/42 35/48/36
f 32/31/28 31/34/31 39/49/40 40/32/29
f 30/36/33 29/35/32 37/46/41 38/43/39
f 28/37/34 27/24/22 35/48/36 36/45/35
f 25/23/21 26/30/27 34/33/30 33/47/42
f 48/50/43 47/51/44 55/52/45 56/53/46
f 33/54/42 34/55/30 42/56/47 41/57/48
f 34/55/30 40/58/29 48/50/43 42/56/47
f 39/59/40 38/60/39 46/61/49 47/62/44
f 37/63/41 36/39/35 44/42/38 45/64/50
f 35/40/36 33/54/42 41/57/48 43/41/37
f 40/58/29 39/65/40 47/51/44 48/50/43
f 38/60/39 37/63/41 45/64/50 46/61/49
f 53/66/51 52/67/52 60/68/53 61/69/54
f 46/61/49 45/64/50 53/66/51 54/70/55
f 44/42/38 43/41/37 51/71/56 52/67/52
f 41/57/48 42/56/47 50/72/57 49/73/58
f 42/56/47 48/50/43 56/53/46 50/72/57
f 47/62/44 46/61/49 54/70/55 55/74/45
f 45/64/50 44/42/38 52/67/52 53/66/51
f 43/41/37 41/57/48 49/73/58 51/71/56
f 58/75/59 64/76/60 72/77/61 66/78/62
f 51/71/56 49/73/58 57/79/63 59/80/64
f 56/53/46 55/52/45 63/81/65 64/82/60
f 54/70/55 53/66/51 61/69/54 62/83/66
f 52/67/52 51/71/56 59/80/64 60/68/53
f 49/73/58 50/72/57 58/84/59 57/79/63
f 50/72/57 56/53/46 64/82/60 58/84/59
f 55/74/45 54/70/55 62/83/66 63/85/65
f 70/86/67 69/87/68 77/88/69 78/89/70
f 63/90/65 62/91/66 70/86/67 71/92/71
f 61/93/54 60/94/53 68/95/72 69/87/68
f 59/96/64 57/97/63 65/98/73 67/99/74
f 64/76/60 63/100/65 71/101/71 72/77/61
f 62/91/66 61/93/54 69/87/68 70/86/67
f 60/94/53 59/96/64 67/99/74 68/95/72
f 57/97/63 58/75/59 66/78/62 65/98/73
f 80/102/75 79/103/76 87/104/77 88/105/78
f 68/95/72 67/99/74 75/106/79 76/107/80
f 65/98/73 66/78/62 74/108/81 73/109/82
f 66/78/62 72/77/61 80/102/75 74/108/81
f 71/92/71 70/86/67 78/89/70 79/110/76
f 69/87/68 68/95/72 76/107/80 77/88/69
f 67/99/74 65/98/73 73/109/82 75/106/79
f 72/77/61 71/101/71 79/103/76 80/102/75
f 87/111/77 86/112/83 94/113/84 95/114/85
f 78/89/70 77/88/69 85/115/86 86/112/83
f 76/107/80 75/106/79 83/116/87 84/117/88
f 73/109/82 74/108/81 82/118/89 81/119/90
f 74/108/81 80/102/75 88/105/78 82/118/89
f 79/110/76 78/89/70 86/112/83 87/111/77
f 77/88/69 76/107/80 84/117/88 85/115/86
f 75/106/79 73/109/82 81/119/90 83/116/87
f 89/120/91 90/121/92 98/122/93 97/123/94
f 85/115/86 84/117/88 92/124/95 93/125/96
f 83/116/87 81/119/90 89/120/91 91/126/97
f 88/105/78 87/104/77 95/127/85 96/128/98
f 86/112/83 85/115/86 93/125/96 94/113/84
f 84/117/88 83/116/87 91/126/97 92/124/95
f 81/119/90 82/118/89 90/121/92 89/120/91
f 82/118/89 88/105/78 96/128/98 90/121/92
f 104/129/99 103/130/100 111/131/101 112/132/102
f 90/121/92 96/128/98 104/133/99 98/122/93
f 95/114/85 94/113/84 102/134/103 103/135/100
f 93/125/96 92/124/95 100/136/104 101/137/105
f 91/126/97 89/120/91 97/123/94 99/138/106
f 96/128/98 95/127/85 103/139/100 104/133/99
f 94/113/84 93/125/96 101/137/105 102/134/103
f 92/124/95 91/126/97 99/138/106 100/136/104
f 107/140/107 105/141/108 113/142/109 115/143/110
f 102/144/103 101/145/105 109/146/111 110/147/112
f 100/148/104 99/149/106 107/140/107 108/150/113
f 97/151/94 98/152/93 106/153/114 105/141/108
f 98/152/93 104/129/99 112/132/102 106/153/114
f 103/154/100 102/144/103 110/147/112 111/155/101
f 101/145/105 100/148/104 108/150/113 109/146/111
f 99/149/106 97/151/94 105/141/108 107/140/107
f 114/156/115 120/157/116 128/158/117 122/159/118
f 112/132/102 111/131/101 119/160/119 120/161/116
f 110/147/112 109/146/111 117/162/120 118/163/121
f 108/150/113 107/140/107 115/143/110 116/164/122
f 105/141/108 106/153/114 114/165/115 113/142/109
f 106/153/114 112/132/102 120/161/116 114/165/115
f 111/155/101 110/147/112 118/163/121 119/166/119
f 109/146/111 108/150/113 116/164/122 117/162/120
f 124/167/123 123/168/124 131/169/125 132/170/126
f 119/171/119 118/172/121 126/173/127 127/174/128
f 117/175/120 116/176/122 124/167/123 125/177/129
f 115/178/110 113/179/109 121/180/130 123/168/124
f 120/157/116 119/181/119 127/182/128 128/158/117
f 118/172/121 117/175/120 125/177/129 126/173/127
f 116/176/122 115/178/110 123/168/124 124/167/123
f 113/179/109 114/156/115 122/159/118 121/180/130
f 136/183/131 135/184/132 143/185/133 144/186/134
f 121/180/130 122/159/118 130/187/135 129/188/136
f 122/159/118 128/158/117 136/189/131 130/187/135
f 127/174/128 126/173/127 134/190/137 135/191/132
f 125/177/129 124/167/123 132/170/126 133/192/138
f 123/168/124 121/180/130 129/188/136 131/169/125
f 128/158/117 127/182/128 135/193/132 136/189/131
f 126/173/127 125/177/129 133/192/138 134/190/137
f 141/194/139 140/195/140 148/196/8 149/197/141
f 134/198/137 133/199/138 141/200/139 142/201/142
f 132/202/126 131/203/125 139/204/143 140/205/140
f 129/206/136 130/207/135 138/208/144 137/209/145
f 130/207/135 136/183/131 144/186/134 138/208/144
f 135/184/132 134/198/137 142/201/142 143/185/133
f 133/199/138 132/202/126 140/205/140 141/200/139
f 131/203/125 129/206/136 137/209/145 139/204/143
f 139/210/143 137/211/145 145/212/4 147/213/6
f 144/214/134 143/215/133 151/216/146 152/217/147
f 142/218/142 141/194/139 149/197/141 150/219/148
f 140/195/140 139/210/143 147/213/6 148/196/8
f 137/211/145 138/220/144 146/221/1 145/212/4
f 138/220/144 144/214/134 152/217/147 146/221/1
f 143/222/133 142/218/142 150/219/148 151/223/146
f 232/224/149 234/225/150 233/226/151
f 150/219/148 149/197/141 154/227/152
f 151/216/146 153/228/153 152/217/147
f 155/229/154 157/230/155 156/231/156
f 158/232/157 160/233/158 159/234/159
f 154/227/152 149/197/141 159/234/159 160/233/158
f 148/196/8 147/213/6 163/235/6 164/236/8
f 147/213/6 145/212/4 161/237/4 163/235/6
f 145/212/4 146/221/1 162/238/1 161/237/4
f 148/196/8 164/236/8 159/234/159 149/197/141
f 156/231/156 157/230/155 152/217/147 153/228/153
f 152/217/147 157/230/155 162/238/1 146/221/1
f 231/239/160 230/240/161 235/241/162
f 170/242/148 169/243/163 174/244/152
f 171/245/146 173/246/153 172/247/147
f 175/248/154 177/249/164 176/250/156
f 178/251/157 180/252/165 179/253/159
f 174/244/152 169/243/163 179/253/159 180/252/165
f 168/254/8 167/255/6 183/256/6 184/257/8
f 167/255/6 165/258/4 181/259/4 183/256/6
f 165/258/4 166/260/1 182/261/1 181/259/4
f 168/254/8 184/257/8 179/253/159 169/243/163
f 176/250/156 177/249/164 172/247/147 173/246/153
f 172/247/147 177/249/164 182/261/1 166/260/1
f 161/237/4 165/258/4 167/255/6 163/235/6
f 163/235/6 167/255/6 168/254/8 164/236/8
f 164/236/8 168/254/8 169/243/163 159/234/159
f 159/234/159 169/243/163 170/242/148 158/232/157
f 158/232/157 170/242/148 171/262/146 155/263/154
f 155/229/154 171/245/146 172/247/147 157/230/155
f 157/230/155 172/247/147 166/260/1 162/238/1
f 162/238/1 166/260/1 165/258/4 161/237/4
f 184/257/8 183/256/6 191/264/166 192/265/167
f 181/259/4 182/261/1 190/266/168 189/267/169
f 182/261/1 177/249/164 186/268/170 190/266/168
f 179/253/159 184/257/8 192/265/167 188/269/171
f 178/251/157 187/270/172 185/271/173 175/272/154
f 178/251/157 179/253/159 188/269/171 187/270/172
f 183/256/6 181/259/4 189/267/169 191/264/166
f 177/249/164 175/248/154 185/273/173 186/268/170
f 188/269/171 192/265/167 200/274/174 196/275/175
f 191/264/166 189/267/169 197/276/176 199/277/177
f 186/268/170 185/273/173 193/278/178 194/279/179
f 187/270/172 188/269/171 196/275/175 195/280/180
f 190/266/168 186/268/170 194/279/179 198/281/181
f 192/265/167 191/264/166 199/277/177 200/274/174
f 189/267/169 190/266/168 198/281/181 197/276/176
f 187/270/172 195/280/180 193/282/178 185/271/173
f 195/283/180 203/284/182 201/285/183 193/286/178
f 196/287/175 200/288/174 208/289/184 204/290/185
f 199/291/177 197/292/176 205/293/186 207/294/187
f 194/295/179 193/296/178 201/297/183 202/298/188
f 195/283/180 196/287/175 204/290/185 203/284/182
f 198/299/181 194/295/179 202/298/188 206/300/189
f 200/288/174 199/291/177 207/294/187 208/289/184
f 197/292/176 198/299/181 206/300/189 205/293/186
f 214/301/190 217/302/191 209/303/192
f 222/304/193 218/305/194 209/303/192
f 212/306/195 210/307/196 209/303/192
f 218/305/194 221/308/197 209/303/192
f 205/293/186 206/300/189 220/309/198 219/310/199
f 203/284/182 215/311/200 211/312/201 201/285/183
f 217/302/191 224/313/202 209/303/192
f 221/308/197 212/306/195 209/303/192
f 203/284/182 204/290/185 216/314/203 215/311/200
f 206/300/189 202/298/188 213/315/204 220/309/198
f 208/289/184 207/294/187 223/316/205 225/317/206
f 207/294/187 205/293/186 219/310/199 223/316/205
f 202/298/188 201/297/183 211/318/201 213/315/204
f 204/290/185 208/289/184 225/317/206 216/314/203
f 224/313/202 222/304/193 209/303/192
f 215/319/200 216/320/203 217/302/191 214/301/190
f 211/321/201 215/319/200 214/301/190 210/307/196
f 213/322/204 211/321/201 210/307/196 212/306/195
f 219/323/199 220/324/198 221/308/197 218/305/194
f 223/325/205 219/323/199 218/305/194 222/304/193
f 225/326/206 223/325/205 222/304/193 224/313/202
f 216/320/203 225/326/206 224/313/202 217/302/191
f 220/324/198 213/322/204 212/306/195 221/308/197
f 214/301/190 209/303/192 210/307/196
f 236/327/207 238/328/208 237/329/209
f 239/330/210 241/331/211 240/332/212
f 235/241/162 230/240/161 240/332/212 241/331/211
f 229/333/213 228/334/214 244/335/12 245/336/10
f 228/334/214 226/337/215 242/338/14 244/335/12
f 226/339/215 227/340/216 243/341/18 242/342/14
f 229/333/213 245/336/10 240/332/212 230/240/161
f 237/329/209 238/328/208 233/226/151 234/225/150
f 233/226/151 238/328/208 243/341/18 227/340/216
f 251/343/217 250/344/218 255/345/162
f 252/346/219 254/347/150 253/348/220
f 256/349/207 258/350/221 257/351/209
f 259/352/210 261/353/222 260/354/212
f 255/345/162 250/344/218 260/354/212 261/353/222
f 249/355/10 248/356/12 264/357/12 265/358/10
f 248/356/12 246/359/14 262/360/14 264/357/12
f 246/361/14 247/362/18 263/363/18 262/364/14
f 249/355/10 265/358/10 260/354/212 250/344/218
f 257/351/209 258/350/221 253/348/220 254/347/150
f 253/348/220 258/350/221 263/363/18 247/362/18
f 180/365/165 178/366/157 231/367/160 235/368/162
f 174/369/152 180/365/165 235/368/162 241/370/211
f 170/371/148 174/369/152 241/370/211 239/372/210
f 175/373/154 176/374/156 234/375/150 232/376/149
f 175/373/154 232/376/149 231/367/160 178/366/157
f 176/374/156 173/377/153 237/378/209 234/375/150
f 173/377/153 171/379/146 236/380/207 237/378/209
f 171/381/146 170/371/148 239/372/210 236/382/207
f 160/383/158 158/384/157 251/385/217 255/386/162
f 155/387/154 156/388/156 254/389/150 252/390/219
f 155/391/154 252/392/219 251/385/217 158/384/157
f 154/393/152 160/383/158 255/386/162 261/394/222
f 150/395/148 154/393/152 261/394/222 259/396/210
f 156/388/156 153/397/153 257/398/209 254/389/150
f 153/397/153 151/399/146 256/400/207 257/398/209
f 151/399/146 150/395/148 259/396/210 256/400/207
f 236/327/207 239/330/210 251/343/217 252/346/219
f 240/332/212 250/344/218 251/343/217 239/330/210
f 245/336/10 249/355/10 250/344/218 240/332/212
f 244/335/12 248/356/12 249/355/10 245/336/10
f 248/356/12 244/335/12 465/401/223 468/402/224
f 243/341/18 247/362/18 246/361/14 242/342/14
f 238/328/208 253/348/220 247/362/18 243/341/18
f 236/327/207 252/346/219 253/348/220 238/328/208
f 258/350/221 256/349/207 266/403/225 267/404/226
f 259/352/210 260/354/212 269/405/227 268/406/228
f 265/358/10 264/357/12 272/407/229 273/408/230
f 262/364/14 263/363/18 271/409/231 270/410/232
f 263/363/18 258/350/221 267/404/226 271/409/231
f 256/349/207 259/352/210 268/406/228 266/403/225
f 260/354/212 265/358/10 273/408/230 269/405/227
f 264/357/12 262/360/14 270/411/232 272/407/229
f 272/412/229 270/413/232 278/414/233 280/415/234
f 267/416/226 266/417/225 274/418/235 275/419/236
f 271/420/231 267/416/226 275/419/236 279/421/237
f 273/422/230 272/412/229 280/415/234 281/423/238
f 270/413/232 271/420/231 279/421/237 278/414/233
f 268/424/228 269/425/227 277/426/239 276/427/240
f 266/417/225 268/424/228 276/427/240 274/418/235
f 269/425/227 273/422/230 281/423/238 277/426/239
f 274/418/235 276/427/240 282/428/241
f 277/426/239 281/423/238 282/428/241
f 280/415/234 278/414/233 282/428/241
f 275/419/236 274/418/235 282/428/241
f 279/421/237 275/419/236 282/428/241
f 281/423/238 280/415/234 282/428/241
f 278/414/233 279/421/237 282/428/241
f 276/427/240 277/426/239 282/428/241
f 324/429/242 323/430/243 309/431/244 308/432/245
f 323/430/243 325/433/246 310/434/247 309/431/244
f 325/433/246 326/435/248 311/436/249 310/434/247
f 326/435/248 327/437/250 313/438/251 311/436/249
f 327/437/250 328/439/252 312/440/253 313/438/251
f 328/439/252 329/441/254 314/442/255 312/440/253
f 329/441/254 330/443/256 307/444/257 314/442/255
f 330/445/256 324/429/242 308/432/245 307/446/257
f 316/447/258 307/446/257 308/432/245 315/448/259
f 315/448/259 308/432/245 309/431/244 317/449/260
f 317/449/260 309/431/244 310/434/247 318/450/261
f 318/450/261 310/434/247 311/436/249 319/451/262
f 319/451/262 311/436/249 313/438/251 320/452/263
f 320/452/263 313/438/251 312/440/253 321/453/264
f 321/453/264 312/440/253 314/442/255 322/454/265
f 322/454/265 314/442/255 307/444/257 316/455/258
f 298/456/266 322/454/265 316/455/258 291/457/267
f 296/458/268 321/453/264 322/454/265 298/456/266
f 297/459/269 320/452/263 321/453/264 296/458/268
f 295/460/270 319/451/262 320/452/263 297/459/269
f 294/461/271 318/450/261 319/451/262 295/460/270
f 293/462/272 317/449/260 318/450/261 294/461/271
f 292/463/273 315/448/259 317/449/260 293/462/272
f 291/464/267 316/447/258 315/448/259 292/463/273
f 226/337/215 228/334/214 324/429/242 330/445/256
f 227/340/216 226/339/215 330/443/256 329/441/254
f 233/226/151 227/340/216 329/441/254 328/439/252
f 232/224/149 233/226/151 328/439/252 327/437/250
f 231/239/160 232/224/149 327/437/250 326/435/248
f 230/240/161 231/239/160 326/435/248 325/433/246
f 229/333/213 230/240/161 325/433/246 323/430/243
f 228/334/214 229/333/213 323/430/243 324/429/242
f 332/465/274 331/466/275 302/467/276 301/468/277
f 331/466/275 333/469/278 303/470/279 302/467/276
f 333/469/278 334/471/280 305/472/281 303/470/279
f 334/471/280 335/473/282 304/474/283 305/472/281
f 335/473/282 336/475/284 306/476/285 304/474/283
f 336/475/284 337/477/286 299/478/287 306/476/285
f 337/479/286 338/480/288 300/481/289 299/482/287
f 338/480/288 332/465/274 301/468/277 300/481/289
f 292/463/273 293/462/272 332/465/274 338/480/288
f 291/464/267 292/463/273 338/480/288 337/479/286
f 298/456/266 291/457/267 337/477/286 336/475/284
f 296/458/268 298/456/266 336/475/284 335/473/282
f 297/459/269 296/458/268 335/473/282 334/471/280
f 295/460/270 297/459/269 334/471/280 333/469/278
f 294/461/271 295/460/270 333/469/278 331/466/275
f 293/462/272 294/461/271 331/466/275 332/465/274
f 284/483/290 348/484/291 349/485/292 285/486/293
f 283/487/294 347/488/295 348/484/291 284/483/290
f 290/489/296 354/490/297 347/491/295 283/492/294
f 288/493/298 352/494/299 354/490/297 290/489/296
f 289/495/300 353/496/301 352/494/299 288/493/298
f 287/497/302 351/498/303 353/496/301 289/495/300
f 286/499/304 350/500/305 351/498/303 287/497/302
f 285/486/293 349/485/292 350/500/305 286/499/304
f 367/501/306 343/502/307 345/503/308 368/504/309
f 369/505/310 342/506/311 343/502/307 367/501/306
f 368/507/309 345/508/308 344/509/312 370/510/313
f 305/511/281 361/512/314 359/513/315 303/514/279
f 303/514/279 359/513/315 358/515/316 302/516/276
f 304/517/283 360/518/317 361/512/314 305/511/281
f 353/496/301 351/498/303 359/513/315 361/512/314
f 351/498/303 350/500/305 358/515/316 359/513/315
f 350/500/305 349/485/292 357/519/318 358/515/316
f 349/485/292 348/484/291 356/520/319 357/519/318
f 348/484/291 347/488/295 355/521/320 356/520/319
f 347/491/295 354/490/297 362/522/321 355/523/320
f 354/490/297 352/494/299 360/518/317 362/522/321
f 352/494/299 353/496/301 361/512/314 360/518/317
f 301/524/277 302/525/276 363/526/322
f 304/527/283 306/528/285 365/529/323
f 372/530/324 364/531/325 366/532/326 371/533/327
f 355/521/320 366/534/326 364/535/325 356/520/319
f 356/520/319 364/535/325 363/536/322 357/519/318
f 357/519/318 363/536/322 302/516/276 358/515/316
f 360/518/317 304/517/283 365/537/323 362/522/321
f 362/522/321 365/537/323 366/538/326 355/523/320
f 373/539/328 371/533/327 366/532/326 365/529/323
f 373/539/328 365/529/323 306/528/285 370/510/313
f 372/530/324 374/540/329 363/526/322 364/531/325
f 369/505/310 301/524/277 363/526/322 374/540/329
f 342/506/311 369/505/310 374/540/329 341/541/330
f 340/542/331 341/541/330 374/540/329 372/530/324
f 346/543/332 373/539/328 370/510/313 344/509/312
f 346/543/332 339/544/333 371/533/327 373/539/328
f 340/542/331 372/530/324 371/533/327 339/544/333
f 299/545/287 368/507/309 370/510/313 306/528/285
f 301/524/277 369/505/310 367/501/306 300/546/289
f 300/546/289 367/501/306 368/504/309 299/547/287
f 381/548/334 389/549/335 387/550/336 379/551/337
f 379/551/337 387/550/336 386/552/338 378/553/339
f 380/554/340 388/555/341 389/549/335 381/548/334
f 377/556/342 378/557/339 391/558/343
f 380/554/340 382/559/344 393/560/345
f 400/561/346 392/562/347 394/563/348 399/564/349
f 383/565/350 394/566/348 392/567/347 384/568/351
f 384/568/351 392/567/347 391/569/343 385/570/352
f 385/570/352 391/569/343 378/553/339 386/552/338
f 388/555/341 380/554/340 393/560/345 390/571/353
f 390/571/353 393/560/345 394/572/348 383/573/350
f 401/574/354 399/564/349 394/563/348 393/575/345
f 401/574/354 393/575/345 382/576/344 398/577/355
f 400/561/346 402/578/356 391/558/343 392/562/347
f 397/579/357 377/556/342 391/558/343 402/578/356
f 375/580/358 396/581/359 398/577/355 382/576/344
f 377/556/342 397/579/357 395/582/360 376/583/361
f 376/583/361 395/582/360 396/584/359 375/585/358
f 377/586/342 376/587/361 407/588/362 406/589/363
f 377/586/342 406/589/363 405/590/364 378/591/339
f 378/591/339 405/590/364 404/592/365 379/593/337
f 379/593/337 404/592/365 403/594/366 381/595/334
f 381/595/334 403/594/366 410/596/367 380/597/340
f 382/598/344 380/597/340 410/596/367 408/599/368
f 375/600/358 382/598/344 408/599/368 409/601/369
f 376/587/361 375/602/358 409/603/369 407/588/362
f 343/502/307 407/588/362 409/603/369 345/503/308
f 342/506/311 406/589/363 407/588/362 343/502/307
f 342/506/311 341/541/330 405/590/364 406/589/363
f 341/541/330 340/542/331 404/592/365 405/590/364
f 340/542/331 339/544/333 403/594/366 404/592/365
f 339/544/333 346/543/332 410/596/367 403/594/366
f 344/509/312 408/599/368 410/596/367 346/543/332
f 345/508/308 409/601/369 408/599/368 344/509/312
f 396/584/359 395/582/360 411/604/370 412/605/371
f 398/577/355 396/581/359 412/606/371 414/607/372
f 401/574/354 417/608/373 415/609/374 399/564/349
f 400/561/346 416/610/375 418/611/376 402/578/356
f 395/582/360 397/579/357 413/612/377 411/604/370
f 399/564/349 415/609/374 416/610/375 400/561/346
f 401/574/354 398/577/355 414/607/372 417/608/373
f 402/578/356 418/611/376 413/612/377 397/579/357
f 411/604/370 413/612/377 421/613/378 419/614/379
f 415/609/374 423/615/380 424/616/381 416/610/375
f 417/608/373 414/607/372 422/617/382 425/618/383
f 418/611/376 426/619/384 421/613/378 413/612/377
f 412/605/371 411/604/370 419/614/379 420/620/385
f 414/607/372 412/606/371 420/621/385 422/617/382
f 417/608/373 425/618/383 423/615/380 415/609/374
f 416/610/375 424/616/381 426/619/384 418/611/376
f 422/617/382 420/621/385 428/622/386 430/623/387
f 425/618/383 433/624/388 431/625/389 423/615/380
f 424/616/381 432/626/390 434/627/391 426/619/384
f 419/614/379 421/613/378 429/628/392 427/629/393
f 423/615/380 431/625/389 432/626/390 424/616/381
f 425/618/383 422/617/382 430/623/387 433/624/388
f 426/619/384 434/627/391 429/628/392 421/613/378
f 420/620/385 419/614/379 427/629/393 428/630/386
f 434/627/391 442/631/394 437/632/395 429/628/392
f 428/630/386 427/629/393 435/633/396 436/634/397
f 430/623/387 428/622/386 436/635/397 438/636/398
f 433/624/388 441/637/399 439/638/400 431/625/389
f 432/626/390 440/639/401 442/631/394 434/627/391
f 427/629/393 429/628/392 437/632/395 435/633/396
f 431/625/389 439/638/400 440/639/401 432/626/390
f 433/624/388 430/623/387 438/636/398 441/637/399
f 435/633/396 437/632/395 445/640/402 443/641/403
f 439/638/400 447/642/404 448/643/405 440/639/401
f 441/637/399 438/636/398 446/644/406 449/645/407
f 442/631/394 450/646/408 445/640/402 437/632/395
f 436/634/397 435/633/396 443/641/403 444/647/409
f 438/636/398 436/635/397 444/648/409 446/644/406
f 441/637/399 449/645/407 447/642/404 439/638/400
f 440/639/401 448/643/405 450/646/408 442/631/394
f 448/643/405 451/649/410 450/646/408
f 443/641/403 445/640/402 451/649/410
f 447/642/404 451/649/410 448/643/405
f 449/645/407 446/644/406 451/649/410
f 450/646/408 451/649/410 445/640/402
f 444/647/409 443/641/403 451/649/410
f 446/644/406 444/648/409 451/649/410
f 449/645/407 451/649/410 447/642/404
f 389/549/335 388/555/341 453/650/411 452/651/412
f 386/552/338 387/550/336 454/652/413 455/653/414
f 385/570/352 456/654/415 457/655/416 384/568/351
f 390/571/353 459/656/417 453/650/411 388/555/341
f 387/550/336 389/549/335 452/651/412 454/652/413
f 386/552/338 455/653/414 456/654/415 385/570/352
f 383/573/350 458/657/418 459/656/417 390/571/353
f 384/568/351 457/655/416 458/658/418 383/565/350
f 452/651/412 453/650/411 461/659/419 460/660/420
f 459/656/417 467/661/421 461/659/419 453/650/411
f 456/654/415 464/662/422 465/401/223 457/655/416
f 454/652/413 452/651/412 460/660/420 462/663/423
f 457/655/416 465/401/223 466/664/424 458/658/418
f 458/657/418 466/665/424 467/661/421 459/656/417
f 455/653/414 463/666/425 464/662/422 456/654/415
f 455/653/414 454/652/413 462/663/423 463/666/425
f 244/335/12 242/338/14 466/664/424 465/401/223
f 242/342/14 246/361/14 469/667/426 466/668/424
f 246/359/14 248/356/12 468/402/224 469/669/426
f 461/659/419 467/661/421 475/670/427 471/671/428
f 463/666/425 462/663/423 472/672/429 473/673/430
f 460/660/420 461/659/419 471/671/428 470/674/431
f 464/662/422 463/666/425 473/673/430 474/675/432
f 462/663/423 460/660/420 470/674/431 472/672/429
f 464/662/422 474/675/432 468/402/224 465/401/223
f 467/661/421 466/665/424 469/676/426 475/670/427
f 474/675/432 473/673/430 481/677/433 482/678/434
f 475/670/427 469/676/426 477/679/435 483/680/436
f 472/672/429 470/674/431 478/681/437 480/682/438
f 471/671/428 475/670/427 483/680/436 479/683/439
f 469/669/426 468/402/224 476/684/440 477/685/435
f 473/673/430 472/672/429 480/682/438 481/677/433
f 468/402/224 474/675/432 482/678/434 476/684/440
f 470/674/431 471/671/428 479/683/439 478/681/437
f 481/677/433 480/682/438 488/686/441 489/687/442
f 478/681/437 479/683/439 487/688/443 486/689/444
f 476/684/440 482/678/434 490/690/445 484/691/446
f 482/678/434 481/677/433 489/687/442 490/690/445
f 480/682/438 478/681/437 486/689/444 488/686/441
f 477/685/435 476/684/440 484/691/446 485/692/447
f 483/680/436 477/679/435 485/693/447 491/694/448
f 479/683/439 483/680/436 491/694/448 487/688/443
f 491/694/448 485/693/447 493/695/449 499/696/450
f 487/688/443 491/694/448 499/696/450 495/697/451
f 489/687/442 488/686/441 496/698/452 497/699/453
f 486/689/444 487/688/443 495/697/451 494/700/454
f 484/691/446 490/690/445 498/701/455 492/702/456
f 490/690/445 489/687/442 497/699/453 498/701/455
f 488/686/441 486/689/444 494/700/454 496/698/452
f 485/692/447 484/691/446 492/702/456 493/703/449
f 498/701/455 497/699/453 505/704/457 506/705/458
f 496/698/452 494/700/454 502/706/459 504/707/460
f 493/703/449 492/702/456 500/708/461 501/709/462
f 499/696/450 493/695/449 501/709/462 507/710/463
f 495/697/451 499/696/450 507/710/463 503/711/464
f 497/699/453 496/698/452 504/707/460 505/704/457
f 494/700/454 495/697/451 503/711/464 502/706/459
f 492/702/456 498/701/455 506/705/458 500/708/461
f 500/708/461 506/705/458 508/712/465
f 506/705/458 505/704/457 508/712/465
f 504/707/460 502/706/459 508/712/465
f 501/709/462 500/708/461 508/712/465
f 507/710/463 501/709/462 508/712/465
f 503/711/464 507/710/463 508/712/465
f 505/704/457 504/707/460 508/712/465
f 502/706/459 503/711/464 508/712/465
f 289/495/300 288/493/298 514/713/466 515/714/467
f 286/499/304 287/497/302 513/715/468 512/716/469
f 284/483/290 285/486/293 511/717/470 510/718/471
f 288/493/298 290/489/296 516/719/472 514/713/466
f 283/487/294 284/483/290 510/718/471 509/720/473
f 287/497/302 289/495/300 515/714/467 513/715/468
f 285/486/293 286/499/304 512/716/469 511/717/470
f 290/489/296 283/492/294 509/721/473 516/719/472
f 515/714/467 514/713/466 522/722/474 523/723/475
f 512/716/469 513/715/468 521/724/476 520/725/477
f 510/718/471 511/717/470 519/726/478 518/727/479
f 514/713/466 516/719/472 524/728/480 522/722/474
f 513/715/468 515/714/467 523/723/475 521/724/476
f 511/717/470 512/716/469 520/725/477 519/726/478
f 516/719/472 509/721/473 517/729/481 524/728/480
f 509/720/473 510/718/471 518/727/479 517/730/481
f 545/731/482 553/732/483 554/733/484 556/734/485
f 527/735/486 538/736/487 534/737/488 535/738/489
f 527/739/486 528/740/490 532/741/491 531/742/491
f 527/743/486 541/744/492 529/745/493
f 592/746/494 591/747/495 589/748/496
f 545/749/482 556/750/485 547/751/497
f 546/752/498 545/749/482 547/751/497 548/753/497
f 527/739/486 531/742/491 538/754/487
f 527/735/486 535/738/489 536/755/499 541/756/492
f 554/733/484 553/732/483 551/757/500
f 535/738/489 534/737/488 533/758/501
f 582/759/502 543/760/503 580/761/504
f 526/762/505 525/763/506 537/764/507 539/765/507
f 545/749/482 549/766/508 555/767/509
f 582/759/502 575/768/510 544/769/511
f 582/770/502 571/771/512 570/772/513 543/773/503
f 570/772/513 571/771/512 573/774/514
f 525/763/506 526/762/505 542/775/504 540/776/504
f 569/777/515 557/778/516 567/779/517
f 575/780/510 574/781/510 603/782/510 604/783/510
f 571/771/512 572/784/518 573/774/514
f 582/770/502 544/785/511 572/784/518 571/771/512
f 569/777/515 565/786/507 558/787/519
f 548/788/497 547/789/497 602/790/497 601/791/497
f 591/747/495 590/792/520 589/748/496
f 618/793/508 549/794/508 550/795/508 617/796/508
f 569/797/515 560/798/521 559/799/522 557/800/516
f 536/755/499 535/738/489 533/758/501
f 568/801/523 569/777/515 567/779/517 566/802/517
f 528/803/490 527/743/486 529/745/493 530/804/493
f 584/805/524 583/806/525 585/807/491 586/808/491
f 583/809/525 593/810/526 590/792/520 591/747/495
f 582/759/502 581/811/527 574/812/510 575/768/510
f 583/809/525 591/747/495 592/746/494 594/813/528
f 583/806/525 584/805/524 588/814/517 587/815/517
f 583/806/525 587/815/517 593/816/526
f 606/817/529 596/818/530 599/819/531 598/820/532
f 560/798/521 561/821/533 562/822/534
f 545/731/482 555/823/509 552/824/535 553/732/483
f 583/806/525 594/825/528 585/807/491
f 569/777/515 568/801/523 564/826/507 565/786/507
f 606/817/529 598/820/532 597/827/536 595/828/537
f 569/797/515 558/829/519 561/821/533 560/798/521
f 559/799/522 560/798/521 562/822/534
f 553/732/483 552/824/535 551/757/500
f 581/811/527 582/759/502 580/761/504 579/830/504
f 545/749/482 546/752/498 550/831/508 549/766/508
f 525/763/506 540/776/504 607/832/538
f 525/763/506 608/833/539 537/764/507
f 597/827/536 598/820/532 600/834/540
f 598/820/532 599/819/531 600/834/540
f 605/835/541 606/836/529 604/837/510 603/838/510
f 606/836/529 605/835/541 601/839/497 602/840/497
f 606/836/529 602/840/497 596/841/530
f 606/836/529 595/842/537 604/837/510
f 578/843/542 577/844/543 563/845/544
f 577/844/543 576/846/545 563/845/544
f 620/847/546 610/848/547 613/849/548 612/850/549
f 611/851/550 612/850/549 614/852/551
f 612/850/549 613/849/548 614/852/551
f 619/853/552 620/854/546 618/855/508 617/856/508
f 620/854/546 619/853/552 615/857/493 616/858/493
f 620/854/546 616/858/493 610/859/547
f 620/854/546 609/860/553 618/855/508
f 620/847/546 612/850/549 611/851/550 609/861/553
f 525/862/506 577/844/543 578/843/542 608/863/539
f 525/862/506 607/864/538 576/846/545 577/844/543
f 530/865/493 529/866/493 616/867/493 615/868/493
f 531/869/491 532/870/491 586/871/491 585/872/491
f 566/873/517 567/874/517 587/875/517 588/876/517
f 539/877/507 537/878/507 565/879/507 564/880/507
f 579/881/504 580/882/504 540/883/504 542/884/504
f 580/761/504 543/760/503 607/832/538 540/776/504
f 576/846/545 607/885/538 563/845/544
f 570/772/513 573/774/514 543/886/503
f 558/787/519 565/786/507 537/764/507 608/833/539
f 593/816/526 587/815/517 567/779/517 557/778/516
f 538/754/487 531/742/491 585/807/491 594/825/528
f 529/745/493 541/744/492 610/859/547 616/858/493
f 618/855/508 609/860/553 555/767/509 549/766/508
f 602/840/497 547/751/497 556/750/485 596/841/530
f 544/769/511 575/768/510 604/837/510 595/842/537
f 572/784/518 544/887/511 573/774/514
f 597/827/536 600/834/540 595/888/537
f 595/889/537 600/890/540 573/891/514 544/892/511
f 520/893/477 521/894/476 573/891/514 600/890/540
f 599/819/531 596/895/530 600/834/540
f 554/733/484 551/757/500 556/896/485
f 556/897/485 551/898/500 600/890/540 596/899/530
f 552/824/535 555/900/509 551/757/500
f 611/851/550 614/852/551 609/901/553
f 609/902/553 614/903/551 551/898/500 555/904/509
f 613/849/548 610/905/547 614/852/551
f 536/755/499 533/758/501 541/906/492
f 541/907/492 533/908/501 614/903/551 610/909/547
f 534/737/488 538/910/487 533/758/501
f 592/746/494 589/748/496 594/911/528
f 594/912/528 589/913/496 533/914/501 538/915/487
f 590/792/520 593/916/526 589/748/496
f 559/799/522 562/822/534 557/917/516
f 557/918/516 562/919/534 589/913/496 593/920/526
f 561/821/533 558/921/519 562/822/534
f 578/843/542 563/845/544 608/922/539
f 608/923/539 563/924/544 562/919/534 558/925/519
f 543/926/503 573/891/514 563/924/544 607/927/538
f 521/894/476 523/928/475 563/924/544 573/891/514
f 523/928/475 522/929/474 562/919/534 563/924/544
f 522/929/474 524/930/480 589/913/496 562/919/534
f 524/930/480 517/931/481 533/914/501 589/913/496
f 517/932/481 518/933/479 614/903/551 533/908/501
f 518/933/479 519/934/478 551/898/500 614/903/551
f 519/934/478 520/893/477 600/890/540 551/898/500
f 574/812/510 581/811/527 605/835/541 603/838/510
f 546/752/498 548/753/497 601/839/497 605/835/541
f 550/831/508 546/752/498 619/853/552 617/856/508
f 528/803/490 530/804/493 615/857/493 619/853/552
f 532/741/491 528/740/490 584/805/524 586/808/491
f 568/801/523 566/802/517 588/814/517 584/805/524
f 526/762/505 539/765/507 564/826/507 568/801/523
f 542/775/504 526/762/505 581/811/527 579/830/504
f 619/853/552 546/752/498 623/935/554 628/936/555
f 605/835/541 581/811/527 625/937/556 627/938/557
f 581/811/527 526/762/505 621/939/558 625/937/556
f 568/801/523 584/805/524 626/940/559 624/941/560
f 528/803/490 619/853/552 628/936/555 622/942/561
f 546/752/498 605/835/541 627/938/557 623/935/554
f 526/762/505 568/801/523 624/941/560 621/939/558
f 584/805/524 528/740/490 622/943/561 626/940/559
f 624/941/560 626/940/559 634/944/562 632/945/563
f 622/942/561 628/936/555 636/946/564 630/947/565
f 623/935/554 627/938/557 635/948/566 631/949/567
f 621/939/558 624/941/560 632/945/563 629/950/568
f 626/940/559 622/943/561 630/951/565 634/944/562
f 628/936/555 623/935/554 631/949/567 636/946/564
f 627/938/557 625/937/556 633/952/569 635/948/566
f 625/937/556 621/939/558 629/950/568 633/952/569
f 635/953/566 633/954/569 641/955/556 643/956/557
f 633/954/569 629/957/568 637/958/558 641/955/556
f 632/959/563 634/960/562 642/961/559 640/962/560
f 630/963/565 636/964/564 644/965/555 638/966/561
f 631/967/567 635/953/566 643/956/557 639/968/554
f 629/957/568 632/959/563 640/962/560 637/958/558
f 634/960/562 630/969/565 638/970/561 642/961/559
f 636/964/564 631/967/567 639/968/554 644/965/555
f 637/971/558 640/972/560 648/973/570 645/974/571
f 642/975/559 638/976/561 646/977/572 650/978/573
f 644/979/555 639/980/554 647/981/574 652/982/575
f 643/983/557 641/984/556 649/985/576 651/986/577
f 641/984/556 637/971/558 645/974/571 649/985/576
f 640/972/560 642/975/559 650/978/573 648/973/570
f 638/976/561 644/979/555 652/982/575 646/977/572
f 639/980/554 643/983/557 651/986/577 647/981/574
f 647/987/574 651/988/577 653/989/578
f 645/990/571 648/991/570 653/989/578
f 650/992/573 646/993/572 653/989/578
f 652/994/575 647/987/574 653/989/578
f 651/988/577 649/995/576 653/989/578
f 649/995/576 645/990/571 653/989/578
f 648/991/570 650/992/573 653/989/578
f 646/996/572 652/994/575 653/989/578
