# Blender 5.1.2
# www.blender.org
mtllib lixeira.mtl
o Trash_Can_LowP
v -7.799706 -3.998850 1.828661
v -9.855868 -3.998850 3.884828
v -10.845511 -3.998850 4.041574
v -7.642963 -3.998850 0.839023
v -7.642963 -3.674253 0.839023
v -7.799707 -3.674253 -0.150620
v -7.084604 5.684130 -0.382971
v -6.891059 5.684130 0.839023
v -8.254596 -3.674253 -1.043389
v -7.646293 5.684130 -1.485348
v -8.963102 -3.674253 -1.751895
v -8.521144 5.684130 -2.360198
v -9.855872 -3.674253 -2.206784
v -9.623521 5.684130 -2.921887
v -10.845514 -3.674253 -2.363528
v -10.800831 5.684130 -3.288377
v -11.835156 -3.674253 -2.206784
v -12.022824 5.684130 -3.094831
v -12.727926 -3.674253 -1.751895
v -13.169884 5.684130 -2.360198
v -13.436432 -3.674253 -1.043389
v -14.044736 5.684130 -1.485348
v -13.891321 -3.674253 -0.150619
v -14.606424 5.684130 -0.382970
v -14.048065 -3.674253 0.839024
v -14.799970 5.684130 0.839024
v -13.891321 -3.674253 1.828667
v -14.606424 5.684130 2.061018
v -13.436431 -3.674253 2.721436
v -14.044734 5.684131 3.163394
v -12.727924 -3.674253 3.429942
v -13.169883 5.684131 4.038246
v -11.835155 -3.674253 3.884830
v -12.071465 5.684131 4.773787
v -10.845511 -3.674253 4.041574
v -10.849471 5.684131 4.967331
v -9.855868 -3.674253 3.884828
v -9.623516 5.684131 4.599932
v -8.963099 -3.674253 3.429938
v -8.521140 5.684131 4.038240
v -8.254594 -3.674253 2.721431
v -7.646290 5.684131 3.163388
v -7.799706 -3.674253 1.828661
v -7.084602 5.684130 2.061011
v -7.084604 6.923589 -0.382972
v -6.891059 6.923589 0.839022
v -7.646293 6.923589 -1.485348
v -8.521144 6.923589 -2.360198
v -9.623521 6.923589 -2.921887
v -10.800831 6.923589 -3.288377
v -12.022824 6.923589 -3.094831
v -13.169884 6.923589 -2.360198
v -14.044736 6.923589 -1.485348
v -14.606424 6.923589 -0.382971
v -14.799970 6.923589 0.839023
v -14.606424 6.923589 2.061018
v -14.044734 6.923590 3.163394
v -13.169883 6.923590 4.038246
v -12.071465 6.923590 4.773787
v -10.849471 6.923590 4.967331
v -9.623516 6.923590 4.599932
v -8.521140 6.923590 4.038240
v -7.646290 6.923590 3.163388
v -7.084602 6.923589 2.061011
v -7.673635 -3.674253 -0.191583
v -7.510403 -3.674253 0.839023
v -7.510403 -3.998850 0.839023
v -7.673635 -3.998850 -0.191583
v -7.673633 -3.674253 1.869624
v -7.673633 -3.998850 1.869624
v -8.147349 -3.674253 2.799349
v -8.147349 -3.998850 2.799349
v -8.885181 -3.674253 3.537182
v -8.885181 -3.998850 3.537182
v -9.814905 -3.674253 4.010901
v -9.814905 -3.998850 4.010901
v -10.845511 -3.674253 4.174134
v -10.845511 -3.998850 4.174134
v -11.876117 -3.674253 4.010903
v -11.876117 -3.998850 4.010903
v -12.805841 -3.674253 3.537186
v -12.805841 -3.998850 3.537186
v -13.543674 -3.674253 2.799354
v -13.543674 -3.998850 2.799354
v -14.017392 -3.674253 1.869630
v -14.017392 -3.998850 1.869630
v -14.180625 -3.674253 0.839024
v -14.180625 -3.998850 0.839024
v -14.017394 -3.674253 -0.191582
v -14.017394 -3.998850 -0.191582
v -13.543675 -3.674253 -1.121306
v -13.543675 -3.998850 -1.121306
v -12.805844 -3.674253 -1.859138
v -12.805844 -3.998850 -1.859138
v -11.876118 -3.674253 -2.332857
v -11.876118 -3.998850 -2.332857
v -10.845514 -3.674253 -2.496089
v -10.845514 -3.998850 -2.496089
v -9.814908 -3.674253 -2.332857
v -9.814908 -3.998850 -2.332857
v -8.885185 -3.674253 -1.859139
v -8.885185 -3.998850 -1.859139
v -8.147353 -3.674253 -1.121306
v -8.147353 -3.998850 -1.121306
v -7.799707 -3.998850 -0.150620
v -8.254596 -3.998850 -1.043389
v -8.963102 -3.998850 -1.751895
v -9.855872 -3.998850 -2.206784
v -10.845514 -3.998850 -2.363528
v -11.835156 -3.998850 -2.206784
v -12.727926 -3.998850 -1.751895
v -13.436432 -3.998850 -1.043389
v -13.891321 -3.998850 -0.150619
v -14.048065 -3.998850 0.839024
v -13.891321 -3.998850 1.828667
v -13.436431 -3.998850 2.721436
v -12.727924 -3.998850 3.429942
v -11.835155 -3.998850 3.884830
v -8.963099 -3.998850 3.429938
v -8.254594 -3.998850 2.721431
v -6.722541 6.725771 0.839003
v -6.924334 6.725771 -0.435066
v -6.924334 7.256285 -0.435066
v -6.722541 7.256285 0.839003
v -7.509960 6.725771 -1.584419
v -7.509960 7.256285 -1.584421
v -8.422091 6.725771 -2.496552
v -8.422091 7.256285 -2.496552
v -9.571445 6.725771 -3.082177
v -9.571445 7.256285 -3.082176
v -10.798926 6.725770 -3.464283
v -10.798926 7.256285 -3.464283
v -12.072995 6.725770 -3.262491
v -12.072995 7.256285 -3.262491
v -13.268936 6.725771 -2.496552
v -13.268936 7.256285 -2.496552
v -14.181070 6.725771 -1.584419
v -14.181070 7.256285 -1.584420
v -14.766695 6.725771 -0.435064
v -14.766693 7.256285 -0.435065
v -14.968488 6.725771 0.839004
v -14.968488 7.256285 0.839004
v -14.766693 6.725771 2.113074
v -14.766693 7.256285 2.113074
v -14.181067 6.725771 3.262428
v -14.181067 7.256286 3.262428
v -13.268935 6.725771 4.174560
v -13.268935 7.256286 4.174561
v -12.123709 6.725771 4.941448
v -12.123708 7.256286 4.941448
v -10.849639 6.725771 5.143239
v -10.849639 7.256286 5.143239
v -9.571441 6.725771 4.760182
v -9.571441 7.256286 4.760182
v -8.422088 6.725771 4.174555
v -8.422088 7.256286 4.174555
v -7.509956 6.725771 3.262422
v -7.509956 7.256286 3.262420
v -6.924332 6.725771 2.113065
v -6.924332 7.256285 2.113065
v -7.155356 7.475632 -0.360003
v -7.706475 7.475632 3.119642
v -7.155353 7.475632 2.038002
v -6.965451 7.475632 0.839003
v -7.155356 7.256285 -0.360003
v -6.965451 7.256285 0.839003
v -7.706478 7.256285 -1.441641
v -8.564872 7.256285 -2.300032
v -9.662211 7.256285 -2.859155
v -10.816737 7.256285 -3.218551
v -11.985877 7.256285 -3.033377
v -13.117662 7.256285 -2.308528
v -13.984550 7.256285 -1.441641
v -14.535672 7.256285 -0.360002
v -14.725577 7.256285 0.839004
v -14.535672 7.256285 2.038009
v -13.984550 7.256285 3.119648
v -13.115909 7.256286 3.988289
v -12.034060 7.256286 4.712737
v -10.866125 7.256286 4.897717
v -9.661063 7.256286 4.536580
v -8.564867 7.256286 3.978038
v -7.706475 7.256285 3.119642
v -7.155353 7.256285 2.038002
v -7.706478 7.475632 -1.441641
v -8.564872 7.475632 -2.300032
v -9.662211 7.475632 -2.859155
v -10.816737 7.475632 -3.218551
v -11.985877 7.475632 -3.033377
v -13.117662 7.475632 -2.308528
v -13.984550 7.475632 -1.441641
v -14.535672 7.475632 -0.360002
v -14.725577 7.475632 0.839004
v -14.535672 7.475632 2.038009
v -13.984550 7.475632 3.119648
v -13.115909 7.475633 3.988289
v -12.034060 7.475633 4.712737
v -10.866125 7.475633 4.897717
v -9.661063 7.475633 4.536580
v -8.564867 7.475633 3.978038
vn -0.0000 -1.0000 -0.0000
vn 0.9480 -0.0801 -0.3080
vn 0.9992 -0.0399 -0.0000
vn 0.9968 -0.0801 -0.0000
vn 0.8064 -0.0801 -0.5859
vn 0.9503 -0.0399 -0.3088
vn 0.5873 -0.0399 -0.8084
vn 0.8084 -0.0399 -0.5873
vn 0.5859 -0.0801 -0.8064
vn 0.3765 -0.0399 -0.9256
vn -0.0004 -0.0983 -0.9952
vn 0.3135 -0.0888 -0.9454
vn -0.3541 -0.0475 -0.9340
vn 0.0697 -0.0453 -0.9965
vn -0.3131 -0.0894 -0.9455
vn -0.6249 -0.0424 -0.7795
vn -0.8064 -0.0801 -0.5859
vn -0.5859 -0.0801 -0.8064
vn -0.9503 -0.0399 -0.3088
vn -0.8084 -0.0399 -0.5873
vn -0.9968 -0.0801 -0.0000
vn -0.9480 -0.0801 -0.3080
vn -0.9503 -0.0399 0.3088
vn -0.9992 -0.0399 -0.0000
vn -0.8064 -0.0801 0.5859
vn -0.9480 -0.0801 0.3080
vn -0.5898 -0.0877 0.8028
vn -0.8084 -0.0399 0.5873
vn -0.3080 -0.0977 0.9463
vn -0.6342 -0.0399 0.7722
vn 0.0059 -0.0901 0.9959
vn -0.3621 -0.0454 0.9310
vn 0.3695 -0.0432 0.9282
vn 0.0664 -0.0488 0.9966
vn 0.5859 -0.0801 0.8064
vn 0.3080 -0.0801 0.9480
vn 0.8064 -0.0801 0.5859
vn 0.5873 -0.0399 0.8084
vn 0.9480 -0.0801 0.3080
vn 0.8084 -0.0399 0.5873
vn 0.9503 -0.0399 0.3088
vn 1.0000 -0.0000 -0.0000
vn 0.9511 -0.0000 -0.3090
vn 0.8090 -0.0000 -0.5878
vn 0.5878 -0.0000 -0.8090
vn 0.3770 -0.0000 -0.9262
vn 0.0723 -0.0000 -0.9974
vn -0.3554 -0.0000 -0.9347
vn -0.6269 -0.0000 -0.7791
vn -0.8090 -0.0000 -0.5878
vn -0.9511 -0.0000 -0.3090
vn -1.0000 -0.0000 -0.0000
vn -0.9511 -0.0000 0.3090
vn -0.8090 -0.0000 0.5878
vn -0.6348 -0.0000 0.7727
vn -0.3649 -0.0000 0.9310
vn 0.0670 -0.0000 0.9978
vn 0.3720 -0.0000 0.9282
vn 0.5878 -0.0000 0.8090
vn 0.8090 -0.0000 0.5878
vn 0.9511 -0.0000 0.3090
vn 0.3090 -0.0000 0.9511
vn -0.0000 -0.0000 1.0000
vn -0.3090 -0.0000 0.9511
vn -0.5878 -0.0000 0.8090
vn -0.5878 -0.0000 -0.8090
vn -0.3090 -0.0000 -0.9511
vn -0.0000 -0.0000 -1.0000
vn 0.3090 -0.0000 -0.9511
vn -0.0000 1.0000 -0.0000
vt 0.409677 0.278549
vt 0.386284 0.131608
vt 0.441470 0.300737
vt 0.767051 0.509394
vt 0.781514 0.877425
vt 0.727827 0.515371
vt 0.805939 0.502632
vt 0.827932 0.870309
vt 0.921212 0.852883
vt 0.874492 0.862169
vt 0.844478 0.495002
vt 0.968065 0.842317
vt 0.125929 0.516531
vt 0.015224 0.868125
vt 0.087545 0.509340
vt 0.110134 0.885006
vt 0.062309 0.877582
vt 0.164857 0.522567
vt 0.163108 0.891187
vt 0.243559 0.531470
vt 0.204065 0.527474
vt 0.260081 0.899843
vt 0.211486 0.896076
vt 0.322821 0.536715
vt 0.283176 0.534558
vt 0.357735 0.903897
vt 0.308852 0.902463
vt 0.403065 0.538116
vt 0.362417 0.537913
vt 0.444702 0.537786
vt 0.405487 0.904116
vt 0.486011 0.536859
vt 0.452059 0.903716
vt 0.527116 0.535087
vt 0.501851 0.903103
vt 0.596283 0.897346
vt 0.548342 0.901082
vt 0.608258 0.529149
vt 0.567789 0.532453
vt 0.648423 0.525212
vt 0.642628 0.893543
vt 0.688281 0.520628
vt 0.688919 0.888977
vt 0.735196 0.883621
vt 0.148581 0.945208
vt 0.203695 0.904855
vt 0.196429 0.952724
vt 0.100811 0.937509
vt 0.156101 0.897379
vt 0.053095 0.929723
vt 0.108489 0.889709
vt 0.005408 0.921913
vt 0.060855 0.881943
vt 0.931995 0.998328
vt 0.980142 0.949929
vt 0.980138 0.998322
vt 0.883679 0.998348
vt 0.932002 0.949939
vt 0.830462 0.998359
vt 0.883709 0.949966
vt 0.782078 0.998309
vt 0.830561 0.949990
vt 0.733628 0.998073
vt 0.782335 0.949955
vt 0.685104 0.997475
vt 0.734177 0.949730
vt 0.636519 0.996327
vt 0.686101 0.949137
vt 0.587904 0.994476
vt 0.638109 0.947995
vt 0.539298 0.991832
vt 0.590192 0.946159
vt 0.487438 0.988153
vt 0.542340 0.943550
vt 0.438948 0.983907
vt 0.491243 0.939906
vt 0.388896 0.978748
vt 0.443498 0.935726
vt 0.340605 0.973063
vt 0.394147 0.930628
vt 0.292430 0.966764
vt 0.346495 0.925014
vt 0.244374 0.959948
vt 0.298878 0.918782
vt 0.251282 0.912026
vt 0.000528 0.426075
vt 0.013172 0.466821
vt 0.000500 0.466817
vt 0.000589 0.385343
vt 0.013208 0.426077
vt 0.000686 0.344618
vt 0.013264 0.385344
vt 0.000829 0.303897
vt 0.013353 0.344622
vt 0.001046 0.263167
vt 0.013467 0.303910
vt 0.001437 0.222390
vt 0.013581 0.263216
vt 0.002515 0.181579
vt 0.014049 0.222578
vt 0.004437 0.140811
vt 0.015285 0.181994
vt 0.006745 0.100091
vt 0.017189 0.141399
vt 0.009166 0.059398
vt 0.019463 0.100775
vt 0.037641 0.227760
vt 0.025000 0.187010
vt 0.037670 0.187014
vt 0.037570 0.268498
vt 0.024973 0.227754
vt 0.037422 0.309243
vt 0.024937 0.268482
vt 0.037071 0.350039
vt 0.024915 0.309184
vt 0.035855 0.390878
vt 0.024498 0.349810
vt 0.033428 0.431660
vt 0.023117 0.390343
vt 0.030159 0.472358
vt 0.020702 0.430842
vt 0.026337 0.512980
vt 0.017456 0.471324
vt 0.022228 0.553549
vt 0.013655 0.511803
vt 0.018026 0.594095
vt 0.009569 0.552296
vt 0.582574 0.519239
vt 0.556463 0.488553
vt 0.561253 0.486440
vt 0.435117 0.326640
vt 0.469946 0.346175
vt 0.432418 0.331066
vt 0.509929 0.344044
vt 0.471166 0.341251
vt 0.547871 0.335234
vt 0.510191 0.349094
vt 0.581920 0.316028
vt 0.549538 0.340022
vt 0.609606 0.288233
vt 0.584849 0.320219
vt 0.633771 0.256123
vt 0.613594 0.291520
vt 0.628992 0.254012
vt 0.643821 0.216547
vt 0.638603 0.215834
vt 0.642672 0.175703
vt 0.637464 0.176510
vt 0.630028 0.136890
vt 0.602769 0.107231
vt 0.625316 0.139186
vt 0.758040 0.304974
vt 0.723822 0.284402
vt 0.760872 0.300632
vt 0.722453 0.289282
vt 0.683691 0.280265
vt 0.683795 0.285317
vt 0.644087 0.288115
vt 0.610962 0.311070
vt 0.645600 0.292953
vt 0.582401 0.337954
vt 0.608171 0.306786
vt 0.561922 0.371520
vt 0.578521 0.334535
vt 0.550912 0.409316
vt 0.557186 0.369230
vt 0.545305 0.449269
vt 0.545721 0.408403
vt 0.550506 0.448666
vt 0.477412 0.314391
vt 0.439278 0.305600
vt 0.514611 0.308319
vt 0.477889 0.309484
vt 0.550250 0.298995
vt 0.515415 0.313102
vt 0.586421 0.284382
vt 0.552221 0.303528
vt 0.583162 0.280297
vt 0.612409 0.253168
vt 0.607739 0.250414
vt 0.626405 0.214943
vt 0.621335 0.213920
vt 0.628086 0.174537
vt 0.611986 0.137108
vt 0.622813 0.175181
vt 0.589521 0.103648
vt 0.616893 0.134824
vt 0.557922 0.079037
vt 0.593505 0.099934
vt 0.520304 0.065637
vt 0.560526 0.074279
vt 0.480417 0.064753
vt 0.521278 0.060312
vt 0.442315 0.076459
vt 0.479670 0.059398
vt 0.409854 0.099525
vt 0.439923 0.071614
vt 0.406062 0.095683
vt 0.368612 0.168551
vt 0.381486 0.129145
vt 0.373931 0.169388
vt 0.368679 0.209953
vt 0.373988 0.209102
vt 0.381559 0.249219
vt 0.386334 0.246771
vt 0.405927 0.282369
vt 0.298323 0.029949
vt 0.249064 0.051223
vt 0.248942 0.030076
vt 0.347696 0.030127
vt 0.298324 0.051108
vt 0.397055 0.030542
vt 0.347591 0.051294
vt 0.446397 0.031101
vt 0.396871 0.051712
vt 0.495557 0.031712
vt 0.446166 0.052268
vt 0.457950 0.023123
vt 0.506628 0.000500
vt 0.507259 0.021634
vt 0.403650 0.024713
vt 0.457339 0.002003
vt 0.354308 0.026026
vt 0.403085 0.003593
vt 0.304564 0.005974
vt 0.353820 0.004902
vt 0.255572 0.027887
vt 0.304947 0.027108
vt 0.206193 0.028338
vt 0.255310 0.006741
vt 0.156819 0.028484
vt 0.206053 0.007180
vt 0.107459 0.028390
vt 0.156786 0.007316
vt 0.054738 0.028143
vt 0.107504 0.007220
vt 0.005408 0.027854
vt 0.054829 0.006974
vt 0.051515 0.033382
vt 0.000989 0.055718
vt 0.000500 0.034579
vt 0.100846 0.032265
vt 0.051985 0.054507
vt 0.150196 0.031282
vt 0.101271 0.053387
vt 0.199563 0.030529
vt 0.150544 0.052408
vt 0.199807 0.051665
vt 0.894480 0.018854
vt 0.802093 0.016923
vt 0.848414 0.010316
vt 0.255693 0.068476
vt 0.206122 0.068840
vt 0.206364 0.059398
vt 0.292260 0.100238
vt 0.252455 0.077374
vt 0.332599 0.129687
vt 0.298141 0.092780
vt 0.356171 0.175259
vt 0.324826 0.134998
vt 0.357611 0.225513
vt 0.347531 0.178249
vt 0.359677 0.274546
vt 0.367636 0.225207
vt 0.332152 0.322016
vt 0.350900 0.271420
vt 0.290336 0.350364
vt 0.324980 0.316436
vt 0.296134 0.358426
vt 0.247844 0.371927
vt 0.250630 0.381062
vt 0.201021 0.378547
vt 0.200736 0.388026
vt 0.154726 0.369756
vt 0.151464 0.378614
vt 0.113665 0.346836
vt 0.073857 0.317760
vt 0.107905 0.354159
vt 0.056389 0.268075
vt 0.081083 0.312458
vt 0.047552 0.271167
vt 0.049721 0.222158
vt 0.052070 0.170751
vt 0.039765 0.221817
vt 0.083643 0.130521
vt 0.060689 0.173980
vt 0.075604 0.124609
vt 0.117415 0.096747
vt 0.111904 0.088971
vt 0.159560 0.075498
vt 0.156780 0.066468
vt 0.791752 0.000726
vt 0.745446 0.010008
vt 0.745313 0.001266
vt 0.838190 0.000500
vt 0.791830 0.009481
vt 0.884622 0.000519
vt 0.838220 0.009264
vt 0.931722 0.000685
vt 0.884617 0.009286
vt 0.977958 0.000904
vt 0.931695 0.009450
vt 0.882878 0.904872
vt 0.927627 0.893784
vt 0.928080 0.902511
vt 0.831548 0.907501
vt 0.882435 0.896160
vt 0.784712 0.909763
vt 0.831125 0.898789
vt 0.738317 0.911769
vt 0.784323 0.901047
vt 0.691907 0.913467
vt 0.737976 0.903043
vt 0.645485 0.914827
vt 0.691619 0.904728
vt 0.599058 0.915874
vt 0.645252 0.906075
vt 0.552078 0.916686
vt 0.598873 0.907112
vt 0.502291 0.917394
vt 0.551929 0.907920
vt 0.457078 0.917977
vt 0.502163 0.908629
vt 0.559024 0.006319
vt 0.511246 0.016708
vt 0.510948 0.007974
vt 0.606047 0.004743
vt 0.559312 0.015039
vt 0.652458 0.003324
vt 0.606315 0.013460
vt 0.698880 0.002141
vt 0.652692 0.012045
vt 0.699068 0.010871
vt 0.935674 0.041678
vt 0.760145 0.038071
vt 0.968060 0.076475
vt 0.726571 0.071788
vt 0.989270 0.119914
vt 0.703668 0.115571
vt 0.698798 0.208795
vt 0.692550 0.163502
vt 0.999500 0.167233
vt 0.723615 0.253288
vt 0.966753 0.257245
vt 0.992699 0.212425
vt 0.932084 0.291378
vt 0.756347 0.287760
vt 0.889759 0.312828
vt 0.797207 0.310671
vt 0.882653 0.486408
vt 0.013200 0.874152
vt 0.021829 0.060118
vt 0.005408 0.592813
vt 0.578601 0.522751
vt 0.606601 0.103571
vt 0.495307 0.052864
vt 0.005518 0.006701
vt 0.977924 0.009652
vt 0.456959 0.909229
vt 0.843236 0.319447
s 1
usemtl Materiais
f 1/1/1 3/2/1 4/3/1
f 6/4/2 8/5/3 5/6/4
f 9/7/5 7/8/6 6/4/2
f 9/7/5 12/9/7 10/10/8
f 11/11/9 14/12/10 12/9/7
f 15/13/11 14/14/10 13/15/12
f 15/13/11 18/16/13 16/17/14
f 17/18/15 20/19/16 18/16/13
f 21/20/17 20/19/16 19/21/18
f 21/20/17 24/22/19 22/23/20
f 25/24/21 24/22/19 23/25/22
f 25/24/21 28/26/23 26/27/24
f 29/28/25 28/26/23 27/29/26
f 31/30/27 30/31/28 29/28/25
f 33/32/29 32/33/30 31/30/27
f 35/34/31 34/35/32 33/32/29
f 35/34/31 38/36/33 36/37/34
f 39/38/35 38/36/33 37/39/36
f 41/40/37 40/41/38 39/38/35
f 43/42/39 42/43/40 41/40/37
f 5/6/4 44/44/41 43/42/39
f 7/45/6 46/46/42 8/47/3
f 10/48/8 45/49/43 7/45/6
f 12/50/7 47/51/44 10/48/8
f 14/52/10 48/53/45 12/50/7
f 16/54/14 49/55/46 14/56/10
f 18/57/13 50/58/47 16/54/14
f 20/59/16 51/60/48 18/57/13
f 22/61/20 52/62/49 20/59/16
f 24/63/19 53/64/50 22/61/20
f 26/65/24 54/66/51 24/63/19
f 28/67/23 55/68/52 26/65/24
f 30/69/28 56/70/53 28/67/23
f 32/71/30 57/72/54 30/69/28
f 34/73/32 58/74/55 32/71/30
f 36/75/34 59/76/56 34/73/32
f 38/77/33 60/78/57 36/75/34
f 40/79/38 61/80/58 38/77/33
f 42/81/40 62/82/59 40/79/38
f 44/83/41 63/84/60 42/81/40
f 8/47/3 64/85/61 44/83/41
f 66/86/42 68/87/43 65/88/43
f 69/89/61 67/90/42 66/86/42
f 71/91/60 70/92/61 69/89/61
f 73/93/59 72/94/60 71/91/60
f 75/95/62 74/96/59 73/93/59
f 77/97/63 76/98/62 75/95/62
f 79/99/64 78/100/63 77/97/63
f 81/101/65 80/102/64 79/99/64
f 83/103/54 82/104/65 81/101/65
f 85/105/53 84/106/54 83/103/54
f 87/107/52 86/108/53 85/109/53
f 89/110/51 88/111/52 87/107/52
f 91/112/50 90/113/51 89/110/51
f 93/114/66 92/115/50 91/112/50
f 95/116/67 94/117/66 93/114/66
f 97/118/68 96/119/67 95/116/67
f 99/120/69 98/121/68 97/118/68
f 101/122/45 100/123/69 99/120/69
f 103/124/44 102/125/45 101/122/45
f 65/126/43 104/127/44 103/124/44
f 5/128/70 65/129/70 6/130/70
f 5/131/70 69/132/70 66/133/70
f 41/134/70 69/132/70 43/135/70
f 39/136/70 71/137/70 41/134/70
f 37/138/70 73/139/70 39/136/70
f 35/140/70 75/141/70 37/138/70
f 35/140/70 79/142/70 77/143/70
f 33/144/70 81/145/70 79/142/70
f 31/146/70 83/147/70 81/145/70
f 29/148/70 85/149/70 83/147/70
f 25/150/70 85/149/70 27/151/70
f 25/152/70 89/153/70 87/154/70
f 23/155/70 91/156/70 89/153/70
f 21/157/70 93/158/70 91/156/70
f 17/159/70 93/158/70 19/160/70
f 15/161/70 95/162/70 17/159/70
f 13/163/70 97/164/70 15/161/70
f 11/165/70 99/166/70 13/163/70
f 11/165/70 103/167/70 101/168/70
f 9/169/70 65/129/70 103/167/70
f 4/3/1 68/170/1 67/171/1
f 106/172/1 68/170/1 105/173/1
f 107/174/1 104/175/1 106/172/1
f 107/174/1 100/176/1 102/177/1
f 108/178/1 98/179/1 100/176/1
f 109/180/1 96/181/1 98/179/1
f 110/182/1 94/183/1 96/181/1
f 112/184/1 94/183/1 111/185/1
f 113/186/1 92/187/1 112/184/1
f 114/188/1 90/189/1 113/186/1
f 115/190/1 88/191/1 114/188/1
f 116/192/1 86/193/1 115/190/1
f 117/194/1 84/195/1 116/192/1
f 118/196/1 82/197/1 117/194/1
f 3/2/1 80/198/1 118/196/1
f 3/2/1 76/199/1 78/200/1
f 2/201/1 74/202/1 76/199/1
f 119/203/1 72/204/1 74/202/1
f 120/205/1 70/206/1 72/204/1
f 4/3/1 70/206/1 1/1/1
f 112/184/1 110/182/1 113/186/1
f 113/186/1 109/180/1 114/188/1
f 114/188/1 108/178/1 115/190/1
f 116/192/1 108/178/1 107/174/1
f 116/192/1 106/172/1 117/194/1
f 118/196/1 106/172/1 105/173/1
f 118/196/1 4/3/1 3/2/1
f 120/205/1 2/201/1 1/1/1
f 122/207/43 124/208/42 121/209/42
f 125/210/44 123/211/43 122/207/43
f 127/212/45 126/213/44 125/210/44
f 129/214/46 128/215/45 127/212/45
f 131/216/47 130/217/46 129/214/46
f 133/218/48 132/219/47 131/220/47
f 135/221/49 134/222/48 133/218/48
f 137/223/50 136/224/49 135/221/49
f 137/223/50 140/225/51 138/226/50
f 141/227/52 140/225/51 139/228/51
f 143/229/53 142/230/52 141/227/52
f 145/231/54 144/232/53 143/229/53
f 147/233/55 146/234/54 145/231/54
f 149/235/56 148/236/55 147/233/55
f 151/237/57 150/238/56 149/235/56
f 153/239/58 152/240/57 151/241/57
f 155/242/59 154/243/58 153/239/58
f 157/244/60 156/245/59 155/242/59
f 159/246/61 158/247/60 157/244/60
f 121/209/42 160/248/61 159/246/61
f 161/249/70 163/250/70 164/251/70
f 123/252/70 166/253/70 124/254/70
f 123/252/70 167/255/70 165/256/70
f 128/257/70 167/255/70 126/258/70
f 130/259/70 168/260/70 128/257/70
f 130/259/70 170/261/70 169/262/70
f 134/263/70 170/261/70 132/264/70
f 136/265/70 171/266/70 134/263/70
f 136/265/70 173/267/70 172/268/70
f 138/269/70 174/270/70 173/267/70
f 140/271/70 175/272/70 174/270/70
f 142/273/70 176/274/70 175/272/70
f 144/275/70 177/276/70 176/274/70
f 148/277/70 177/276/70 146/278/70
f 148/277/70 179/279/70 178/280/70
f 150/281/70 180/282/70 179/279/70
f 154/283/70 180/282/70 152/284/70
f 154/283/70 182/285/70 181/286/70
f 156/287/70 183/288/70 182/285/70
f 158/289/70 184/290/70 183/288/70
f 160/291/70 166/253/70 184/290/70
f 165/292/43 164/293/42 166/294/42
f 167/295/44 161/296/43 165/292/43
f 168/297/45 185/298/44 167/295/44
f 169/299/46 186/300/45 168/297/45
f 170/301/47 187/302/46 169/299/46
f 171/303/48 188/304/47 170/305/47
f 172/306/49 189/307/48 171/303/48
f 173/308/50 190/309/49 172/306/49
f 174/310/51 191/311/50 173/308/50
f 175/312/52 192/313/51 174/310/51
f 176/314/53 193/315/52 175/312/52
f 177/316/54 194/317/53 176/314/53
f 178/318/55 195/319/54 177/316/54
f 179/320/56 196/321/55 178/318/55
f 180/322/57 197/323/56 179/320/56
f 181/324/58 198/325/57 180/326/57
f 182/327/59 199/328/58 181/324/58
f 183/329/60 200/330/59 182/327/59
f 184/331/61 162/332/60 183/329/60
f 166/294/42 163/333/61 184/331/61
f 185/334/70 162/335/70 161/249/70
f 186/336/70 200/337/70 185/334/70
f 187/338/70 199/339/70 186/336/70
f 187/338/70 197/340/70 198/341/70
f 188/342/70 196/343/70 197/340/70
f 190/344/70 196/343/70 189/345/70
f 191/346/70 195/347/70 190/344/70
f 192/348/70 194/349/70 191/346/70
f 1/1/1 2/201/1 3/2/1
f 6/4/2 7/8/6 8/5/3
f 9/7/5 10/10/8 7/8/6
f 9/7/5 11/11/9 12/9/7
f 11/11/9 13/350/12 14/12/10
f 15/13/11 16/17/14 14/14/10
f 15/13/11 17/18/15 18/16/13
f 17/18/15 19/21/18 20/19/16
f 21/20/17 22/23/20 20/19/16
f 21/20/17 23/25/22 24/22/19
f 25/24/21 26/27/24 24/22/19
f 25/24/21 27/29/26 28/26/23
f 29/28/25 30/31/28 28/26/23
f 31/30/27 32/33/30 30/31/28
f 33/32/29 34/35/32 32/33/30
f 35/34/31 36/37/34 34/35/32
f 35/34/31 37/39/36 38/36/33
f 39/38/35 40/41/38 38/36/33
f 41/40/37 42/43/40 40/41/38
f 43/42/39 44/44/41 42/43/40
f 5/6/4 8/5/3 44/44/41
f 7/45/6 45/49/43 46/46/42
f 10/48/8 47/51/44 45/49/43
f 12/50/7 48/53/45 47/51/44
f 14/52/10 49/351/46 48/53/45
f 16/54/14 50/58/47 49/55/46
f 18/57/13 51/60/48 50/58/47
f 20/59/16 52/62/49 51/60/48
f 22/61/20 53/64/50 52/62/49
f 24/63/19 54/66/51 53/64/50
f 26/65/24 55/68/52 54/66/51
f 28/67/23 56/70/53 55/68/52
f 30/69/28 57/72/54 56/70/53
f 32/71/30 58/74/55 57/72/54
f 34/73/32 59/76/56 58/74/55
f 36/75/34 60/78/57 59/76/56
f 38/77/33 61/80/58 60/78/57
f 40/79/38 62/82/59 61/80/58
f 42/81/40 63/84/60 62/82/59
f 44/83/41 64/85/61 63/84/60
f 8/47/3 46/46/42 64/85/61
f 66/86/42 67/90/42 68/87/43
f 69/89/61 70/92/61 67/90/42
f 71/91/60 72/94/60 70/92/61
f 73/93/59 74/96/59 72/94/60
f 75/95/62 76/98/62 74/96/59
f 77/97/63 78/100/63 76/98/62
f 79/99/64 80/102/64 78/100/63
f 81/101/65 82/104/65 80/102/64
f 83/103/54 84/106/54 82/104/65
f 85/105/53 86/352/53 84/106/54
f 87/107/52 88/111/52 86/108/53
f 89/110/51 90/113/51 88/111/52
f 91/112/50 92/115/50 90/113/51
f 93/114/66 94/117/66 92/115/50
f 95/116/67 96/119/67 94/117/66
f 97/118/68 98/121/68 96/119/67
f 99/120/69 100/123/69 98/121/68
f 101/122/45 102/125/45 100/123/69
f 103/124/44 104/127/44 102/125/45
f 65/126/43 68/353/43 104/127/44
f 5/128/70 66/354/70 65/129/70
f 5/131/70 43/135/70 69/132/70
f 41/134/70 71/137/70 69/132/70
f 39/136/70 73/139/70 71/137/70
f 37/138/70 75/141/70 73/139/70
f 35/140/70 77/143/70 75/141/70
f 35/140/70 33/144/70 79/142/70
f 33/144/70 31/146/70 81/145/70
f 31/146/70 29/148/70 83/147/70
f 29/148/70 27/151/70 85/149/70
f 25/150/70 87/355/70 85/149/70
f 25/152/70 23/155/70 89/153/70
f 23/155/70 21/157/70 91/156/70
f 21/157/70 19/160/70 93/158/70
f 17/159/70 95/162/70 93/158/70
f 15/161/70 97/164/70 95/162/70
f 13/163/70 99/166/70 97/164/70
f 11/165/70 101/168/70 99/166/70
f 11/165/70 9/169/70 103/167/70
f 9/169/70 6/130/70 65/129/70
f 4/3/1 105/173/1 68/170/1
f 106/172/1 104/175/1 68/170/1
f 107/174/1 102/177/1 104/175/1
f 107/174/1 108/178/1 100/176/1
f 108/178/1 109/180/1 98/179/1
f 109/180/1 110/182/1 96/181/1
f 110/182/1 111/185/1 94/183/1
f 112/184/1 92/187/1 94/183/1
f 113/186/1 90/189/1 92/187/1
f 114/188/1 88/191/1 90/189/1
f 115/190/1 86/193/1 88/191/1
f 116/192/1 84/195/1 86/193/1
f 117/194/1 82/197/1 84/195/1
f 118/196/1 80/198/1 82/197/1
f 3/2/1 78/200/1 80/198/1
f 3/2/1 2/201/1 76/199/1
f 2/201/1 119/203/1 74/202/1
f 119/203/1 120/205/1 72/204/1
f 120/205/1 1/1/1 70/206/1
f 4/3/1 67/171/1 70/206/1
f 112/184/1 111/185/1 110/182/1
f 113/186/1 110/182/1 109/180/1
f 114/188/1 109/180/1 108/178/1
f 116/192/1 115/190/1 108/178/1
f 116/192/1 107/174/1 106/172/1
f 118/196/1 117/194/1 106/172/1
f 118/196/1 105/173/1 4/3/1
f 120/205/1 119/203/1 2/201/1
f 122/207/43 123/211/43 124/208/42
f 125/210/44 126/213/44 123/211/43
f 127/212/45 128/215/45 126/213/44
f 129/214/46 130/217/46 128/215/45
f 131/216/47 132/356/47 130/217/46
f 133/218/48 134/222/48 132/219/47
f 135/221/49 136/224/49 134/222/48
f 137/223/50 138/226/50 136/224/49
f 137/223/50 139/228/51 140/225/51
f 141/227/52 142/230/52 140/225/51
f 143/229/53 144/232/53 142/230/52
f 145/231/54 146/234/54 144/232/53
f 147/233/55 148/236/55 146/234/54
f 149/235/56 150/238/56 148/236/55
f 151/237/57 152/357/57 150/238/56
f 153/239/58 154/243/58 152/240/57
f 155/242/59 156/245/59 154/243/58
f 157/244/60 158/247/60 156/245/59
f 159/246/61 160/248/61 158/247/60
f 121/209/42 124/208/42 160/248/61
f 161/249/70 162/335/70 163/250/70
f 123/252/70 165/256/70 166/253/70
f 123/252/70 126/258/70 167/255/70
f 128/257/70 168/260/70 167/255/70
f 130/259/70 169/262/70 168/260/70
f 130/259/70 132/264/70 170/261/70
f 134/263/70 171/266/70 170/261/70
f 136/265/70 172/268/70 171/266/70
f 136/265/70 138/269/70 173/267/70
f 138/269/70 140/271/70 174/270/70
f 140/271/70 142/273/70 175/272/70
f 142/273/70 144/275/70 176/274/70
f 144/275/70 146/278/70 177/276/70
f 148/277/70 178/280/70 177/276/70
f 148/277/70 150/281/70 179/279/70
f 150/281/70 152/284/70 180/282/70
f 154/283/70 181/286/70 180/282/70
f 154/283/70 156/287/70 182/285/70
f 156/287/70 158/289/70 183/288/70
f 158/289/70 160/291/70 184/290/70
f 160/291/70 124/254/70 166/253/70
f 165/292/43 161/296/43 164/293/42
f 167/295/44 185/298/44 161/296/43
f 168/297/45 186/300/45 185/298/44
f 169/299/46 187/302/46 186/300/45
f 170/301/47 188/358/47 187/302/46
f 171/303/48 189/307/48 188/304/47
f 172/306/49 190/309/49 189/307/48
f 173/308/50 191/311/50 190/309/49
f 174/310/51 192/313/51 191/311/50
f 175/312/52 193/315/52 192/313/51
f 176/314/53 194/317/53 193/315/52
f 177/316/54 195/319/54 194/317/53
f 178/318/55 196/321/55 195/319/54
f 179/320/56 197/323/56 196/321/55
f 180/322/57 198/359/57 197/323/56
f 181/324/58 199/328/58 198/325/57
f 182/327/59 200/330/59 199/328/58
f 183/329/60 162/332/60 200/330/59
f 184/331/61 163/333/61 162/332/60
f 166/294/42 164/293/42 163/333/61
f 185/334/70 200/337/70 162/335/70
f 186/336/70 199/339/70 200/337/70
f 187/338/70 198/341/70 199/339/70
f 187/338/70 188/342/70 197/340/70
f 188/342/70 189/345/70 196/343/70
f 190/344/70 195/347/70 196/343/70
f 191/346/70 194/349/70 195/347/70
f 192/348/70 193/360/70 194/349/70
