# Blender 5.1.2
# www.blender.org
mtllib banco.mtl
o Cube
v -3.144213 0.016104 0.167405
v -3.143873 0.041941 0.193241
v -3.169712 0.041939 0.167405
v -3.120755 1.813168 0.193241
v -3.120420 1.839004 0.167404
v -3.146594 1.813170 0.167404
v -3.144213 0.016104 -0.167404
v -3.169712 0.041939 -0.167404
v -3.143873 0.041941 -0.193241
v -3.120420 1.839004 -0.167404
v -3.120755 1.813168 -0.193241
v -3.146594 1.813170 -0.167404
v -2.456719 0.016104 0.167405
v -2.431220 0.041939 0.167405
v -2.457058 0.041941 0.193241
v -2.480511 1.839004 0.167404
v -2.480176 1.813168 0.193241
v -2.454338 1.813170 0.167404
v -2.456719 0.016104 -0.167404
v -2.457058 0.041941 -0.193241
v -2.431220 0.041939 -0.167404
v -2.480511 1.839004 -0.167404
v -2.454338 1.813170 -0.167404
v -2.480176 1.813168 -0.193241
v -3.144213 0.016104 -1.630869
v -3.144037 0.041941 -1.605033
v -3.169874 0.041940 -1.630869
v -3.120596 3.490575 -1.605033
v -3.055169 3.527356 -1.628437
v -3.121260 3.522943 -1.648374
v -3.146433 3.490576 -1.630870
v -3.144213 0.016104 -1.965678
v -3.169874 0.041940 -1.965678
v -3.144037 0.041940 -1.991514
v -3.121260 3.522943 -1.948175
v -3.055169 3.527356 -1.968111
v -3.120596 3.490575 -1.991515
v -3.146433 3.490576 -1.965678
v -2.456719 0.016104 -1.630869
v -2.431058 0.041940 -1.630869
v -2.456895 0.041941 -1.605033
v -2.479672 3.522943 -1.648374
v -2.545763 3.527356 -1.628437
v -2.480336 3.490575 -1.605033
v -2.454499 3.490576 -1.630870
v -2.456719 0.016104 -1.965678
v -2.456895 0.041940 -1.991514
v -2.431058 0.041940 -1.965678
v -2.545763 3.527356 -1.968111
v -2.479672 3.522943 -1.948175
v -2.454499 3.490576 -1.965678
v -2.480336 3.490575 -1.991515
v -2.871246 1.509060 -1.962776
v -2.871246 1.483223 -1.936939
v -2.897082 1.509060 -1.936939
v -2.871246 1.483223 0.258062
v -2.871246 1.509060 0.283898
v -2.897082 1.509060 0.258062
v -2.871246 1.742289 -1.962776
v -2.897082 1.742289 -1.936939
v -2.871246 1.768125 -1.936939
v -2.871246 1.742289 0.283898
v -2.871246 1.768125 0.258062
v -2.897082 1.742289 0.258062
v -2.729686 1.509060 -1.962776
v -2.703850 1.509060 -1.936939
v -2.729686 1.483223 -1.936939
v -2.729686 1.509060 0.283898
v -2.729686 1.483223 0.258062
v -2.703850 1.509060 0.258062
v -2.729686 1.742289 -1.962776
v -2.729686 1.768125 -1.936939
v -2.703850 1.742289 -1.936939
v -2.729686 1.742289 0.283898
v -2.703850 1.742289 0.258062
v -2.729686 1.768125 0.258062
v -2.871246 1.099338 -1.810902
v -2.871246 1.073502 -1.785066
v -2.897082 1.099338 -1.785066
v -2.871246 1.073502 0.106188
v -2.871246 1.099339 0.132025
v -2.897082 1.099339 0.106188
v -2.871246 1.332567 -1.810902
v -2.897082 1.332567 -1.785066
v -2.871246 1.358404 -1.785066
v -2.871246 1.332567 0.132025
v -2.871246 1.358404 0.106188
v -2.897082 1.332567 0.106188
v -2.729686 1.099338 -1.810902
v -2.703850 1.099338 -1.785066
v -2.729686 1.073502 -1.785066
v -2.729686 1.099339 0.132025
v -2.729686 1.073502 0.106188
v -2.703850 1.099339 0.106188
v -2.729686 1.332567 -1.810902
v -2.729686 1.358404 -1.785066
v -2.703850 1.332567 -1.785066
v -2.729686 1.332567 0.132025
v -2.703850 1.332567 0.106188
v -2.729686 1.358404 0.106188
v -2.871246 0.690832 -1.810902
v -2.871246 0.664996 -1.785065
v -2.897082 0.690832 -1.785065
v -2.871246 0.664996 0.106188
v -2.871246 0.690832 0.132025
v -2.897082 0.690832 0.106188
v -2.871246 0.924061 -1.810902
v -2.897082 0.924061 -1.785066
v -2.871246 0.949898 -1.785066
v -2.871246 0.924061 0.132025
v -2.871246 0.949898 0.106188
v -2.897082 0.924061 0.106188
v -2.729686 0.690832 -1.810902
v -2.703850 0.690832 -1.785065
v -2.729686 0.664996 -1.785065
v -2.729686 0.690832 0.132025
v -2.729686 0.664996 0.106188
v -2.703850 0.690832 0.106188
v -2.729686 0.924061 -1.810902
v -2.729686 0.949898 -1.785066
v -2.703850 0.924061 -1.785066
v -2.729686 0.924061 0.132025
v -2.703850 0.924061 0.106188
v -2.729686 0.949898 0.106188
v -4.117001 1.782573 -0.289013
v -4.091164 1.756736 -0.289013
v -4.091164 1.782573 -0.263177
v -4.117001 1.856746 -0.289013
v -4.091164 1.856746 -0.263177
v -4.091164 1.882583 -0.289013
v -4.117001 1.782573 -0.860019
v -4.091164 1.782573 -0.885855
v -4.091164 1.756736 -0.860019
v -4.117001 1.856746 -0.860019
v -4.091164 1.882583 -0.860019
v -4.091164 1.856746 -0.885855
v -4.117001 1.782573 -0.982664
v -4.091164 1.756736 -0.982664
v -4.091164 1.782573 -0.956828
v -4.117001 1.856746 -0.982664
v -4.091164 1.856746 -0.956828
v -4.091164 1.882583 -0.982664
v -4.117001 1.782573 -1.553670
v -4.091164 1.782573 -1.579506
v -4.091164 1.756736 -1.553670
v -4.117001 1.856746 -1.553670
v -4.091164 1.882583 -1.553670
v -4.091164 1.856746 -1.579506
v -4.105566 3.100410 -1.576105
v -4.079729 3.100410 -1.601942
v -4.079729 3.074573 -1.576105
v -4.105566 3.100410 -1.501932
v -4.079729 3.074573 -1.501932
v -4.079729 3.100410 -1.476095
v -4.105566 3.641917 -1.576105
v -4.079729 3.667754 -1.576105
v -4.079729 3.641917 -1.601942
v -4.105566 3.641917 -1.501932
v -4.079729 3.641917 -1.476095
v -4.079729 3.667754 -1.501932
v -4.105566 2.394028 -1.576105
v -4.079729 2.394028 -1.601941
v -4.079729 2.368192 -1.576105
v -4.105566 2.394028 -1.501932
v -4.079729 2.368192 -1.501932
v -4.079729 2.394028 -1.476095
v -4.105566 2.935536 -1.576105
v -4.079729 2.961373 -1.576105
v -4.079729 2.935536 -1.601942
v -4.105566 2.935536 -1.501932
v -4.079729 2.935536 -1.476095
v -4.079729 2.961373 -1.501932
v -4.117001 1.782573 0.405832
v -4.091164 1.756737 0.405832
v -4.091164 1.782573 0.431669
v -4.117001 1.856746 0.405832
v -4.091164 1.856746 0.431669
v -4.091164 1.882583 0.405832
v -4.117001 1.782573 -0.165174
v -4.091164 1.782573 -0.191010
v -4.091164 1.756736 -0.165174
v -4.117001 1.856746 -0.165174
v -4.091164 1.882583 -0.165174
v -4.091164 1.856746 -0.191010
v -3.044485 3.543007 -1.691278
v -3.012160 3.538595 -1.652473
v -2.993651 3.549539 -1.701713
v -3.044485 3.543007 -1.905270
v -2.993651 3.549539 -1.894835
v -3.012160 3.538595 -1.944076
v -2.588772 3.538595 -1.944076
v -2.607280 3.549539 -1.894835
v -2.556447 3.543007 -1.905270
v -2.556447 3.543007 -1.691278
v -2.607280 3.549539 -1.701713
v -2.588772 3.538595 -1.652473
v 3.144213 0.016104 0.167405
v 3.143873 0.041941 0.193241
v 3.169712 0.041939 0.167405
v 3.120755 1.813168 0.193241
v 3.120420 1.839004 0.167404
v 3.146594 1.813170 0.167404
v 3.144213 0.016104 -0.167404
v 3.169712 0.041939 -0.167404
v 3.143873 0.041941 -0.193241
v 3.120420 1.839004 -0.167404
v 3.120755 1.813168 -0.193241
v 3.146594 1.813170 -0.167404
v 2.456719 0.016104 0.167405
v 2.431220 0.041939 0.167405
v 2.457058 0.041941 0.193241
v 2.480511 1.839004 0.167404
v 2.480176 1.813168 0.193241
v 2.454338 1.813170 0.167404
v 2.456719 0.016104 -0.167404
v 2.457058 0.041941 -0.193241
v 2.431220 0.041939 -0.167404
v 2.480511 1.839004 -0.167404
v 2.454338 1.813170 -0.167404
v 2.480176 1.813168 -0.193241
v 3.144213 0.016104 -1.630869
v 3.144037 0.041941 -1.605033
v 3.169874 0.041940 -1.630869
v 3.120596 3.490575 -1.605033
v 3.055169 3.527356 -1.628437
v 3.121260 3.522943 -1.648374
v 3.146433 3.490576 -1.630870
v 3.144213 0.016104 -1.965678
v 3.169874 0.041940 -1.965678
v 3.144037 0.041940 -1.991514
v 3.121260 3.522943 -1.948175
v 3.055169 3.527356 -1.968111
v 3.120596 3.490575 -1.991515
v 3.146433 3.490576 -1.965678
v 2.456719 0.016104 -1.630869
v 2.431058 0.041940 -1.630869
v 2.456895 0.041941 -1.605033
v 2.479672 3.522943 -1.648374
v 2.545763 3.527356 -1.628437
v 2.480336 3.490575 -1.605033
v 2.454499 3.490576 -1.630870
v 2.456719 0.016104 -1.965678
v 2.456895 0.041940 -1.991514
v 2.431058 0.041940 -1.965678
v 2.545763 3.527356 -1.968111
v 2.479672 3.522943 -1.948175
v 2.454499 3.490576 -1.965678
v 2.480336 3.490575 -1.991515
v 2.871246 1.509060 -1.962776
v 2.871246 1.483223 -1.936939
v 2.897082 1.509060 -1.936939
v 2.871246 1.483223 0.258062
v 2.871246 1.509060 0.283898
v 2.897082 1.509060 0.258062
v 2.871246 1.742289 -1.962776
v 2.897082 1.742289 -1.936939
v 2.871246 1.768125 -1.936939
v 2.871246 1.742289 0.283898
v 2.871246 1.768125 0.258062
v 2.897082 1.742289 0.258062
v 2.729686 1.509060 -1.962776
v 2.703850 1.509060 -1.936939
v 2.729686 1.483223 -1.936939
v 2.729686 1.509060 0.283898
v 2.729686 1.483223 0.258062
v 2.703850 1.509060 0.258062
v 2.729686 1.742289 -1.962776
v 2.729686 1.768125 -1.936939
v 2.703850 1.742289 -1.936939
v 2.729686 1.742289 0.283898
v 2.703850 1.742289 0.258062
v 2.729686 1.768125 0.258062
v 2.871246 1.099338 -1.810902
v 2.871246 1.073502 -1.785066
v 2.897082 1.099338 -1.785066
v 2.871246 1.073502 0.106188
v 2.871246 1.099339 0.132025
v 2.897082 1.099339 0.106188
v 2.871246 1.332567 -1.810902
v 2.897082 1.332567 -1.785066
v 2.871246 1.358404 -1.785066
v 2.871246 1.332567 0.132025
v 2.871246 1.358404 0.106188
v 2.897082 1.332567 0.106188
v 2.729686 1.099338 -1.810902
v 2.703850 1.099338 -1.785066
v 2.729686 1.073502 -1.785066
v 2.729686 1.099339 0.132025
v 2.729686 1.073502 0.106188
v 2.703850 1.099339 0.106188
v 2.729686 1.332567 -1.810902
v 2.729686 1.358404 -1.785066
v 2.703850 1.332567 -1.785066
v 2.729686 1.332567 0.132025
v 2.703850 1.332567 0.106188
v 2.729686 1.358404 0.106188
v 2.871246 0.690832 -1.810902
v 2.871246 0.664996 -1.785065
v 2.897082 0.690832 -1.785065
v 2.871246 0.664996 0.106188
v 2.871246 0.690832 0.132025
v 2.897082 0.690832 0.106188
v 2.871246 0.924061 -1.810902
v 2.897082 0.924061 -1.785066
v 2.871246 0.949898 -1.785066
v 2.871246 0.924061 0.132025
v 2.871246 0.949898 0.106188
v 2.897082 0.924061 0.106188
v 2.729686 0.690832 -1.810902
v 2.703850 0.690832 -1.785065
v 2.729686 0.664996 -1.785065
v 2.729686 0.690832 0.132025
v 2.729686 0.664996 0.106188
v 2.703850 0.690832 0.106188
v 2.729686 0.924061 -1.810902
v 2.729686 0.949898 -1.785066
v 2.703850 0.924061 -1.785066
v 2.729686 0.924061 0.132025
v 2.703850 0.924061 0.106188
v 2.729686 0.949898 0.106188
v 4.117001 1.782573 -0.289013
v 4.091164 1.756736 -0.289013
v 4.091164 1.782573 -0.263177
v 0.000000 1.756736 -0.289013
v 0.000000 1.782573 -0.289013
v 0.000000 1.782573 -0.263177
v 4.117001 1.856746 -0.289013
v 4.091164 1.856746 -0.263177
v 4.091164 1.882583 -0.289013
v 0.000000 1.856746 -0.289013
v 0.000000 1.882583 -0.289013
v 0.000000 1.856746 -0.263177
v 4.117001 1.782573 -0.860019
v 4.091164 1.782573 -0.885855
v 4.091164 1.756736 -0.860019
v 0.000000 1.782573 -0.860019
v 0.000000 1.756736 -0.860019
v 0.000000 1.782573 -0.885855
v 4.117001 1.856746 -0.860019
v 4.091164 1.882583 -0.860019
v 4.091164 1.856746 -0.885855
v 0.000000 1.856746 -0.860019
v 0.000000 1.856746 -0.885855
v 0.000000 1.882583 -0.860019
v 4.117001 1.782573 -0.982664
v 4.091164 1.756736 -0.982664
v 4.091164 1.782573 -0.956828
v 0.000000 1.756736 -0.982664
v 0.000000 1.782573 -0.982664
v 0.000000 1.782573 -0.956828
v 4.117001 1.856746 -0.982664
v 4.091164 1.856746 -0.956828
v 4.091164 1.882583 -0.982664
v 0.000000 1.856746 -0.982664
v 0.000000 1.882583 -0.982664
v 0.000000 1.856746 -0.956828
v 4.117001 1.782573 -1.553670
v 4.091164 1.782573 -1.579506
v 4.091164 1.756736 -1.553670
v 0.000000 1.782573 -1.553670
v 0.000000 1.756736 -1.553670
v 0.000000 1.782573 -1.579506
v 4.117001 1.856746 -1.553670
v 4.091164 1.882583 -1.553670
v 4.091164 1.856746 -1.579506
v 0.000000 1.856746 -1.553670
v 0.000000 1.856746 -1.579506
v 0.000000 1.882582 -1.553670
v 4.105566 3.100410 -1.576105
v 4.079729 3.100410 -1.601942
v 4.079729 3.074573 -1.576105
v 0.000000 3.100410 -1.601942
v 0.000000 3.100410 -1.576105
v 0.000000 3.074573 -1.576105
v 4.105566 3.100410 -1.501932
v 4.079729 3.074573 -1.501932
v 4.079729 3.100410 -1.476095
v 0.000000 3.100410 -1.501932
v 0.000000 3.100410 -1.476095
v 0.000000 3.074573 -1.501932
v 4.105566 3.641917 -1.576105
v 4.079729 3.667754 -1.576105
v 4.079729 3.641917 -1.601942
v 0.000000 3.641917 -1.576105
v 0.000000 3.641917 -1.601942
v 0.000000 3.667754 -1.576105
v 4.105566 3.641917 -1.501932
v 4.079729 3.641917 -1.476095
v 4.079729 3.667754 -1.501932
v 0.000000 3.641917 -1.501932
v 0.000000 3.667754 -1.501932
v 0.000000 3.641917 -1.476095
v 4.105566 2.394028 -1.576105
v 4.079729 2.394028 -1.601941
v 4.079729 2.368192 -1.576105
v 0.000000 2.394028 -1.601942
v 0.000000 2.394028 -1.576105
v 0.000000 2.368192 -1.576105
v 4.105566 2.394028 -1.501932
v 4.079729 2.368192 -1.501932
v 4.079729 2.394028 -1.476095
v 0.000000 2.394028 -1.501932
v 0.000000 2.394028 -1.476095
v 0.000000 2.368192 -1.501932
v 4.105566 2.935536 -1.576105
v 4.079729 2.961373 -1.576105
v 4.079729 2.935536 -1.601942
v 0.000000 2.935536 -1.576105
v 0.000000 2.935536 -1.601942
v 0.000000 2.961373 -1.576105
v 4.105566 2.935536 -1.501932
v 4.079729 2.935536 -1.476095
v 4.079729 2.961373 -1.501932
v 0.000000 2.935536 -1.501932
v 0.000000 2.961373 -1.501932
v 0.000000 2.935536 -1.476095
v 4.117001 1.782573 0.405832
v 4.091164 1.756737 0.405832
v 4.091164 1.782573 0.431669
v 0.000000 1.756736 0.405832
v 0.000000 1.782573 0.405832
v 0.000000 1.782573 0.431669
v 4.117001 1.856746 0.405832
v 4.091164 1.856746 0.431669
v 4.091164 1.882583 0.405832
v 0.000000 1.856746 0.405832
v 0.000000 1.882583 0.405832
v 0.000000 1.856746 0.431669
v 4.117001 1.782573 -0.165174
v 4.091164 1.782573 -0.191010
v 4.091164 1.756736 -0.165174
v 0.000000 1.782573 -0.165174
v 0.000000 1.756736 -0.165174
v 0.000000 1.782573 -0.191010
v 4.117001 1.856746 -0.165174
v 4.091164 1.882583 -0.165174
v 4.091164 1.856746 -0.191010
v 0.000000 1.856746 -0.165174
v 0.000000 1.856746 -0.191010
v 0.000000 1.882583 -0.165174
v 3.044485 3.543007 -1.691278
v 3.012160 3.538595 -1.652473
v 2.993651 3.549539 -1.701713
v 3.044485 3.543007 -1.905270
v 2.993651 3.549539 -1.894835
v 3.012160 3.538595 -1.944076
v 2.588772 3.538595 -1.944076
v 2.607280 3.549539 -1.894835
v 2.556447 3.543007 -1.905270
v 2.556447 3.543007 -1.691278
v 2.607280 3.549539 -1.701713
v 2.588772 3.538595 -1.652473
vn -0.0000 -0.0000 1.0000
vn 0.9999 0.0131 -0.0000
vn -0.0000 -1.0000 -0.0000
vn -0.0000 1.0000 -0.0000
vn -0.9999 0.0131 -0.0000
vn -0.0000 -0.0000 -1.0000
vn -0.0000 0.9059 -0.4236
vn 0.2528 0.9675 -0.0000
vn -0.2528 0.9675 -0.0000
vn -1.0000 0.0068 -0.0000
vn -0.0000 0.9059 0.4236
vn 1.0000 -0.0000 -0.0000
vn -1.0000 -0.0000 -0.0000
vn 1.0000 0.0068 -0.0000
vn -0.5798 -0.5723 0.5799
vn -0.5748 0.5823 0.5749
vn -0.5798 -0.5723 -0.5799
vn -0.5748 0.5823 -0.5749
vn 0.5798 -0.5723 0.5799
vn 0.5748 0.5823 0.5749
vn 0.5798 -0.5723 -0.5799
vn 0.5748 0.5823 -0.5749
vn -0.5786 -0.5747 0.5787
vn -0.3201 0.7567 0.5700
vn -0.5786 -0.5747 -0.5787
vn -0.3201 0.7567 -0.5700
vn 0.5786 -0.5747 0.5787
vn 0.3201 0.7567 0.5700
vn 0.5786 -0.5747 -0.5787
vn 0.3201 0.7567 -0.5700
vn -0.5773 -0.5773 -0.5774
vn -0.5773 -0.5773 0.5774
vn -0.5774 0.5773 -0.5774
vn -0.5773 0.5773 0.5774
vn 0.5773 -0.5773 -0.5774
vn 0.5773 -0.5773 0.5774
vn 0.5774 0.5773 -0.5774
vn 0.5773 0.5773 0.5774
vn -0.5773 -0.5774 -0.5774
vn -0.5774 -0.5774 0.5773
vn -0.5773 0.5774 -0.5774
vn 0.5773 -0.5774 -0.5774
vn 0.5773 0.5774 -0.5774
vn -0.5774 0.5774 0.5773
vn -0.5774 -0.5774 -0.5773
vn -0.5774 0.5774 -0.5773
vn -0.5773 0.5773 -0.5774
vn -0.0879 0.9789 0.1845
vn -0.0879 0.9789 -0.1845
vn 0.0879 0.9789 -0.1845
vn 0.0879 0.9789 0.1845
vn -0.7117 -0.7025 -0.0000
vn -0.7070 0.0092 0.7071
vn -0.7025 0.7117 -0.0000
vn -0.7070 0.0092 -0.7071
vn -0.0000 -0.7071 -0.7071
vn -0.0000 0.7071 -0.7071
vn 0.7070 0.0092 -0.7071
vn 0.7117 -0.7025 -0.0000
vn 0.7025 0.7117 -0.0000
vn 0.7070 0.0092 0.7071
vn -0.0000 -0.7071 0.7071
vn -0.0000 0.7071 0.7071
vn -0.7095 -0.7047 -0.0000
vn -0.7071 0.0048 0.7071
vn -0.7894 0.6139 -0.0000
vn -0.7071 0.0048 -0.7071
vn -0.0000 0.5368 -0.8437
vn 0.7071 0.0048 -0.7071
vn 0.7095 -0.7047 -0.0000
vn 0.7894 0.6139 -0.0000
vn 0.7071 0.0048 0.7071
vn -0.0000 0.5368 0.8437
vn -0.7071 -0.0000 -0.7071
vn -0.7071 -0.7071 -0.0000
vn -0.7071 -0.0000 0.7071
vn -0.7071 0.7071 -0.0000
vn 0.7071 0.7071 -0.0000
vn 0.7071 -0.0000 -0.7071
vn 0.7071 -0.0000 0.7071
vn 0.7071 -0.7071 -0.0000
vn -0.1275 0.9918 -0.0000
vn -0.0000 0.9762 -0.2170
vn 0.1275 0.9918 -0.0000
vn -0.0000 0.9762 0.2170
vn -0.1305 0.9670 0.2187
vn -0.1305 0.9670 -0.2187
vn 0.1305 0.9670 0.2187
vn 0.1305 0.9670 -0.2187
vn 0.5774 -0.5774 0.5773
vn 0.5774 0.5774 0.5773
vn 0.5774 -0.5774 -0.5773
vn 0.5774 0.5774 -0.5773
vn 0.5773 0.5773 -0.5774
vt 0.571309 0.940256
vt 0.571309 0.940256
vt 0.571309 0.940256
vt 0.571309 0.940256
vt 0.571309 0.940256
vt 0.655020 0.565108
vt 0.655020 0.565108
vt 0.655020 0.565108
vt 0.655020 0.565108
vt 0.655020 0.565108
vt 0.655020 0.565108
vt 0.655020 0.565108
vt 0.655020 0.565108
vt 0.655020 0.565108
s 1
usemtl Material.001
f 15/1/1 17/2/1 4/2/1 2/1/1
f 21/2/2 23/2/2 18/3/2 14/3/2
f 32/3/3 46/3/3 39/3/3 25/3/3
f 22/1/4 10/2/4 5/2/4 16/4/4
f 3/2/5 6/2/5 12/3/5 8/3/5
f 9/1/6 11/2/6 24/2/6 20/1/6
f 41/4/1 44/3/1 28/2/1 26/4/1
f 49/2/7 36/2/7 190/2/7 191/2/7
f 42/1/8 50/1/8 193/3/8 194/2/8
f 35/4/9 30/2/9 185/2/9 188/2/9
f 27/3/10 31/3/10 38/3/10 33/3/10
f 29/2/11 43/2/11 196/2/11 186/2/11
f 67/2/3 69/2/3 56/2/3 54/2/3
f 73/2/12 75/2/12 70/2/12 66/5/12
f 83/5/6 95/5/6 89/5/6 77/4/6
f 74/3/1 62/3/1 57/5/1 68/2/1
f 55/5/13 58/2/13 64/2/13 60/3/13
f 61/2/4 63/2/4 76/2/4 72/2/4
f 91/4/3 93/2/3 80/2/3 78/4/3
f 97/5/12 99/5/12 94/2/12 90/5/12
f 107/2/6 119/5/6 113/5/6 101/1/6
f 98/5/1 86/5/1 81/5/1 92/4/1
f 79/5/13 82/2/13 88/5/13 84/5/13
f 85/4/4 87/2/4 100/2/4 96/4/4
f 115/4/3 117/2/3 104/2/3 102/4/3
f 121/1/12 123/4/12 118/5/12 114/5/12
f 128/6/13 134/7/13 131/7/13 125/6/13
f 122/2/1 110/5/1 105/5/1 116/1/1
f 103/5/13 106/5/13 112/2/13 108/2/13
f 109/4/4 111/2/4 124/2/4 120/4/4
f 133/8/3 337/6/3 324/9/3 126/8/3
f 136/6/6 343/6/6 338/10/6 132/8/6
f 140/7/13 146/7/13 143/7/13 137/7/13
f 127/11/1 326/6/1 332/10/1 129/6/1
f 130/8/4 331/6/4 344/6/4 135/12/4
f 145/8/3 361/6/3 348/6/3 138/12/3
f 148/6/6 367/6/6 362/10/6 144/8/6
f 152/6/13 158/6/13 155/12/13 149/6/13
f 139/11/1 350/6/1 356/10/1 141/6/1
f 142/8/4 355/6/4 368/6/4 147/12/4
f 157/6/6 385/12/6 372/12/6 150/6/6
f 160/13/4 391/6/4 386/6/4 156/8/4
f 164/6/13 170/6/13 167/12/13 161/6/13
f 151/13/3 374/13/3 380/6/3 153/8/3
f 154/6/1 379/12/1 392/12/1 159/6/1
f 169/6/6 409/12/6 396/12/6 162/6/6
f 172/13/4 415/6/4 410/6/4 168/8/4
f 176/6/13 182/6/13 179/7/13 173/6/13
f 163/13/3 398/13/3 404/6/3 165/8/3
f 166/6/1 403/12/1 416/12/1 171/6/1
f 181/8/3 433/6/3 420/9/3 174/8/3
f 184/6/6 439/6/6 434/10/6 180/8/6
f 192/1/4 189/1/4 187/5/4 195/5/4
f 175/11/1 422/6/1 428/10/1 177/6/1
f 178/8/4 427/6/4 440/9/4 183/8/4
f 34/4/6 37/3/6 52/2/6 47/4/6
f 48/3/14 51/3/14 45/3/14 40/3/14
f 59/3/6 71/3/6 65/5/6 53/2/6
f 1/3/15 2/1/15 3/2/15
f 4/2/16 5/2/16 6/2/16
f 7/3/17 8/3/17 9/1/17
f 10/2/18 11/2/18 12/3/18
f 13/3/19 14/3/19 15/1/19
f 16/4/20 17/2/20 18/3/20
f 19/3/21 20/1/21 21/2/21
f 22/1/22 23/2/22 24/2/22
f 25/3/23 26/4/23 27/3/23
f 28/2/24 29/2/24 30/2/24 31/3/24
f 32/3/25 33/3/25 34/4/25
f 35/4/26 36/2/26 37/3/26 38/3/26
f 39/3/27 40/3/27 41/4/27
f 42/1/28 43/2/28 44/3/28 45/3/28
f 46/3/29 47/4/29 48/3/29
f 49/2/30 50/1/30 51/3/30 52/2/30
f 53/2/31 54/2/31 55/5/31
f 56/2/32 57/5/32 58/2/32
f 59/3/33 60/3/33 61/2/33
f 62/3/34 63/2/34 64/2/34
f 65/5/35 66/5/35 67/2/35
f 68/2/36 69/2/36 70/2/36
f 71/3/37 72/2/37 73/2/37
f 74/3/38 75/2/38 76/2/38
f 77/4/39 78/4/39 79/5/39
f 80/2/40 81/5/40 82/2/40
f 83/5/41 84/5/41 85/4/41
f 86/5/34 87/2/34 88/5/34
f 89/5/42 90/5/42 91/4/42
f 92/4/36 93/2/36 94/2/36
f 95/5/43 96/4/43 97/5/43
f 98/5/38 99/5/38 100/2/38
f 101/1/39 102/4/39 103/5/39
f 104/2/32 105/5/32 106/5/32
f 107/2/41 108/2/41 109/4/41
f 110/5/34 111/2/34 112/2/34
f 113/5/42 114/5/42 115/4/42
f 116/1/36 117/2/36 118/5/36
f 119/5/43 120/4/43 121/1/43
f 122/2/38 123/4/38 124/2/38
f 125/6/40 126/8/40 127/11/40
f 128/6/44 129/6/44 130/8/44
f 131/7/45 132/8/45 133/8/45
f 134/7/46 135/12/46 136/6/46
f 137/7/40 138/12/40 139/11/40
f 140/7/44 141/6/44 142/8/44
f 143/7/45 144/8/45 145/8/45
f 146/7/46 147/12/46 148/6/46
f 149/6/31 150/6/31 151/13/31
f 152/6/32 153/8/32 154/6/32
f 155/12/47 156/8/47 157/6/47
f 158/6/34 159/6/34 160/13/34
f 161/6/31 162/6/31 163/13/31
f 164/6/32 165/8/32 166/6/32
f 167/12/47 168/8/47 169/6/47
f 170/6/34 171/6/34 172/13/34
f 173/6/40 174/8/40 175/11/40
f 176/6/44 177/6/44 178/8/44
f 179/7/45 180/8/45 181/8/45
f 182/6/46 183/8/46 184/6/46
f 185/2/48 186/2/48 187/5/48
f 188/2/49 189/1/49 190/2/49
f 191/2/50 192/1/50 193/3/50
f 194/2/51 195/5/51 196/2/51
f 7/3/52 1/3/52 3/2/52 8/3/52
f 2/1/53 4/2/53 6/2/53 3/2/53
f 5/2/54 10/2/54 12/3/54 6/2/54
f 11/2/55 9/1/55 8/3/55 12/3/55
f 19/3/56 7/3/56 9/1/56 20/1/56
f 10/2/57 22/1/57 24/2/57 11/2/57
f 23/2/58 21/2/58 20/1/58 24/2/58
f 13/3/59 19/3/59 21/2/59 14/3/59
f 22/1/60 16/4/60 18/3/60 23/2/60
f 17/2/61 15/1/61 14/3/61 18/3/61
f 1/3/62 13/3/62 15/1/62 2/1/62
f 16/4/63 5/2/63 4/2/63 17/2/63
f 32/3/64 25/3/64 27/3/64 33/3/64
f 26/4/65 28/2/65 31/3/65 27/3/65
f 30/2/66 35/4/66 38/3/66 31/3/66
f 37/3/67 34/4/67 33/3/67 38/3/67
f 46/3/56 32/3/56 34/4/56 47/4/56
f 36/2/68 49/2/68 52/2/68 37/3/68
f 51/3/69 48/3/69 47/4/69 52/2/69
f 39/3/70 46/3/70 48/3/70 40/3/70
f 50/1/71 42/1/71 45/3/71 51/3/71
f 44/3/72 41/4/72 40/3/72 45/3/72
f 25/3/62 39/3/62 41/4/62 26/4/62
f 43/2/73 29/2/73 28/2/73 44/3/73
f 59/3/74 53/2/74 55/5/74 60/3/74
f 54/2/75 56/2/75 58/2/75 55/5/75
f 57/5/76 62/3/76 64/2/76 58/2/76
f 63/2/77 61/2/77 60/3/77 64/2/77
f 71/3/57 59/3/57 61/2/57 72/2/57
f 62/3/63 74/3/63 76/2/63 63/2/63
f 75/2/78 73/2/78 72/2/78 76/2/78
f 65/5/79 71/3/79 73/2/79 66/5/79
f 74/3/80 68/2/80 70/2/80 75/2/80
f 69/2/81 67/2/81 66/5/81 70/2/81
f 53/2/56 65/5/56 67/2/56 54/2/56
f 68/2/62 57/5/62 56/2/62 69/2/62
f 83/5/74 77/4/74 79/5/74 84/5/74
f 78/4/75 80/2/75 82/2/75 79/5/75
f 81/5/76 86/5/76 88/5/76 82/2/76
f 87/2/77 85/4/77 84/5/77 88/5/77
f 95/5/57 83/5/57 85/4/57 96/4/57
f 86/5/63 98/5/63 100/2/63 87/2/63
f 99/5/78 97/5/78 96/4/78 100/2/78
f 89/5/79 95/5/79 97/5/79 90/5/79
f 98/5/80 92/4/80 94/2/80 99/5/80
f 93/2/81 91/4/81 90/5/81 94/2/81
f 77/4/56 89/5/56 91/4/56 78/4/56
f 92/4/62 81/5/62 80/2/62 93/2/62
f 107/2/74 101/1/74 103/5/74 108/2/74
f 102/4/75 104/2/75 106/5/75 103/5/75
f 105/5/76 110/5/76 112/2/76 106/5/76
f 111/2/77 109/4/77 108/2/77 112/2/77
f 119/5/57 107/2/57 109/4/57 120/4/57
f 110/5/63 122/2/63 124/2/63 111/2/63
f 123/4/78 121/1/78 120/4/78 124/2/78
f 113/5/79 119/5/79 121/1/79 114/5/79
f 122/2/80 116/1/80 118/5/80 123/4/80
f 117/2/81 115/4/81 114/5/81 118/5/81
f 101/1/56 113/5/56 115/4/56 102/4/56
f 116/1/62 105/5/62 104/2/62 117/2/62
f 128/6/76 125/6/76 127/11/76 129/6/76
f 126/8/62 324/9/62 326/6/62 127/11/62
f 331/6/63 130/8/63 129/6/63 332/10/63
f 134/7/77 128/6/77 130/8/77 135/12/77
f 343/6/57 136/6/57 135/12/57 344/6/57
f 131/7/74 134/7/74 136/6/74 132/8/74
f 337/6/56 133/8/56 132/8/56 338/10/56
f 125/6/75 131/7/75 133/8/75 126/8/75
f 140/7/76 137/7/76 139/11/76 141/6/76
f 138/12/62 348/6/62 350/6/62 139/11/62
f 355/6/63 142/8/63 141/6/63 356/10/63
f 146/7/77 140/7/77 142/8/77 147/12/77
f 367/6/57 148/6/57 147/12/57 368/6/57
f 143/7/74 146/7/74 148/6/74 144/8/74
f 361/6/56 145/8/56 144/8/56 362/10/56
f 137/7/75 143/7/75 145/8/75 138/12/75
f 152/6/75 149/6/75 151/13/75 153/8/75
f 150/6/56 372/12/56 374/13/56 151/13/56
f 379/12/62 154/6/62 153/8/62 380/6/62
f 158/6/76 152/6/76 154/6/76 159/6/76
f 391/6/63 160/13/63 159/6/63 392/12/63
f 155/12/77 158/6/77 160/13/77 156/8/77
f 385/12/57 157/6/57 156/8/57 386/6/57
f 149/6/74 155/12/74 157/6/74 150/6/74
f 164/6/75 161/6/75 163/13/75 165/8/75
f 162/6/56 396/12/56 398/13/56 163/13/56
f 403/12/62 166/6/62 165/8/62 404/6/62
f 170/6/76 164/6/76 166/6/76 171/6/76
f 415/6/63 172/13/63 171/6/63 416/12/63
f 167/12/77 170/6/77 172/13/77 168/8/77
f 409/12/57 169/6/57 168/8/57 410/6/57
f 161/6/74 167/12/74 169/6/74 162/6/74
f 176/6/76 173/6/76 175/11/76 177/6/76
f 174/8/62 420/9/62 422/6/62 175/11/62
f 427/6/63 178/8/63 177/6/63 428/10/63
f 182/6/77 176/6/77 178/8/77 183/8/77
f 439/6/57 184/6/57 183/8/57 440/9/57
f 179/7/74 182/6/74 184/6/74 180/8/74
f 433/6/56 181/8/56 180/8/56 434/10/56
f 173/6/75 179/7/75 181/8/75 174/8/75
f 187/5/82 189/1/82 188/2/82 185/2/82
f 189/1/83 192/1/83 191/2/83 190/2/83
f 192/1/84 195/5/84 194/2/84 193/3/84
f 195/5/85 187/5/85 186/2/85 196/2/85
f 29/2/86 186/2/86 185/2/86 30/2/86
f 190/2/87 36/2/87 35/4/87 188/2/87
f 42/1/88 194/2/88 196/2/88 43/2/88
f 193/3/89 50/1/89 49/2/89 191/2/89
f 7/3/3 19/3/3 13/3/3 1/3/3
f 211/1/1 198/1/1 200/2/1 213/2/1
f 217/2/5 210/3/5 214/3/5 219/2/5
f 228/3/3 221/3/3 235/3/3 242/3/3
f 218/1/4 212/4/4 201/2/4 206/2/4
f 199/2/2 204/3/2 208/3/2 202/2/2
f 205/1/6 216/1/6 220/2/6 207/2/6
f 237/4/1 222/4/1 224/2/1 240/3/1
f 245/2/7 447/2/7 446/2/7 232/2/7
f 238/1/9 450/2/9 449/3/9 246/1/9
f 231/4/8 444/2/8 441/2/8 226/2/8
f 223/3/14 229/3/14 234/3/14 227/3/14
f 225/2/11 442/2/11 452/2/11 239/2/11
f 263/2/3 250/2/3 252/2/3 265/2/3
f 269/2/13 262/5/13 266/2/13 271/2/13
f 279/5/6 273/4/6 285/5/6 291/5/6
f 270/3/1 264/2/1 253/5/1 258/3/1
f 251/5/12 256/3/12 260/2/12 254/2/12
f 257/2/4 268/2/4 272/2/4 259/2/4
f 287/4/3 274/4/3 276/2/3 289/2/3
f 293/5/13 286/5/13 290/2/13 295/5/13
f 303/2/6 297/1/6 309/5/6 315/5/6
f 294/5/1 288/4/1 277/5/1 282/5/1
f 275/5/12 280/5/12 284/5/12 278/2/12
f 281/4/4 292/4/4 296/2/4 283/2/4
f 311/4/3 298/4/3 300/2/3 313/2/3
f 317/1/13 310/5/13 314/5/13 319/4/13
f 327/6/12 321/6/12 333/7/12 339/7/12
f 318/2/1 312/1/1 301/5/1 306/5/1
f 299/5/12 304/2/12 308/2/12 302/5/12
f 305/4/4 316/4/4 320/2/4 307/2/4
f 335/8/3 322/8/3 324/9/3 337/6/3
f 341/6/6 334/8/6 338/10/6 343/6/6
f 351/7/12 345/7/12 357/7/12 363/7/12
f 342/7/13 336/7/13 325/7/13 330/6/13
f 323/11/1 328/6/1 332/10/1 326/6/1
f 329/8/4 340/12/4 344/6/4 331/6/4
f 359/8/3 346/12/3 348/6/3 361/6/3
f 365/6/6 358/8/6 362/10/6 367/6/6
f 375/6/12 369/6/12 381/12/12 387/6/12
f 366/7/13 360/7/13 349/7/13 354/7/13
f 347/11/1 352/6/1 356/10/1 350/6/1
f 353/8/4 364/12/4 368/6/4 355/6/4
f 383/6/6 370/6/6 372/12/6 385/12/6
f 389/13/4 382/8/4 386/6/4 391/6/4
f 399/6/12 393/6/12 405/12/12 411/6/12
f 390/6/13 384/9/13 373/14/13 378/6/13
f 371/13/3 376/8/3 380/6/3 374/13/3
f 377/6/1 388/6/1 392/12/1 379/12/1
f 407/6/6 394/6/6 396/12/6 409/12/6
f 413/13/4 406/8/4 410/6/4 415/6/4
f 423/6/12 417/6/12 429/7/12 435/6/12
f 414/6/13 408/9/13 397/14/13 402/6/13
f 395/13/3 400/8/3 404/6/3 398/13/3
f 401/6/1 412/6/1 416/12/1 403/12/1
f 431/8/3 418/8/3 420/9/3 433/6/3
f 437/6/6 430/8/6 434/10/6 439/6/6
f 448/1/4 451/5/4 443/5/4 445/1/4
f 438/6/13 432/6/13 421/7/13 426/6/13
f 419/11/1 424/6/1 428/10/1 422/6/1
f 425/8/4 436/8/4 440/9/4 427/6/4
f 230/4/6 243/4/6 248/2/6 233/3/6
f 244/3/10 236/3/10 241/3/10 247/3/10
f 255/3/6 249/2/6 261/5/6 267/3/6
f 197/3/19 199/2/19 198/1/19
f 200/2/20 202/2/20 201/2/20
f 203/3/21 205/1/21 204/3/21
f 206/2/22 208/3/22 207/2/22
f 209/3/15 211/1/15 210/3/15
f 212/4/16 214/3/16 213/2/16
f 215/3/17 217/2/17 216/1/17
f 218/1/18 220/2/18 219/2/18
f 221/3/27 223/3/27 222/4/27
f 224/2/28 227/3/28 226/2/28 225/2/28
f 228/3/29 230/4/29 229/3/29
f 231/4/30 234/3/30 233/3/30 232/2/30
f 235/3/23 237/4/23 236/3/23
f 238/1/24 241/3/24 240/3/24 239/2/24
f 242/3/25 244/3/25 243/4/25
f 245/2/26 248/2/26 247/3/26 246/1/26
f 249/2/35 251/5/35 250/2/35
f 252/2/36 254/2/36 253/5/36
f 255/3/37 257/2/37 256/3/37
f 258/3/38 260/2/38 259/2/38
f 261/5/31 263/2/31 262/5/31
f 264/2/32 266/2/32 265/2/32
f 267/3/33 269/2/33 268/2/33
f 270/3/34 272/2/34 271/2/34
f 273/4/42 275/5/42 274/4/42
f 276/2/90 278/2/90 277/5/90
f 279/5/43 281/4/43 280/5/43
f 282/5/38 284/5/38 283/2/38
f 285/5/39 287/4/39 286/5/39
f 288/4/32 290/2/32 289/2/32
f 291/5/41 293/5/41 292/4/41
f 294/5/34 296/2/34 295/5/34
f 297/1/42 299/5/42 298/4/42
f 300/2/36 302/5/36 301/5/36
f 303/2/43 305/4/43 304/2/43
f 306/5/38 308/2/38 307/2/38
f 309/5/39 311/4/39 310/5/39
f 312/1/32 314/5/32 313/2/32
f 315/5/41 317/1/41 316/4/41
f 318/2/34 320/2/34 319/4/34
f 321/6/90 323/11/90 322/8/90
f 324/9/13 326/6/13 325/7/13
f 327/6/91 329/8/91 328/6/91
f 330/6/13 332/10/13 331/6/13
f 333/7/92 335/8/92 334/8/92
f 336/7/13 338/10/13 337/6/13
f 339/7/93 341/6/93 340/12/93
f 342/7/13 344/6/13 343/6/13
f 345/7/90 347/11/90 346/12/90
f 348/6/13 350/6/13 349/7/13
f 351/7/91 353/8/91 352/6/91
f 354/7/13 356/10/13 355/6/13
f 357/7/92 359/8/92 358/8/92
f 360/7/13 362/10/13 361/6/13
f 363/7/93 365/6/93 364/12/93
f 366/7/13 368/6/13 367/6/13
f 369/6/35 371/13/35 370/6/35
f 372/12/13 374/13/13 373/14/13
f 375/6/36 377/6/36 376/8/36
f 378/6/13 380/6/13 379/12/13
f 381/12/94 383/6/94 382/8/94
f 384/9/13 386/6/13 385/12/13
f 387/6/38 389/13/38 388/6/38
f 390/6/13 392/12/13 391/6/13
f 393/6/35 395/13/35 394/6/35
f 396/12/13 398/13/13 397/14/13
f 399/6/36 401/6/36 400/8/36
f 402/6/13 404/6/13 403/12/13
f 405/12/94 407/6/94 406/8/94
f 408/9/13 410/6/13 409/12/13
f 411/6/38 413/13/38 412/6/38
f 414/6/13 416/12/13 415/6/13
f 417/6/90 419/11/90 418/8/90
f 420/9/13 422/6/13 421/7/13
f 423/6/91 425/8/91 424/6/91
f 426/6/13 428/10/13 427/6/13
f 429/7/92 431/8/92 430/8/92
f 432/6/13 434/10/13 433/6/13
f 435/6/93 437/6/93 436/8/93
f 438/6/13 440/9/13 439/6/13
f 441/2/51 443/5/51 442/2/51
f 444/2/50 446/2/50 445/1/50
f 447/2/49 449/3/49 448/1/49
f 450/2/48 452/2/48 451/5/48
f 203/3/59 204/3/59 199/2/59 197/3/59
f 198/1/61 199/2/61 202/2/61 200/2/61
f 201/2/60 202/2/60 208/3/60 206/2/60
f 207/2/58 208/3/58 204/3/58 205/1/58
f 215/3/56 216/1/56 205/1/56 203/3/56
f 206/2/57 207/2/57 220/2/57 218/1/57
f 219/2/55 220/2/55 216/1/55 217/2/55
f 209/3/52 210/3/52 217/2/52 215/3/52
f 218/1/54 219/2/54 214/3/54 212/4/54
f 213/2/53 214/3/53 210/3/53 211/1/53
f 197/3/62 198/1/62 211/1/62 209/3/62
f 212/4/63 213/2/63 200/2/63 201/2/63
f 228/3/70 229/3/70 223/3/70 221/3/70
f 222/4/72 223/3/72 227/3/72 224/2/72
f 226/2/71 227/3/71 234/3/71 231/4/71
f 233/3/69 234/3/69 229/3/69 230/4/69
f 242/3/56 243/4/56 230/4/56 228/3/56
f 232/2/68 233/3/68 248/2/68 245/2/68
f 247/3/67 248/2/67 243/4/67 244/3/67
f 235/3/64 236/3/64 244/3/64 242/3/64
f 246/1/66 247/3/66 241/3/66 238/1/66
f 240/3/65 241/3/65 236/3/65 237/4/65
f 221/3/62 222/4/62 237/4/62 235/3/62
f 239/2/73 240/3/73 224/2/73 225/2/73
f 255/3/79 256/3/79 251/5/79 249/2/79
f 250/2/81 251/5/81 254/2/81 252/2/81
f 253/5/80 254/2/80 260/2/80 258/3/80
f 259/2/78 260/2/78 256/3/78 257/2/78
f 267/3/57 268/2/57 257/2/57 255/3/57
f 258/3/63 259/2/63 272/2/63 270/3/63
f 271/2/77 272/2/77 268/2/77 269/2/77
f 261/5/74 262/5/74 269/2/74 267/3/74
f 270/3/76 271/2/76 266/2/76 264/2/76
f 265/2/75 266/2/75 262/5/75 263/2/75
f 249/2/56 250/2/56 263/2/56 261/5/56
f 264/2/62 265/2/62 252/2/62 253/5/62
f 279/5/79 280/5/79 275/5/79 273/4/79
f 274/4/81 275/5/81 278/2/81 276/2/81
f 277/5/80 278/2/80 284/5/80 282/5/80
f 283/2/78 284/5/78 280/5/78 281/4/78
f 291/5/57 292/4/57 281/4/57 279/5/57
f 282/5/63 283/2/63 296/2/63 294/5/63
f 295/5/77 296/2/77 292/4/77 293/5/77
f 285/5/74 286/5/74 293/5/74 291/5/74
f 294/5/76 295/5/76 290/2/76 288/4/76
f 289/2/75 290/2/75 286/5/75 287/4/75
f 273/4/56 274/4/56 287/4/56 285/5/56
f 288/4/62 289/2/62 276/2/62 277/5/62
f 303/2/79 304/2/79 299/5/79 297/1/79
f 298/4/81 299/5/81 302/5/81 300/2/81
f 301/5/80 302/5/80 308/2/80 306/5/80
f 307/2/78 308/2/78 304/2/78 305/4/78
f 315/5/57 316/4/57 305/4/57 303/2/57
f 306/5/63 307/2/63 320/2/63 318/2/63
f 319/4/77 320/2/77 316/4/77 317/1/77
f 309/5/74 310/5/74 317/1/74 315/5/74
f 318/2/76 319/4/76 314/5/76 312/1/76
f 313/2/75 314/5/75 310/5/75 311/4/75
f 297/1/56 298/4/56 311/4/56 309/5/56
f 312/1/62 313/2/62 300/2/62 301/5/62
f 327/6/80 328/6/80 323/11/80 321/6/80
f 322/8/62 323/11/62 326/6/62 324/9/62
f 325/7/13 326/6/13 332/10/13 330/6/13
f 331/6/63 332/10/63 328/6/63 329/8/63
f 339/7/78 340/12/78 329/8/78 327/6/78
f 330/6/13 331/6/13 344/6/13 342/7/13
f 343/6/57 344/6/57 340/12/57 341/6/57
f 333/7/79 334/8/79 341/6/79 339/7/79
f 342/7/13 343/6/13 338/10/13 336/7/13
f 337/6/56 338/10/56 334/8/56 335/8/56
f 321/6/81 322/8/81 335/8/81 333/7/81
f 336/7/13 337/6/13 324/9/13 325/7/13
f 351/7/80 352/6/80 347/11/80 345/7/80
f 346/12/62 347/11/62 350/6/62 348/6/62
f 349/7/13 350/6/13 356/10/13 354/7/13
f 355/6/63 356/10/63 352/6/63 353/8/63
f 363/7/78 364/12/78 353/8/78 351/7/78
f 354/7/13 355/6/13 368/6/13 366/7/13
f 367/6/57 368/6/57 364/12/57 365/6/57
f 357/7/79 358/8/79 365/6/79 363/7/79
f 366/7/13 367/6/13 362/10/13 360/7/13
f 361/6/56 362/10/56 358/8/56 359/8/56
f 345/7/81 346/12/81 359/8/81 357/7/81
f 360/7/13 361/6/13 348/6/13 349/7/13
f 375/6/81 376/8/81 371/13/81 369/6/81
f 370/6/56 371/13/56 374/13/56 372/12/56
f 373/14/13 374/13/13 380/6/13 378/6/13
f 379/12/62 380/6/62 376/8/62 377/6/62
f 387/6/80 388/6/80 377/6/80 375/6/80
f 378/6/13 379/12/13 392/12/13 390/6/13
f 391/6/63 392/12/63 388/6/63 389/13/63
f 381/12/78 382/8/78 389/13/78 387/6/78
f 390/6/13 391/6/13 386/6/13 384/9/13
f 385/12/57 386/6/57 382/8/57 383/6/57
f 369/6/79 370/6/79 383/6/79 381/12/79
f 384/9/13 385/12/13 372/12/13 373/14/13
f 399/6/81 400/8/81 395/13/81 393/6/81
f 394/6/56 395/13/56 398/13/56 396/12/56
f 397/14/13 398/13/13 404/6/13 402/6/13
f 403/12/62 404/6/62 400/8/62 401/6/62
f 411/6/80 412/6/80 401/6/80 399/6/80
f 402/6/13 403/12/13 416/12/13 414/6/13
f 415/6/63 416/12/63 412/6/63 413/13/63
f 405/12/78 406/8/78 413/13/78 411/6/78
f 414/6/13 415/6/13 410/6/13 408/9/13
f 409/12/57 410/6/57 406/8/57 407/6/57
f 393/6/79 394/6/79 407/6/79 405/12/79
f 408/9/13 409/12/13 396/12/13 397/14/13
f 423/6/80 424/6/80 419/11/80 417/6/80
f 418/8/62 419/11/62 422/6/62 420/9/62
f 421/7/13 422/6/13 428/10/13 426/6/13
f 427/6/63 428/10/63 424/6/63 425/8/63
f 435/6/78 436/8/78 425/8/78 423/6/78
f 426/6/13 427/6/13 440/9/13 438/6/13
f 439/6/57 440/9/57 436/8/57 437/6/57
f 429/7/79 430/8/79 437/6/79 435/6/79
f 438/6/13 439/6/13 434/10/13 432/6/13
f 433/6/56 434/10/56 430/8/56 431/8/56
f 417/6/81 418/8/81 431/8/81 429/7/81
f 432/6/13 433/6/13 420/9/13 421/7/13
f 443/5/84 441/2/84 444/2/84 445/1/84
f 445/1/83 446/2/83 447/2/83 448/1/83
f 448/1/82 449/3/82 450/2/82 451/5/82
f 451/5/85 452/2/85 442/2/85 443/5/85
f 225/2/88 226/2/88 441/2/88 442/2/88
f 446/2/89 444/2/89 231/4/89 232/2/89
f 238/1/86 239/2/86 452/2/86 450/2/86
f 449/3/87 447/2/87 245/2/87 246/1/87
f 203/3/3 197/3/3 209/3/3 215/3/3
